Playwrite-Th18ShortSlow.ufo
<glyph name="exclam" format="2">
  <advance width="340"/>
  <unicode hex="0021"/>
  <outline>
    <contour>
      <point x="159" y="216" type="curve" smooth="yes"/>
      <point x="173" y="216"/>
      <point x="179" y="221"/>
      <point x="181" y="231" type="curve" smooth="yes"/>
      <point x="390" y="875" type="line" smooth="yes"/>
      <point x="394" y="886"/>
      <point x="388" y="890"/>
      <point x="375" y="890" type="curve" smooth="yes"/>
      <point x="361" y="890"/>
      <point x="356" y="888"/>
      <point x="353" y="875" type="curve" smooth="yes"/>
      <point x="144" y="231" type="line" smooth="yes"/>
      <point x="140" y="220"/>
      <point x="145" y="216"/>
    </contour>
    <contour>
      <point x="90" y="-14" type="curve" smooth="yes"/>
      <point x="120" y="-14"/>
      <point x="141" y="11"/>
      <point x="143" y="46" type="curve" smooth="yes"/>
      <point x="143" y="65"/>
      <point x="129" y="76"/>
      <point x="106" y="76" type="curve" smooth="yes"/>
      <point x="76" y="76"/>
      <point x="55" y="51"/>
      <point x="54" y="16" type="curve" smooth="yes"/>
      <point x="54" y="-2"/>
      <point x="68" y="-14"/>
    </contour>
  </outline>
</glyph>
<glyph name="dollar" format="2">
  <advance width="668"/>
  <unicode hex="0024"/>
  <outline>
    <contour>
      <point x="288" y="-19" type="curve" smooth="yes"/>
      <point x="480" y="-19"/>
      <point x="598" y="94"/>
      <point x="598" y="246" type="curve" smooth="yes"/>
      <point x="598" y="379"/>
      <point x="498" y="421"/>
      <point x="401" y="470" type="curve" smooth="yes"/>
      <point x="315" y="514"/>
      <point x="233" y="554"/>
      <point x="233" y="656" type="curve" smooth="yes"/>
      <point x="233" y="769"/>
      <point x="321" y="853"/>
      <point x="456" y="853" type="curve" smooth="yes"/>
      <point x="531" y="853"/>
      <point x="614" y="826"/>
      <point x="681" y="769" type="curve" smooth="yes"/>
      <point x="689" y="761"/>
      <point x="695" y="758"/>
      <point x="706" y="768" type="curve" smooth="yes"/>
      <point x="716" y="776"/>
      <point x="716" y="781"/>
      <point x="706" y="793" type="curve" smooth="yes"/>
      <point x="651" y="851"/>
      <point x="546" y="890"/>
      <point x="456" y="890" type="curve" smooth="yes"/>
      <point x="300" y="890"/>
      <point x="193" y="794"/>
      <point x="193" y="654" type="curve" smooth="yes"/>
      <point x="193" y="533"/>
      <point x="290" y="484"/>
      <point x="384" y="438" type="curve" smooth="yes"/>
      <point x="475" y="393"/>
      <point x="558" y="354"/>
      <point x="558" y="243" type="curve" smooth="yes"/>
      <point x="558" y="114"/>
      <point x="460" y="19"/>
      <point x="291" y="19" type="curve" smooth="yes"/>
      <point x="185" y="19"/>
      <point x="106" y="54"/>
      <point x="63" y="103" type="curve" smooth="yes"/>
      <point x="54" y="113"/>
      <point x="48" y="118"/>
      <point x="35" y="108" type="curve" smooth="yes"/>
      <point x="24" y="99"/>
      <point x="26" y="91"/>
      <point x="33" y="83" type="curve" smooth="yes"/>
      <point x="63" y="41"/>
      <point x="154" y="-19"/>
    </contour>
    <contour>
      <point x="195" y="-126" type="curve" smooth="yes"/>
      <point x="209" y="-126"/>
      <point x="215" y="-122"/>
      <point x="219" y="-111" type="curve" smooth="yes"/>
      <point x="579" y="996" type="line" smooth="yes"/>
      <point x="583" y="1008"/>
      <point x="578" y="1011"/>
      <point x="565" y="1011" type="curve" smooth="yes"/>
      <point x="551" y="1011"/>
      <point x="545" y="1008"/>
      <point x="541" y="996" type="curve" smooth="yes"/>
      <point x="181" y="-111" type="line" smooth="yes"/>
      <point x="178" y="-122"/>
      <point x="181" y="-126"/>
    </contour>
  </outline>
</glyph>
<glyph name="percent" format="2">
  <advance width="825"/>
  <unicode hex="0025"/>
  <outline>
    <contour>
      <point x="289" y="513" type="curve" smooth="yes"/>
      <point x="434" y="513"/>
      <point x="500" y="669"/>
      <point x="500" y="764" type="curve" smooth="yes"/>
      <point x="500" y="839"/>
      <point x="458" y="890"/>
      <point x="383" y="890" type="curve" smooth="yes"/>
      <point x="240" y="890"/>
      <point x="169" y="746"/>
      <point x="169" y="644" type="curve" smooth="yes"/>
      <point x="169" y="566"/>
      <point x="211" y="513"/>
    </contour>
    <contour>
      <point x="293" y="546" type="curve" smooth="yes"/>
      <point x="238" y="546"/>
      <point x="206" y="585"/>
      <point x="206" y="645" type="curve" smooth="yes"/>
      <point x="206" y="729"/>
      <point x="268" y="856"/>
      <point x="376" y="856" type="curve" smooth="yes"/>
      <point x="431" y="856"/>
      <point x="461" y="819"/>
      <point x="461" y="761" type="curve" smooth="yes"/>
      <point x="461" y="678"/>
      <point x="405" y="546"/>
    </contour>
    <contour>
      <point x="78" y="-12" type="curve"/>
      <point x="874" y="861" type="line" smooth="yes"/>
      <point x="880" y="869"/>
      <point x="879" y="879"/>
      <point x="873" y="885" type="curve"/>
      <point x="863" y="893"/>
      <point x="855" y="891"/>
      <point x="848" y="883" type="curve"/>
      <point x="51" y="9" type="line" smooth="yes"/>
      <point x="43" y="0"/>
      <point x="44" y="-9"/>
      <point x="53" y="-15" type="curve" smooth="yes"/>
      <point x="61" y="-22"/>
      <point x="69" y="-21"/>
    </contour>
    <contour>
      <point x="555" y="-19" type="curve" smooth="yes"/>
      <point x="700" y="-19"/>
      <point x="766" y="138"/>
      <point x="766" y="233" type="curve" smooth="yes"/>
      <point x="766" y="308"/>
      <point x="724" y="359"/>
      <point x="649" y="359" type="curve" smooth="yes"/>
      <point x="506" y="359"/>
      <point x="435" y="215"/>
      <point x="435" y="113" type="curve" smooth="yes"/>
      <point x="435" y="35"/>
      <point x="478" y="-19"/>
    </contour>
    <contour>
      <point x="559" y="15" type="curve" smooth="yes"/>
      <point x="504" y="15"/>
      <point x="473" y="54"/>
      <point x="473" y="114" type="curve" smooth="yes"/>
      <point x="473" y="198"/>
      <point x="534" y="325"/>
      <point x="643" y="325" type="curve" smooth="yes"/>
      <point x="698" y="325"/>
      <point x="728" y="288"/>
      <point x="728" y="230" type="curve" smooth="yes"/>
      <point x="728" y="146"/>
      <point x="671" y="15"/>
    </contour>
  </outline>
</glyph>
<glyph name="quotesingle" format="2">
  <advance width="169"/>
  <unicode hex="0027"/>
  <outline>
    <contour>
      <point x="215" y="645" type="curve" smooth="yes"/>
      <point x="229" y="645"/>
      <point x="235" y="651"/>
      <point x="240" y="664" type="curve" smooth="yes"/>
      <point x="315" y="866" type="line" smooth="yes"/>
      <point x="320" y="880"/>
      <point x="314" y="894"/>
      <point x="290" y="894" type="curve" smooth="yes"/>
      <point x="269" y="894"/>
      <point x="259" y="883"/>
      <point x="255" y="869" type="curve" smooth="yes"/>
      <point x="200" y="665" type="line" smooth="yes"/>
      <point x="197" y="654"/>
      <point x="200" y="645"/>
    </contour>
  </outline>
</glyph>
<glyph name="asterisk" format="2">
  <advance width="358"/>
  <unicode hex="002A"/>
  <outline>
    <contour>
      <point x="271" y="519" type="curve" smooth="yes"/>
      <point x="284" y="518"/>
      <point x="289" y="523"/>
      <point x="292" y="534" type="curve" smooth="yes"/>
      <point x="335" y="675" type="line"/>
      <point x="435" y="568" type="line" smooth="yes"/>
      <point x="444" y="559"/>
      <point x="450" y="553"/>
      <point x="461" y="564" type="curve" smooth="yes"/>
      <point x="472" y="575"/>
      <point x="469" y="581"/>
      <point x="460" y="590" type="curve" smooth="yes"/>
      <point x="360" y="697" type="line"/>
      <point x="501" y="730" type="line" smooth="yes"/>
      <point x="514" y="733"/>
      <point x="520" y="738"/>
      <point x="517" y="750" type="curve" smooth="yes"/>
      <point x="514" y="766"/>
      <point x="507" y="765"/>
      <point x="495" y="763" type="curve" smooth="yes"/>
      <point x="351" y="730" type="line"/>
      <point x="396" y="876" type="line" smooth="yes"/>
      <point x="399" y="886"/>
      <point x="396" y="893"/>
      <point x="384" y="894" type="curve" smooth="yes"/>
      <point x="371" y="895"/>
      <point x="365" y="888"/>
      <point x="362" y="879" type="curve" smooth="yes"/>
      <point x="320" y="739" type="line"/>
      <point x="216" y="849" type="line" smooth="yes"/>
      <point x="209" y="856"/>
      <point x="202" y="858"/>
      <point x="194" y="849" type="curve" smooth="yes"/>
      <point x="182" y="838"/>
      <point x="189" y="829"/>
      <point x="194" y="824" type="curve" smooth="yes"/>
      <point x="295" y="716" type="line"/>
      <point x="152" y="683" type="line" smooth="yes"/>
      <point x="139" y="679"/>
      <point x="134" y="674"/>
      <point x="137" y="661" type="curve" smooth="yes"/>
      <point x="141" y="646"/>
      <point x="149" y="646"/>
      <point x="162" y="650" type="curve" smooth="yes"/>
      <point x="302" y="683" type="line"/>
      <point x="259" y="540" type="line" smooth="yes"/>
      <point x="255" y="526"/>
      <point x="259" y="520"/>
    </contour>
  </outline>
</glyph>
<glyph name="period" format="2">
  <advance width="313"/>
  <unicode hex="002E"/>
  <outline>
    <contour>
      <point x="78" y="-14" type="curve" smooth="yes"/>
      <point x="108" y="-14"/>
      <point x="129" y="11"/>
      <point x="129" y="46" type="curve" smooth="yes"/>
      <point x="129" y="65"/>
      <point x="115" y="76"/>
      <point x="93" y="76" type="curve" smooth="yes"/>
      <point x="63" y="76"/>
      <point x="41" y="51"/>
      <point x="41" y="16" type="curve" smooth="yes"/>
      <point x="41" y="-2"/>
      <point x="55" y="-14"/>
    </contour>
  </outline>
</glyph>
<glyph name="two" format="2">
  <advance width="663"/>
  <unicode hex="0032"/>
  <outline>
    <contour>
      <point x="4" y="0" type="curve" smooth="yes"/>
      <point x="494" y="0" type="line" smooth="yes"/>
      <point x="500" y="0"/>
      <point x="510" y="4"/>
      <point x="513" y="16" type="curve" smooth="yes"/>
      <point x="515" y="29"/>
      <point x="509" y="35"/>
      <point x="503" y="35" type="curve" smooth="yes"/>
      <point x="68" y="35" type="line"/>
      <point x="188" y="125" type="line" smooth="yes"/>
      <point x="409" y="291"/>
      <point x="709" y="504"/>
      <point x="709" y="704" type="curve" smooth="yes"/>
      <point x="709" y="829"/>
      <point x="629" y="890"/>
      <point x="513" y="890" type="curve" smooth="yes"/>
      <point x="416" y="890"/>
      <point x="323" y="849"/>
      <point x="255" y="798" type="curve" smooth="yes"/>
      <point x="241" y="788"/>
      <point x="239" y="780"/>
      <point x="248" y="769" type="curve" smooth="yes"/>
      <point x="255" y="759"/>
      <point x="263" y="758"/>
      <point x="278" y="768" type="curve" smooth="yes"/>
      <point x="353" y="821"/>
      <point x="419" y="853"/>
      <point x="509" y="853" type="curve" smooth="yes"/>
      <point x="603" y="853"/>
      <point x="666" y="803"/>
      <point x="666" y="704" type="curve" smooth="yes"/>
      <point x="666" y="519"/>
      <point x="383" y="318"/>
      <point x="166" y="154" type="curve" smooth="yes"/>
      <point x="-4" y="25" type="line" smooth="yes"/>
      <point x="-11" y="19"/>
      <point x="-15" y="0"/>
    </contour>
  </outline>
</glyph>
<glyph name="eight" format="2">
  <advance width="663"/>
  <unicode hex="0038"/>
  <outline>
    <contour>
      <point x="275" y="-19" type="curve" smooth="yes"/>
      <point x="446" y="-19"/>
      <point x="594" y="74"/>
      <point x="594" y="255" type="curve" smooth="yes"/>
      <point x="594" y="359"/>
      <point x="523" y="424"/>
      <point x="443" y="470" type="curve"/>
      <point x="574" y="514"/>
      <point x="703" y="586"/>
      <point x="703" y="725" type="curve" smooth="yes"/>
      <point x="703" y="826"/>
      <point x="615" y="890"/>
      <point x="494" y="890" type="curve" smooth="yes"/>
      <point x="335" y="890"/>
      <point x="221" y="803"/>
      <point x="221" y="663" type="curve" smooth="yes"/>
      <point x="221" y="591"/>
      <point x="260" y="528"/>
      <point x="356" y="475" type="curve"/>
      <point x="190" y="424"/>
      <point x="40" y="335"/>
      <point x="40" y="173" type="curve" smooth="yes"/>
      <point x="40" y="61"/>
      <point x="130" y="-19"/>
    </contour>
    <contour>
      <point x="283" y="19" type="curve" smooth="yes"/>
      <point x="156" y="19"/>
      <point x="81" y="80"/>
      <point x="81" y="173" type="curve" smooth="yes"/>
      <point x="81" y="328"/>
      <point x="228" y="403"/>
      <point x="398" y="454" type="curve"/>
      <point x="493" y="403"/>
      <point x="551" y="348"/>
      <point x="551" y="251" type="curve" smooth="yes"/>
      <point x="551" y="100"/>
      <point x="426" y="19"/>
    </contour>
    <contour>
      <point x="404" y="491" type="curve"/>
      <point x="319" y="535"/>
      <point x="264" y="583"/>
      <point x="264" y="666" type="curve" smooth="yes"/>
      <point x="264" y="788"/>
      <point x="363" y="853"/>
      <point x="488" y="853" type="curve" smooth="yes"/>
      <point x="588" y="853"/>
      <point x="661" y="805"/>
      <point x="661" y="721" type="curve" smooth="yes"/>
      <point x="661" y="599"/>
      <point x="544" y="535"/>
    </contour>
  </outline>
</glyph>
<glyph name="question" format="2">
  <advance width="498"/>
  <unicode hex="003F"/>
  <outline>
    <contour>
      <point x="171" y="216" type="curve" smooth="yes"/>
      <point x="185" y="216"/>
      <point x="191" y="220"/>
      <point x="195" y="231" type="curve" smooth="yes"/>
      <point x="244" y="386" type="line"/>
      <point x="439" y="393"/>
      <point x="618" y="476"/>
      <point x="618" y="698" type="curve" smooth="yes"/>
      <point x="618" y="816"/>
      <point x="528" y="890"/>
      <point x="428" y="890" type="curve" smooth="yes"/>
      <point x="328" y="890"/>
      <point x="241" y="849"/>
      <point x="178" y="795" type="curve" smooth="yes"/>
      <point x="165" y="785"/>
      <point x="164" y="779"/>
      <point x="171" y="769" type="curve" smooth="yes"/>
      <point x="178" y="760"/>
      <point x="186" y="759"/>
      <point x="200" y="769" type="curve" smooth="yes"/>
      <point x="279" y="823"/>
      <point x="333" y="854"/>
      <point x="418" y="854" type="curve" smooth="yes"/>
      <point x="504" y="854"/>
      <point x="576" y="798"/>
      <point x="576" y="699" type="curve" smooth="yes"/>
      <point x="576" y="491"/>
      <point x="414" y="426"/>
      <point x="231" y="424" type="curve" smooth="yes"/>
      <point x="225" y="424"/>
      <point x="214" y="420"/>
      <point x="210" y="408" type="curve" smooth="yes"/>
      <point x="156" y="231" type="line" smooth="yes"/>
      <point x="153" y="220"/>
      <point x="158" y="216"/>
    </contour>
    <contour>
      <point x="111" y="-14" type="curve" smooth="yes"/>
      <point x="141" y="-14"/>
      <point x="164" y="11"/>
      <point x="164" y="46" type="curve" smooth="yes"/>
      <point x="164" y="65"/>
      <point x="150" y="76"/>
      <point x="128" y="76" type="curve" smooth="yes"/>
      <point x="98" y="76"/>
      <point x="75" y="51"/>
      <point x="75" y="16" type="curve" smooth="yes"/>
      <point x="75" y="-2"/>
      <point x="89" y="-14"/>
    </contour>
  </outline>
</glyph>
<glyph name="at" format="2">
  <advance width="878"/>
  <unicode hex="0040"/>
  <outline>
    <contour>
      <point x="259" y="183" type="curve" smooth="yes"/>
      <point x="259" y="103"/>
      <point x="299" y="53"/>
      <point x="368" y="53" type="curve" smooth="yes"/>
      <point x="417" y="53"/>
      <point x="472" y="79"/>
      <point x="516" y="135" type="curve"/>
      <point x="514" y="130"/>
      <point x="514" y="125"/>
      <point x="514" y="123" type="curve" smooth="yes"/>
      <point x="512" y="78"/>
      <point x="532" y="53"/>
      <point x="576" y="53" type="curve" smooth="yes"/>
      <point x="717" y="53"/>
      <point x="835" y="198"/>
      <point x="835" y="370" type="curve" smooth="yes"/>
      <point x="835" y="539"/>
      <point x="701" y="644"/>
      <point x="515" y="644" type="curve" smooth="yes"/>
      <point x="239" y="644"/>
      <point x="68" y="424"/>
      <point x="68" y="176" type="curve" smooth="yes"/>
      <point x="68" y="-5"/>
      <point x="175" y="-134"/>
      <point x="358" y="-134" type="curve" smooth="yes"/>
      <point x="436" y="-134"/>
      <point x="504" y="-122"/>
      <point x="578" y="-96" type="curve" smooth="yes"/>
      <point x="588" y="-92"/>
      <point x="591" y="-87"/>
      <point x="588" y="-75" type="curve" smooth="yes"/>
      <point x="585" y="-65"/>
      <point x="578" y="-61"/>
      <point x="568" y="-65" type="curve" smooth="yes"/>
      <point x="496" y="-90"/>
      <point x="431" y="-101"/>
      <point x="363" y="-101" type="curve" smooth="yes"/>
      <point x="199" y="-101"/>
      <point x="101" y="14"/>
      <point x="101" y="179" type="curve" smooth="yes"/>
      <point x="101" y="413"/>
      <point x="260" y="611"/>
      <point x="510" y="611" type="curve" smooth="yes"/>
      <point x="680" y="611"/>
      <point x="800" y="526"/>
      <point x="800" y="369" type="curve" smooth="yes"/>
      <point x="800" y="208"/>
      <point x="701" y="84"/>
      <point x="579" y="84" type="curve" smooth="yes"/>
      <point x="552" y="84"/>
      <point x="542" y="110"/>
      <point x="556" y="155" type="curve" smooth="yes"/>
      <point x="643" y="444" type="line" smooth="yes"/>
      <point x="646" y="455"/>
      <point x="651" y="463"/>
      <point x="636" y="463" type="curve" smooth="yes"/>
      <point x="622" y="463"/>
      <point x="619" y="459"/>
      <point x="616" y="449" type="curve" smooth="yes"/>
      <point x="609" y="431" type="line"/>
      <point x="581" y="453"/>
      <point x="542" y="466"/>
      <point x="507" y="466" type="curve" smooth="yes"/>
      <point x="337" y="466"/>
      <point x="259" y="301"/>
    </contour>
    <contour>
      <point x="298" y="185" type="curve" smooth="yes"/>
      <point x="298" y="286"/>
      <point x="359" y="434"/>
      <point x="503" y="434" type="curve" smooth="yes"/>
      <point x="532" y="434"/>
      <point x="562" y="428"/>
      <point x="601" y="403" type="curve"/>
      <point x="538" y="213" type="line"/>
      <point x="487" y="120"/>
      <point x="428" y="85"/>
      <point x="377" y="85" type="curve" smooth="yes"/>
      <point x="322" y="85"/>
      <point x="298" y="125"/>
    </contour>
  </outline>
</glyph>
<glyph name="D" format="2">
  <advance width="869"/>
  <unicode hex="0044"/>
  <anchor x="347" y="0" name="bottom"/>
  <anchor x="293" y="438" name="center"/>
  <anchor x="579" y="838" name="top"/>
  <outline>
    <contour>
      <point x="90" y="0" type="curve" smooth="yes"/>
      <point x="283" y="0" type="line" smooth="yes"/>
      <point x="617" y="0"/>
      <point x="859" y="250"/>
      <point x="859" y="596" type="curve" smooth="yes"/>
      <point x="859" y="791"/>
      <point x="739" y="875"/>
      <point x="568" y="875" type="curve" smooth="yes"/>
      <point x="372" y="875" type="line" smooth="yes"/>
      <point x="355" y="875"/>
      <point x="352" y="871"/>
      <point x="348" y="860" type="curve" smooth="yes"/>
      <point x="75" y="15" type="line" smooth="yes"/>
      <point x="72" y="4"/>
      <point x="78" y="0"/>
    </contour>
    <contour>
      <point x="120" y="35" type="line"/>
      <point x="380" y="840" type="line"/>
      <point x="565" y="840" type="line" smooth="yes"/>
      <point x="718" y="840"/>
      <point x="818" y="770"/>
      <point x="818" y="596" type="curve" smooth="yes"/>
      <point x="818" y="271"/>
      <point x="593" y="35"/>
      <point x="283" y="35" type="curve" smooth="yes"/>
    </contour>
  </outline>
</glyph>
<glyph name="G" format="2">
  <advance width="875"/>
  <unicode hex="0047"/>
  <anchor x="369" y="0" name="bottom"/>
  <anchor x="619" y="838" name="top"/>
  <outline>
    <contour>
      <point x="398" y="-19" type="curve" smooth="yes"/>
      <point x="580" y="-19"/>
      <point x="724" y="109"/>
      <point x="833" y="438" type="curve" smooth="yes"/>
      <point x="836" y="449"/>
      <point x="833" y="453"/>
      <point x="819" y="453" type="curve" smooth="yes"/>
      <point x="549" y="453" type="line" smooth="yes"/>
      <point x="538" y="453"/>
      <point x="533" y="448"/>
      <point x="529" y="436" type="curve" smooth="yes"/>
      <point x="526" y="429"/>
      <point x="524" y="418"/>
      <point x="538" y="418" type="curve" smooth="yes"/>
      <point x="786" y="418" type="line"/>
      <point x="685" y="129"/>
      <point x="554" y="19"/>
      <point x="398" y="19" type="curve" smooth="yes"/>
      <point x="251" y="19"/>
      <point x="171" y="118"/>
      <point x="171" y="268" type="curve" smooth="yes"/>
      <point x="171" y="550"/>
      <point x="350" y="853"/>
      <point x="639" y="853" type="curve" smooth="yes"/>
      <point x="711" y="853"/>
      <point x="771" y="826"/>
      <point x="815" y="776" type="curve" smooth="yes"/>
      <point x="829" y="761"/>
      <point x="833" y="758"/>
      <point x="844" y="763" type="curve" smooth="yes"/>
      <point x="859" y="770"/>
      <point x="864" y="779"/>
      <point x="856" y="790" type="curve" smooth="yes"/>
      <point x="810" y="855"/>
      <point x="735" y="890"/>
      <point x="641" y="890" type="curve" smooth="yes"/>
      <point x="321" y="890"/>
      <point x="130" y="566"/>
      <point x="130" y="268" type="curve" smooth="yes"/>
      <point x="130" y="95"/>
      <point x="225" y="-19"/>
    </contour>
  </outline>
</glyph>
<glyph name="H" format="2">
  <advance width="888"/>
  <unicode hex="0048"/>
  <anchor x="363" y="0" name="bottom"/>
  <anchor x="584" y="676" name="center"/>
  <anchor x="618" y="838" name="top"/>
  <outline>
    <contour>
      <point x="85" y="-14" type="curve" smooth="yes"/>
      <point x="101" y="-14"/>
      <point x="105" y="-10"/>
      <point x="109" y="1" type="curve" smooth="yes"/>
      <point x="251" y="441" type="line"/>
      <point x="759" y="441" type="line"/>
      <point x="618" y="1" type="line" smooth="yes"/>
      <point x="614" y="-10"/>
      <point x="620" y="-14"/>
      <point x="633" y="-14" type="curve" smooth="yes"/>
      <point x="649" y="-14"/>
      <point x="653" y="-10"/>
      <point x="656" y="1" type="curve" smooth="yes"/>
      <point x="939" y="875" type="line" smooth="yes"/>
      <point x="943" y="886"/>
      <point x="936" y="890"/>
      <point x="924" y="890" type="curve" smooth="yes"/>
      <point x="908" y="890"/>
      <point x="904" y="886"/>
      <point x="900" y="875" type="curve" smooth="yes"/>
      <point x="770" y="476" type="line"/>
      <point x="263" y="476" type="line"/>
      <point x="391" y="875" type="line" smooth="yes"/>
      <point x="395" y="886"/>
      <point x="389" y="890"/>
      <point x="376" y="890" type="curve" smooth="yes"/>
      <point x="360" y="890"/>
      <point x="356" y="886"/>
      <point x="353" y="875" type="curve" smooth="yes"/>
      <point x="70" y="1" type="line" smooth="yes"/>
      <point x="66" y="-10"/>
      <point x="73" y="-14"/>
    </contour>
  </outline>
</glyph>
<glyph name="J" format="2">
  <advance width="650"/>
  <unicode hex="004A"/>
  <anchor x="244" y="0" name="bottom"/>
  <anchor x="683" y="838" name="top"/>
  <outline>
    <contour>
      <point x="233" y="-19" type="curve" smooth="yes"/>
      <point x="376" y="-19"/>
      <point x="458" y="66"/>
      <point x="521" y="263" type="curve" smooth="yes"/>
      <point x="721" y="875" type="line" smooth="yes"/>
      <point x="725" y="885"/>
      <point x="721" y="890"/>
      <point x="706" y="890" type="curve" smooth="yes"/>
      <point x="690" y="890"/>
      <point x="686" y="886"/>
      <point x="683" y="875" type="curve" smooth="yes"/>
      <point x="481" y="260" type="line" smooth="yes"/>
      <point x="426" y="91"/>
      <point x="354" y="19"/>
      <point x="238" y="19" type="curve" smooth="yes"/>
      <point x="131" y="19"/>
      <point x="80" y="68"/>
      <point x="80" y="164" type="curve" smooth="yes"/>
      <point x="80" y="175"/>
      <point x="74" y="180"/>
      <point x="61" y="179" type="curve" smooth="yes"/>
      <point x="48" y="178"/>
      <point x="43" y="171"/>
      <point x="43" y="154" type="curve" smooth="yes"/>
      <point x="43" y="46"/>
      <point x="116" y="-19"/>
    </contour>
  </outline>
</glyph>
<glyph name="P" format="2">
  <advance width="699"/>
  <unicode hex="0050"/>
  <outline>
    <contour>
      <point x="84" y="-14" type="curve" smooth="yes"/>
      <point x="99" y="-14"/>
      <point x="103" y="-10"/>
      <point x="107" y="1" type="curve" smooth="yes"/>
      <point x="227" y="368" type="line"/>
      <point x="288" y="370"/>
      <point x="354" y="374"/>
      <point x="415" y="381" type="curve" smooth="yes"/>
      <point x="635" y="409"/>
      <point x="783" y="511"/>
      <point x="783" y="699" type="curve" smooth="yes"/>
      <point x="783" y="829"/>
      <point x="702" y="875"/>
      <point x="543" y="875" type="curve" smooth="yes"/>
      <point x="372" y="875" type="line" smooth="yes"/>
      <point x="355" y="875"/>
      <point x="352" y="871"/>
      <point x="348" y="860" type="curve" smooth="yes"/>
      <point x="69" y="1" type="line" smooth="yes"/>
      <point x="65" y="-10"/>
      <point x="72" y="-14"/>
    </contour>
    <contour>
      <point x="238" y="403" type="curve"/>
      <point x="379" y="840" type="line"/>
      <point x="543" y="840" type="line" smooth="yes"/>
      <point x="675" y="840"/>
      <point x="743" y="804"/>
      <point x="743" y="698" type="curve" smooth="yes"/>
      <point x="743" y="531"/>
      <point x="612" y="443"/>
      <point x="415" y="416" type="curve" smooth="yes"/>
      <point x="358" y="409"/>
      <point x="297" y="404"/>
    </contour>
  </outline>
</glyph>
<glyph name="S" format="2">
  <advance width="688"/>
  <unicode hex="0053"/>
  <anchor x="286" y="0" name="bottom"/>
  <anchor x="484" y="838" name="top"/>
  <outline>
    <contour>
      <point x="300" y="-19" type="curve" smooth="yes"/>
      <point x="493" y="-19"/>
      <point x="610" y="94"/>
      <point x="610" y="246" type="curve" smooth="yes"/>
      <point x="610" y="379"/>
      <point x="511" y="421"/>
      <point x="415" y="470" type="curve" smooth="yes"/>
      <point x="329" y="514"/>
      <point x="245" y="554"/>
      <point x="245" y="656" type="curve" smooth="yes"/>
      <point x="245" y="769"/>
      <point x="334" y="853"/>
      <point x="469" y="853" type="curve" smooth="yes"/>
      <point x="544" y="853"/>
      <point x="626" y="826"/>
      <point x="694" y="769" type="curve" smooth="yes"/>
      <point x="701" y="761"/>
      <point x="708" y="758"/>
      <point x="719" y="768" type="curve" smooth="yes"/>
      <point x="729" y="776"/>
      <point x="729" y="781"/>
      <point x="719" y="793" type="curve" smooth="yes"/>
      <point x="664" y="851"/>
      <point x="559" y="890"/>
      <point x="469" y="890" type="curve" smooth="yes"/>
      <point x="313" y="890"/>
      <point x="205" y="794"/>
      <point x="205" y="654" type="curve" smooth="yes"/>
      <point x="205" y="533"/>
      <point x="301" y="484"/>
      <point x="395" y="438" type="curve" smooth="yes"/>
      <point x="486" y="393"/>
      <point x="570" y="354"/>
      <point x="570" y="243" type="curve" smooth="yes"/>
      <point x="570" y="114"/>
      <point x="473" y="19"/>
      <point x="304" y="19" type="curve" smooth="yes"/>
      <point x="198" y="19"/>
      <point x="119" y="54"/>
      <point x="75" y="103" type="curve" smooth="yes"/>
      <point x="66" y="113"/>
      <point x="60" y="118"/>
      <point x="48" y="108" type="curve" smooth="yes"/>
      <point x="36" y="99"/>
      <point x="39" y="91"/>
      <point x="45" y="83" type="curve" smooth="yes"/>
      <point x="75" y="41"/>
      <point x="166" y="-19"/>
    </contour>
  </outline>
</glyph>
<glyph name="T" format="2">
  <advance width="690"/>
  <unicode hex="0054"/>
  <anchor x="263" y="0" name="bottom"/>
  <anchor x="413" y="438" name="center"/>
  <anchor x="533" y="838" name="top"/>
  <outline>
    <contour>
      <point x="268" y="-14" type="curve" smooth="yes"/>
      <point x="284" y="-14"/>
      <point x="288" y="-10"/>
      <point x="291" y="1" type="curve" smooth="yes"/>
      <point x="564" y="840" type="line"/>
      <point x="840" y="840" type="line" smooth="yes"/>
      <point x="853" y="840"/>
      <point x="858" y="844"/>
      <point x="861" y="858" type="curve" smooth="yes"/>
      <point x="864" y="869"/>
      <point x="864" y="875"/>
      <point x="850" y="875" type="curve" smooth="yes"/>
      <point x="245" y="875" type="line" smooth="yes"/>
      <point x="233" y="875"/>
      <point x="228" y="871"/>
      <point x="224" y="859" type="curve" smooth="yes"/>
      <point x="220" y="846"/>
      <point x="221" y="840"/>
      <point x="235" y="840" type="curve" smooth="yes"/>
      <point x="525" y="840" type="line"/>
      <point x="253" y="1" type="line" smooth="yes"/>
      <point x="249" y="-10"/>
      <point x="255" y="-14"/>
    </contour>
  </outline>
</glyph>
<glyph name="V" format="2">
  <advance width="725"/>
  <unicode hex="0056"/>
  <outline>
    <contour>
      <point x="306" y="-14" type="curve" smooth="yes"/>
      <point x="319" y="-14"/>
      <point x="324" y="-10"/>
      <point x="329" y="-1" type="curve" smooth="yes"/>
      <point x="891" y="866" type="line" smooth="yes"/>
      <point x="899" y="878"/>
      <point x="894" y="890"/>
      <point x="878" y="890" type="curve" smooth="yes"/>
      <point x="865" y="890"/>
      <point x="861" y="886"/>
      <point x="854" y="875" type="curve" smooth="yes"/>
      <point x="320" y="46" type="line"/>
      <point x="274" y="873" type="line" smooth="yes"/>
      <point x="273" y="886"/>
      <point x="269" y="890"/>
      <point x="255" y="890" type="curve" smooth="yes"/>
      <point x="241" y="890"/>
      <point x="236" y="886"/>
      <point x="238" y="871" type="curve" smooth="yes"/>
      <point x="289" y="1" type="line" smooth="yes"/>
      <point x="290" y="-10"/>
      <point x="294" y="-14"/>
    </contour>
  </outline>
</glyph>
<glyph name="X" format="2">
  <advance width="688"/>
  <unicode hex="0058"/>
  <guideline x="510" y="712" angle="0"/>
  <outline>
    <contour>
      <point x="548" y="-12" type="curve" smooth="yes"/>
      <point x="559" y="-9"/>
      <point x="561" y="-4"/>
      <point x="556" y="13" type="curve" smooth="yes"/>
      <point x="423" y="443" type="line"/>
      <point x="804" y="856" type="line" smooth="yes"/>
      <point x="814" y="868"/>
      <point x="818" y="873"/>
      <point x="808" y="883" type="curve" smooth="yes"/>
      <point x="798" y="893"/>
      <point x="793" y="891"/>
      <point x="784" y="883" type="curve" smooth="yes"/>
      <point x="413" y="478" type="line"/>
      <point x="289" y="874" type="line" smooth="yes"/>
      <point x="284" y="889"/>
      <point x="281" y="894"/>
      <point x="266" y="890" type="curve" smooth="yes"/>
      <point x="253" y="886"/>
      <point x="248" y="881"/>
      <point x="253" y="866" type="curve" smooth="yes"/>
      <point x="381" y="453" type="line"/>
      <point x="-21" y="19" type="line" smooth="yes"/>
      <point x="-31" y="8"/>
      <point x="-35" y="3"/>
      <point x="-25" y="-7" type="curve" smooth="yes"/>
      <point x="-15" y="-17"/>
      <point x="-10" y="-16"/>
      <point x="-1" y="-7" type="curve" smooth="yes"/>
      <point x="393" y="418" type="line"/>
      <point x="521" y="5" type="line" smooth="yes"/>
      <point x="526" y="-10"/>
      <point x="530" y="-17"/>
    </contour>
  </outline>
</glyph>
<glyph name="Z" format="2">
  <advance width="613"/>
  <unicode hex="005A"/>
  <anchor x="238" y="0" name="bottom"/>
  <anchor x="368" y="461" name="center"/>
  <anchor x="459" y="838" name="top"/>
  <outline>
    <contour>
      <point x="-39" y="0" type="curve" smooth="yes"/>
      <point x="490" y="0" type="line" smooth="yes"/>
      <point x="503" y="0"/>
      <point x="508" y="4"/>
      <point x="511" y="18" type="curve" smooth="yes"/>
      <point x="514" y="29"/>
      <point x="514" y="35"/>
      <point x="500" y="35" type="curve" smooth="yes"/>
      <point x="11" y="35" type="line"/>
      <point x="741" y="849" type="line" smooth="yes"/>
      <point x="751" y="859"/>
      <point x="745" y="875"/>
      <point x="735" y="875" type="curve" smooth="yes"/>
      <point x="251" y="875" type="line" smooth="yes"/>
      <point x="239" y="875"/>
      <point x="234" y="871"/>
      <point x="230" y="859" type="curve" smooth="yes"/>
      <point x="226" y="846"/>
      <point x="228" y="840"/>
      <point x="241" y="840" type="curve" smooth="yes"/>
      <point x="685" y="840" type="line"/>
      <point x="-46" y="25" type="line" smooth="yes"/>
      <point x="-55" y="15"/>
      <point x="-49" y="0"/>
    </contour>
  </outline>
</glyph>
<glyph name="asciicircum" format="2">
  <advance width="763"/>
  <unicode hex="005E"/>
  <outline>
    <contour>
      <point x="213" y="501" type="line" smooth="yes"/>
      <point x="203" y="491"/>
      <point x="201" y="483"/>
      <point x="211" y="475" type="curve" smooth="yes"/>
      <point x="221" y="468"/>
      <point x="230" y="469"/>
      <point x="239" y="479" type="curve" smooth="yes"/>
      <point x="578" y="850" type="line"/>
      <point x="676" y="484" type="line" smooth="yes"/>
      <point x="679" y="474"/>
      <point x="685" y="469"/>
      <point x="699" y="474" type="curve" smooth="yes"/>
      <point x="714" y="479"/>
      <point x="715" y="488"/>
      <point x="713" y="498" type="curve" smooth="yes"/>
      <point x="614" y="859" type="line" smooth="yes"/>
      <point x="608" y="880"/>
      <point x="605" y="890"/>
      <point x="588" y="890" type="curve" smooth="yes"/>
      <point x="571" y="890"/>
      <point x="561" y="880"/>
      <point x="541" y="859" type="curve" smooth="yes"/>
    </contour>
  </outline>
</glyph>
<glyph name="f" format="2">
  <advance width="366"/>
  <unicode hex="0066"/>
  <outline>
    <contour>
      <point x="-126" y="-394" type="curve" smooth="yes"/>
      <point x="-61" y="-394"/>
      <point x="-11" y="-359"/>
      <point x="19" y="-265" type="curve" smooth="yes"/>
      <point x="258" y="468" type="line"/>
      <point x="418" y="468" type="line" smooth="yes"/>
      <point x="424" y="468"/>
      <point x="431" y="474"/>
      <point x="434" y="485" type="curve" smooth="yes"/>
      <point x="436" y="496"/>
      <point x="431" y="500"/>
      <point x="425" y="500" type="curve" smooth="yes"/>
      <point x="269" y="500" type="line"/>
      <point x="346" y="739" type="line" smooth="yes"/>
      <point x="375" y="829"/>
      <point x="418" y="860"/>
      <point x="474" y="860" type="curve" smooth="yes"/>
      <point x="516" y="860"/>
      <point x="546" y="838"/>
      <point x="563" y="819" type="curve" smooth="yes"/>
      <point x="569" y="813"/>
      <point x="579" y="811"/>
      <point x="586" y="818" type="curve" smooth="yes"/>
      <point x="596" y="825"/>
      <point x="599" y="831"/>
      <point x="595" y="839" type="curve" smooth="yes"/>
      <point x="578" y="868"/>
      <point x="535" y="894"/>
      <point x="479" y="894" type="curve" smooth="yes"/>
      <point x="405" y="894"/>
      <point x="343" y="859"/>
      <point x="310" y="759" type="curve" smooth="yes"/>
      <point x="226" y="500" type="line"/>
      <point x="124" y="500" type="line" smooth="yes"/>
      <point x="118" y="500"/>
      <point x="111" y="495"/>
      <point x="109" y="484" type="curve" smooth="yes"/>
      <point x="106" y="473"/>
      <point x="111" y="468"/>
      <point x="118" y="468" type="curve" smooth="yes"/>
      <point x="215" y="468" type="line"/>
      <point x="-17" y="-251" type="line" smooth="yes"/>
      <point x="-44" y="-332"/>
      <point x="-75" y="-360"/>
      <point x="-122" y="-360" type="curve" smooth="yes"/>
      <point x="-159" y="-360"/>
      <point x="-175" y="-340"/>
      <point x="-189" y="-317" type="curve" smooth="yes"/>
      <point x="-194" y="-307"/>
      <point x="-201" y="-305"/>
      <point x="-211" y="-311" type="curve" smooth="yes"/>
      <point x="-222" y="-317"/>
      <point x="-226" y="-326"/>
      <point x="-224" y="-334" type="curve" smooth="yes"/>
      <point x="-214" y="-365"/>
      <point x="-177" y="-394"/>
    </contour>
  </outline>
</glyph>
<glyph name="h" format="2">
  <advance width="652"/>
  <unicode hex="0068"/>
  <guideline x="194" y="507" angle="72"/>
  <anchor x="255" y="0" name="bottom"/>
  <anchor x="309" y="698" name="center"/>
  <anchor x="331" y="838" name="top"/>
  <outline>
    <contour>
      <point x="495" y="-17" type="curve" smooth="yes"/>
      <point x="554" y="-17"/>
      <point x="592" y="24"/>
      <point x="617" y="66" type="curve" smooth="yes"/>
      <point x="624" y="75"/>
      <point x="622" y="85"/>
      <point x="611" y="90" type="curve" smooth="yes"/>
      <point x="599" y="96"/>
      <point x="591" y="89"/>
      <point x="587" y="81" type="curve" smooth="yes"/>
      <point x="569" y="49"/>
      <point x="534" y="16"/>
      <point x="499" y="16" type="curve" smooth="yes"/>
      <point x="464" y="16"/>
      <point x="449" y="46"/>
      <point x="471" y="116" type="curve" smooth="yes"/>
      <point x="537" y="321" type="line" smooth="yes"/>
      <point x="581" y="458"/>
      <point x="522" y="519"/>
      <point x="421" y="519" type="curve" smooth="yes"/>
      <point x="364" y="519"/>
      <point x="279" y="500"/>
      <point x="207" y="404" type="curve"/>
      <point x="361" y="874" type="line" smooth="yes"/>
      <point x="365" y="884"/>
      <point x="357" y="890"/>
      <point x="345" y="890" type="curve" smooth="yes"/>
      <point x="330" y="890"/>
      <point x="325" y="886"/>
      <point x="321" y="875" type="curve" smooth="yes"/>
      <point x="36" y="0" type="line" smooth="yes"/>
      <point x="32" y="-10"/>
      <point x="41" y="-15"/>
      <point x="54" y="-15" type="curve" smooth="yes"/>
      <point x="69" y="-15"/>
      <point x="72" y="-11"/>
      <point x="76" y="0" type="curve" smooth="yes"/>
      <point x="179" y="313" type="line"/>
      <point x="244" y="443"/>
      <point x="335" y="484"/>
      <point x="416" y="484" type="curve" smooth="yes"/>
      <point x="509" y="484"/>
      <point x="532" y="424"/>
      <point x="504" y="336" type="curve" smooth="yes"/>
      <point x="435" y="124" type="line" smooth="yes"/>
      <point x="402" y="23"/>
      <point x="435" y="-17"/>
    </contour>
  </outline>
</glyph>
<glyph name="l" format="2">
  <advance width="301"/>
  <unicode hex="006C"/>
  <anchor x="232" y="438" name="CAT"/>
  <anchor x="128" y="0" name="bottom"/>
  <anchor x="195" y="438" name="center"/>
  <anchor x="327" y="838" name="top"/>
  <anchor x="356" y="874" name="topright"/>
  <outline>
    <contour>
      <point x="132" y="-17" type="curve" smooth="yes"/>
      <point x="191" y="-17"/>
      <point x="230" y="24"/>
      <point x="255" y="66" type="curve" smooth="yes"/>
      <point x="261" y="75"/>
      <point x="260" y="85"/>
      <point x="248" y="90" type="curve" smooth="yes"/>
      <point x="236" y="96"/>
      <point x="228" y="89"/>
      <point x="225" y="81" type="curve" smooth="yes"/>
      <point x="206" y="49"/>
      <point x="171" y="16"/>
      <point x="136" y="16" type="curve" smooth="yes"/>
      <point x="101" y="16"/>
      <point x="86" y="46"/>
      <point x="108" y="116" type="curve" smooth="yes"/>
      <point x="356" y="874" type="line" smooth="yes"/>
      <point x="360" y="884"/>
      <point x="352" y="890"/>
      <point x="340" y="890" type="curve" smooth="yes"/>
      <point x="325" y="890"/>
      <point x="320" y="886"/>
      <point x="316" y="875" type="curve" smooth="yes"/>
      <point x="71" y="124" type="line" smooth="yes"/>
      <point x="38" y="23"/>
      <point x="72" y="-17"/>
    </contour>
  </outline>
</glyph>
<glyph name="o" format="2">
  <advance width="589"/>
  <unicode hex="006F"/>
  <anchor x="214" y="0" name="bottom"/>
  <anchor x="295" y="250" name="center"/>
  <anchor x="326" y="0" name="ogonek"/>
  <anchor x="330" y="500" name="top"/>
  <anchor x="435" y="506" name="topright"/>
  <outline>
    <contour>
      <point x="226" y="-19" type="curve" smooth="yes"/>
      <point x="434" y="-19"/>
      <point x="529" y="204"/>
      <point x="529" y="343" type="curve" smooth="yes"/>
      <point x="529" y="449"/>
      <point x="470" y="519"/>
      <point x="369" y="519" type="curve" smooth="yes"/>
      <point x="165" y="519"/>
      <point x="63" y="314"/>
      <point x="63" y="164" type="curve" smooth="yes"/>
      <point x="63" y="55"/>
      <point x="120" y="-19"/>
    </contour>
    <contour>
      <point x="230" y="16" type="curve" smooth="yes"/>
      <point x="148" y="16"/>
      <point x="103" y="75"/>
      <point x="103" y="164" type="curve" smooth="yes"/>
      <point x="103" y="293"/>
      <point x="195" y="484"/>
      <point x="361" y="484" type="curve" smooth="yes"/>
      <point x="445" y="484"/>
      <point x="488" y="426"/>
      <point x="488" y="341" type="curve" smooth="yes"/>
      <point x="488" y="213"/>
      <point x="403" y="16"/>
    </contour>
  </outline>
</glyph>
<glyph name="q" format="2">
  <advance width="598"/>
  <unicode hex="0071"/>
  <outline>
    <contour>
      <point x="200" y="-17" type="curve" smooth="yes"/>
      <point x="246" y="-17"/>
      <point x="321" y="1"/>
      <point x="390" y="85" type="curve"/>
      <point x="240" y="-375" type="line" smooth="yes"/>
      <point x="236" y="-385"/>
      <point x="245" y="-390"/>
      <point x="258" y="-390" type="curve" smooth="yes"/>
      <point x="273" y="-390"/>
      <point x="276" y="-386"/>
      <point x="280" y="-375" type="curve" smooth="yes"/>
      <point x="563" y="494" type="line" smooth="yes"/>
      <point x="566" y="505"/>
      <point x="564" y="515"/>
      <point x="548" y="515" type="curve" smooth="yes"/>
      <point x="534" y="515"/>
      <point x="529" y="511"/>
      <point x="525" y="500" type="curve" smooth="yes"/>
      <point x="516" y="474" type="line"/>
      <point x="478" y="503"/>
      <point x="425" y="519"/>
      <point x="381" y="519" type="curve" smooth="yes"/>
      <point x="155" y="519"/>
      <point x="63" y="296"/>
      <point x="63" y="151" type="curve" smooth="yes"/>
      <point x="63" y="48"/>
      <point x="113" y="-17"/>
    </contour>
    <contour>
      <point x="105" y="153" type="curve" smooth="yes"/>
      <point x="105" y="289"/>
      <point x="188" y="485"/>
      <point x="375" y="485" type="curve" smooth="yes"/>
      <point x="413" y="485"/>
      <point x="454" y="476"/>
      <point x="506" y="441" type="curve"/>
      <point x="421" y="183" type="line"/>
      <point x="353" y="60"/>
      <point x="275" y="18"/>
      <point x="208" y="18" type="curve" smooth="yes"/>
      <point x="136" y="18"/>
      <point x="105" y="71"/>
    </contour>
  </outline>
</glyph>
<glyph name="t" format="2">
  <advance width="388"/>
  <unicode hex="0074"/>
  <anchor x="155" y="0" name="bottom"/>
  <anchor x="200" y="294" name="center"/>
  <anchor x="306" y="698" name="top"/>
  <anchor x="354" y="781" name="topright"/>
  <outline>
    <contour>
      <point x="170" y="-17" type="curve" smooth="yes"/>
      <point x="239" y="-17"/>
      <point x="283" y="24"/>
      <point x="306" y="70" type="curve" smooth="yes"/>
      <point x="311" y="79"/>
      <point x="310" y="89"/>
      <point x="299" y="94" type="curve" smooth="yes"/>
      <point x="286" y="100"/>
      <point x="279" y="93"/>
      <point x="275" y="85" type="curve" smooth="yes"/>
      <point x="259" y="49"/>
      <point x="219" y="16"/>
      <point x="174" y="16" type="curve" smooth="yes"/>
      <point x="136" y="16"/>
      <point x="111" y="45"/>
      <point x="139" y="128" type="curve" smooth="yes"/>
      <point x="250" y="468" type="line"/>
      <point x="380" y="468" type="line" smooth="yes"/>
      <point x="393" y="468"/>
      <point x="398" y="471"/>
      <point x="401" y="484" type="curve" smooth="yes"/>
      <point x="405" y="494"/>
      <point x="404" y="500"/>
      <point x="390" y="500" type="curve" smooth="yes"/>
      <point x="260" y="500" type="line"/>
      <point x="330" y="714" type="line" smooth="yes"/>
      <point x="334" y="724"/>
      <point x="326" y="730"/>
      <point x="314" y="730" type="curve" smooth="yes"/>
      <point x="299" y="730"/>
      <point x="294" y="726"/>
      <point x="290" y="715" type="curve" smooth="yes"/>
      <point x="220" y="500" type="line"/>
      <point x="138" y="500" type="line" smooth="yes"/>
      <point x="125" y="500"/>
      <point x="120" y="496"/>
      <point x="116" y="485" type="curve" smooth="yes"/>
      <point x="113" y="474"/>
      <point x="114" y="468"/>
      <point x="128" y="468" type="curve" smooth="yes"/>
      <point x="210" y="468" type="line"/>
      <point x="101" y="135" type="line" smooth="yes"/>
      <point x="64" y="21"/>
      <point x="108" y="-17"/>
    </contour>
  </outline>
</glyph>
<glyph name="w" format="2">
  <advance width="803"/>
  <unicode hex="0077"/>
  <anchor x="320" y="0" name="bottom"/>
  <anchor x="469" y="500" name="top"/>
  <outline>
    <contour>
      <point x="118" y="-15" type="curve" smooth="yes"/>
      <point x="130" y="-15"/>
      <point x="139" y="-9"/>
      <point x="145" y="1" type="curve" smooth="yes"/>
      <point x="459" y="456" type="line"/>
      <point x="479" y="4" type="line" smooth="yes"/>
      <point x="479" y="-6"/>
      <point x="482" y="-15"/>
      <point x="494" y="-15" type="curve" smooth="yes"/>
      <point x="505" y="-15"/>
      <point x="510" y="-9"/>
      <point x="517" y="1" type="curve" smooth="yes"/>
      <point x="830" y="491" type="line" smooth="yes"/>
      <point x="837" y="500"/>
      <point x="835" y="509"/>
      <point x="822" y="514" type="curve" smooth="yes"/>
      <point x="809" y="519"/>
      <point x="803" y="510"/>
      <point x="797" y="500" type="curve" smooth="yes"/>
      <point x="510" y="45" type="line"/>
      <point x="492" y="496" type="line" smooth="yes"/>
      <point x="492" y="506"/>
      <point x="488" y="515"/>
      <point x="474" y="515" type="curve" smooth="yes"/>
      <point x="462" y="515"/>
      <point x="458" y="511"/>
      <point x="449" y="499" type="curve" smooth="yes"/>
      <point x="135" y="44" type="line"/>
      <point x="142" y="500" type="line" smooth="yes"/>
      <point x="142" y="510"/>
      <point x="137" y="515"/>
      <point x="124" y="515" type="curve" smooth="yes"/>
      <point x="109" y="515"/>
      <point x="105" y="506"/>
      <point x="105" y="495" type="curve" smooth="yes"/>
      <point x="102" y="5" type="line" smooth="yes"/>
      <point x="102" y="-5"/>
      <point x="105" y="-15"/>
    </contour>
  </outline>
</glyph>
<glyph name="y" format="2">
  <advance width="615"/>
  <unicode hex="0079"/>
  <anchor x="536" y="0" name="bottom"/>
  <anchor x="371" y="500" name="top"/>
  <outline>
    <contour>
      <point x="200" y="-17" type="curve" smooth="yes"/>
      <point x="255" y="-17"/>
      <point x="341" y="1"/>
      <point x="413" y="98" type="curve"/>
      <point x="330" y="-156" type="line" smooth="yes"/>
      <point x="285" y="-295"/>
      <point x="234" y="-359"/>
      <point x="130" y="-359" type="curve" smooth="yes"/>
      <point x="61" y="-359"/>
      <point x="23" y="-337"/>
      <point x="-2" y="-264" type="curve" smooth="yes"/>
      <point x="-5" y="-255"/>
      <point x="-11" y="-251"/>
      <point x="-24" y="-256" type="curve" smooth="yes"/>
      <point x="-37" y="-261"/>
      <point x="-40" y="-269"/>
      <point x="-37" y="-279" type="curve" smooth="yes"/>
      <point x="-12" y="-355"/>
      <point x="38" y="-394"/>
      <point x="126" y="-394" type="curve" smooth="yes"/>
      <point x="256" y="-394"/>
      <point x="315" y="-319"/>
      <point x="368" y="-159" type="curve" smooth="yes"/>
      <point x="580" y="494" type="line" smooth="yes"/>
      <point x="584" y="505"/>
      <point x="581" y="515"/>
      <point x="565" y="515" type="curve" smooth="yes"/>
      <point x="551" y="515"/>
      <point x="546" y="511"/>
      <point x="543" y="500" type="curve" smooth="yes"/>
      <point x="441" y="188" type="line"/>
      <point x="375" y="59"/>
      <point x="284" y="18"/>
      <point x="205" y="18" type="curve" smooth="yes"/>
      <point x="118" y="18"/>
      <point x="94" y="78"/>
      <point x="123" y="165" type="curve" smooth="yes"/>
      <point x="233" y="499" type="line" smooth="yes"/>
      <point x="236" y="509"/>
      <point x="229" y="515"/>
      <point x="216" y="515" type="curve" smooth="yes"/>
      <point x="201" y="515"/>
      <point x="196" y="511"/>
      <point x="193" y="500" type="curve" smooth="yes"/>
      <point x="88" y="180" type="line" smooth="yes"/>
      <point x="43" y="44"/>
      <point x="104" y="-17"/>
    </contour>
  </outline>
</glyph>
<glyph name="cent" format="2">
  <advance width="530"/>
  <unicode hex="00A2"/>
  <outline>
    <contour>
      <point x="231" y="-19" type="curve" smooth="yes"/>
      <point x="294" y="-19"/>
      <point x="369" y="9"/>
      <point x="431" y="71" type="curve" smooth="yes"/>
      <point x="439" y="79"/>
      <point x="436" y="88"/>
      <point x="430" y="93" type="curve" smooth="yes"/>
      <point x="425" y="98"/>
      <point x="418" y="100"/>
      <point x="409" y="93" type="curve" smooth="yes"/>
      <point x="344" y="36"/>
      <point x="296" y="15"/>
      <point x="236" y="15" type="curve" smooth="yes"/>
      <point x="143" y="15"/>
      <point x="106" y="84"/>
      <point x="106" y="174" type="curve" smooth="yes"/>
      <point x="106" y="338"/>
      <point x="213" y="485"/>
      <point x="364" y="485" type="curve" smooth="yes"/>
      <point x="430" y="485"/>
      <point x="463" y="464"/>
      <point x="489" y="431" type="curve" smooth="yes"/>
      <point x="493" y="426"/>
      <point x="498" y="416"/>
      <point x="511" y="426" type="curve" smooth="yes"/>
      <point x="523" y="435"/>
      <point x="523" y="440"/>
      <point x="520" y="446" type="curve" smooth="yes"/>
      <point x="500" y="485"/>
      <point x="441" y="519"/>
      <point x="369" y="519" type="curve" smooth="yes"/>
      <point x="198" y="519"/>
      <point x="68" y="368"/>
      <point x="68" y="174" type="curve" smooth="yes"/>
      <point x="68" y="56"/>
      <point x="125" y="-19"/>
    </contour>
    <contour>
      <point x="169" y="-126" type="curve" smooth="yes"/>
      <point x="183" y="-126"/>
      <point x="189" y="-122"/>
      <point x="193" y="-111" type="curve" smooth="yes"/>
      <point x="431" y="625" type="line" smooth="yes"/>
      <point x="435" y="636"/>
      <point x="430" y="640"/>
      <point x="418" y="640" type="curve" smooth="yes"/>
      <point x="404" y="640"/>
      <point x="398" y="636"/>
      <point x="394" y="625" type="curve" smooth="yes"/>
      <point x="155" y="-111" type="line" smooth="yes"/>
      <point x="151" y="-122"/>
      <point x="155" y="-126"/>
    </contour>
  </outline>
</glyph>
<glyph name="ordfeminine" format="2">
  <advance width="479"/>
  <unicode hex="00AA"/>
  <outline>
    <contour>
      <point x="296" y="486" type="curve" smooth="yes"/>
      <point x="345" y="486"/>
      <point x="400" y="513"/>
      <point x="444" y="569" type="curve"/>
      <point x="443" y="564"/>
      <point x="443" y="559"/>
      <point x="443" y="556" type="curve" smooth="yes"/>
      <point x="440" y="511"/>
      <point x="460" y="486"/>
      <point x="504" y="486" type="curve" smooth="yes"/>
      <point x="544" y="486"/>
      <point x="573" y="509"/>
      <point x="598" y="551" type="curve" smooth="yes"/>
      <point x="604" y="561"/>
      <point x="600" y="568"/>
      <point x="593" y="571" type="curve" smooth="yes"/>
      <point x="580" y="578"/>
      <point x="574" y="571"/>
      <point x="570" y="565" type="curve" smooth="yes"/>
      <point x="551" y="534"/>
      <point x="531" y="518"/>
      <point x="508" y="518" type="curve" smooth="yes"/>
      <point x="480" y="518"/>
      <point x="469" y="544"/>
      <point x="484" y="589" type="curve" smooth="yes"/>
      <point x="579" y="878" type="line" smooth="yes"/>
      <point x="583" y="889"/>
      <point x="579" y="896"/>
      <point x="564" y="896" type="curve" smooth="yes"/>
      <point x="550" y="896"/>
      <point x="548" y="893"/>
      <point x="544" y="883" type="curve" smooth="yes"/>
      <point x="538" y="865" type="line"/>
      <point x="509" y="886"/>
      <point x="470" y="900"/>
      <point x="435" y="900" type="curve" smooth="yes"/>
      <point x="265" y="900"/>
      <point x="188" y="735"/>
      <point x="188" y="616" type="curve" smooth="yes"/>
      <point x="188" y="536"/>
      <point x="228" y="486"/>
    </contour>
    <contour>
      <point x="226" y="619" type="curve" smooth="yes"/>
      <point x="226" y="720"/>
      <point x="288" y="868"/>
      <point x="431" y="868" type="curve" smooth="yes"/>
      <point x="460" y="868"/>
      <point x="490" y="861"/>
      <point x="529" y="836" type="curve"/>
      <point x="466" y="646" type="line"/>
      <point x="415" y="554"/>
      <point x="356" y="519"/>
      <point x="305" y="519" type="curve" smooth="yes"/>
      <point x="250" y="519"/>
      <point x="226" y="559"/>
    </contour>
  </outline>
</glyph>
<glyph name="degree" format="2">
  <advance width="408"/>
  <unicode hex="00B0"/>
  <outline>
    <contour>
      <point x="365" y="626" type="curve" smooth="yes"/>
      <point x="441" y="626"/>
      <point x="495" y="680"/>
      <point x="495" y="759" type="curve" smooth="yes"/>
      <point x="495" y="836"/>
      <point x="441" y="890"/>
      <point x="365" y="890" type="curve" smooth="yes"/>
      <point x="289" y="890"/>
      <point x="235" y="836"/>
      <point x="235" y="759" type="curve" smooth="yes"/>
      <point x="235" y="680"/>
      <point x="289" y="626"/>
    </contour>
    <contour>
      <point x="365" y="664" type="curve" smooth="yes"/>
      <point x="314" y="664"/>
      <point x="275" y="701"/>
      <point x="275" y="759" type="curve" smooth="yes"/>
      <point x="275" y="815"/>
      <point x="314" y="853"/>
      <point x="365" y="853" type="curve" smooth="yes"/>
      <point x="416" y="853"/>
      <point x="455" y="815"/>
      <point x="455" y="759" type="curve" smooth="yes"/>
      <point x="455" y="701"/>
      <point x="416" y="664"/>
    </contour>
  </outline>
</glyph>
<glyph name="ordmasculine" format="2">
  <advance width="454"/>
  <unicode hex="00BA"/>
  <outline>
    <contour>
      <point x="320" y="485" type="curve" smooth="yes"/>
      <point x="479" y="485"/>
      <point x="553" y="656"/>
      <point x="553" y="763" type="curve" smooth="yes"/>
      <point x="553" y="845"/>
      <point x="505" y="900"/>
      <point x="425" y="900" type="curve" smooth="yes"/>
      <point x="269" y="900"/>
      <point x="190" y="741"/>
      <point x="190" y="628" type="curve" smooth="yes"/>
      <point x="190" y="544"/>
      <point x="235" y="485"/>
    </contour>
    <contour>
      <point x="324" y="519" type="curve" smooth="yes"/>
      <point x="261" y="519"/>
      <point x="228" y="563"/>
      <point x="228" y="629" type="curve" smooth="yes"/>
      <point x="228" y="723"/>
      <point x="295" y="866"/>
      <point x="419" y="866" type="curve" smooth="yes"/>
      <point x="481" y="866"/>
      <point x="514" y="825"/>
      <point x="514" y="760" type="curve" smooth="yes"/>
      <point x="514" y="666"/>
      <point x="451" y="519"/>
    </contour>
  </outline>
</glyph>
<glyph name="multiply" format="2">
  <advance width="763"/>
  <unicode hex="00D7"/>
  <outline>
    <contour>
      <point x="568" y="239" type="curve" smooth="yes"/>
      <point x="579" y="249"/>
      <point x="579" y="254"/>
      <point x="574" y="261" type="curve" smooth="yes"/>
      <point x="457" y="435" type="line"/>
      <point x="689" y="610" type="line" smooth="yes"/>
      <point x="700" y="619"/>
      <point x="701" y="626"/>
      <point x="694" y="636" type="curve" smooth="yes"/>
      <point x="688" y="644"/>
      <point x="681" y="649"/>
      <point x="669" y="639" type="curve" smooth="yes"/>
      <point x="437" y="464" type="line"/>
      <point x="322" y="634" type="line" smooth="yes"/>
      <point x="316" y="643"/>
      <point x="309" y="645"/>
      <point x="296" y="636" type="curve" smooth="yes"/>
      <point x="286" y="629"/>
      <point x="286" y="620"/>
      <point x="290" y="614" type="curve" smooth="yes"/>
      <point x="407" y="441" type="line"/>
      <point x="173" y="263" type="line" smooth="yes"/>
      <point x="163" y="255"/>
      <point x="160" y="249"/>
      <point x="168" y="239" type="curve" smooth="yes"/>
      <point x="174" y="230"/>
      <point x="181" y="228"/>
      <point x="190" y="234" type="curve" smooth="yes"/>
      <point x="427" y="412" type="line"/>
      <point x="543" y="240" type="line" smooth="yes"/>
      <point x="548" y="233"/>
      <point x="556" y="230"/>
    </contour>
  </outline>
</glyph>
<glyph name="germandbls" format="2">
  <advance width="700"/>
  <unicode hex="00DF"/>
  <outline>
    <contour>
      <point x="-55" y="-390" type="curve" smooth="yes"/>
      <point x="-41" y="-390"/>
      <point x="-35" y="-385"/>
      <point x="-31" y="-375" type="curve" smooth="yes"/>
      <point x="305" y="655" type="line" smooth="yes"/>
      <point x="343" y="769"/>
      <point x="395" y="860"/>
      <point x="516" y="860" type="curve" smooth="yes"/>
      <point x="609" y="860"/>
      <point x="656" y="816"/>
      <point x="656" y="728" type="curve" smooth="yes"/>
      <point x="656" y="623"/>
      <point x="559" y="500"/>
      <point x="390" y="500" type="curve" smooth="yes"/>
      <point x="376" y="500" type="line" smooth="yes"/>
      <point x="370" y="500"/>
      <point x="365" y="496"/>
      <point x="360" y="484" type="curve" smooth="yes"/>
      <point x="356" y="471"/>
      <point x="360" y="468"/>
      <point x="366" y="468" type="curve" smooth="yes"/>
      <point x="373" y="468" type="line" smooth="yes"/>
      <point x="500" y="468"/>
      <point x="560" y="413"/>
      <point x="560" y="305" type="curve" smooth="yes"/>
      <point x="560" y="153"/>
      <point x="446" y="15"/>
      <point x="301" y="15" type="curve" smooth="yes"/>
      <point x="244" y="15"/>
      <point x="208" y="31"/>
      <point x="175" y="49" type="curve" smooth="yes"/>
      <point x="164" y="55"/>
      <point x="158" y="51"/>
      <point x="151" y="40" type="curve" smooth="yes"/>
      <point x="146" y="30"/>
      <point x="146" y="23"/>
      <point x="158" y="16" type="curve" smooth="yes"/>
      <point x="193" y="-2"/>
      <point x="236" y="-19"/>
      <point x="299" y="-19" type="curve" smooth="yes"/>
      <point x="468" y="-19"/>
      <point x="596" y="134"/>
      <point x="596" y="303" type="curve" smooth="yes"/>
      <point x="596" y="398"/>
      <point x="551" y="459"/>
      <point x="469" y="480" type="curve"/>
      <point x="604" y="510"/>
      <point x="693" y="624"/>
      <point x="693" y="729" type="curve" smooth="yes"/>
      <point x="693" y="833"/>
      <point x="631" y="894"/>
      <point x="521" y="894" type="curve" smooth="yes"/>
      <point x="385" y="894"/>
      <point x="314" y="794"/>
      <point x="271" y="663" type="curve" smooth="yes"/>
      <point x="-67" y="-375" type="line" smooth="yes"/>
      <point x="-71" y="-385"/>
      <point x="-67" y="-390"/>
    </contour>
  </outline>
</glyph>
<glyph name="thorn" format="2">
  <advance width="599"/>
  <unicode hex="00FE"/>
  <outline>
    <contour>
      <point x="-69" y="-390" type="curve" smooth="yes"/>
      <point x="-55" y="-390"/>
      <point x="-50" y="-386"/>
      <point x="-46" y="-375" type="curve" smooth="yes"/>
      <point x="85" y="30" type="line"/>
      <point x="126" y="0"/>
      <point x="177" y="-17"/>
      <point x="220" y="-17" type="curve" smooth="yes"/>
      <point x="444" y="-17"/>
      <point x="540" y="205"/>
      <point x="540" y="350" type="curve" smooth="yes"/>
      <point x="540" y="454"/>
      <point x="489" y="519"/>
      <point x="401" y="519" type="curve" smooth="yes"/>
      <point x="355" y="519"/>
      <point x="280" y="500"/>
      <point x="211" y="416" type="curve"/>
      <point x="360" y="875" type="line" smooth="yes"/>
      <point x="364" y="885"/>
      <point x="355" y="890"/>
      <point x="342" y="890" type="curve" smooth="yes"/>
      <point x="327" y="890"/>
      <point x="324" y="886"/>
      <point x="320" y="875" type="curve" smooth="yes"/>
      <point x="-84" y="-369" type="line" smooth="yes"/>
      <point x="-88" y="-380"/>
      <point x="-85" y="-390"/>
    </contour>
    <contour>
      <point x="96" y="61" type="curve"/>
      <point x="180" y="319" type="line"/>
      <point x="249" y="443"/>
      <point x="326" y="484"/>
      <point x="394" y="484" type="curve" smooth="yes"/>
      <point x="465" y="484"/>
      <point x="497" y="430"/>
      <point x="497" y="349" type="curve" smooth="yes"/>
      <point x="497" y="213"/>
      <point x="414" y="16"/>
      <point x="226" y="16" type="curve" smooth="yes"/>
      <point x="190" y="16"/>
      <point x="149" y="26"/>
    </contour>
  </outline>
</glyph>
<glyph name="idotless" format="2">
  <advance width="300"/>
  <unicode hex="0131"/>
  <anchor x="125" y="0" name="bottom"/>
  <anchor x="179" y="0" name="ogonek"/>
  <anchor x="214" y="500" name="top"/>
  <outline>
    <contour>
      <point x="133" y="-17" type="curve" smooth="yes"/>
      <point x="190" y="-17"/>
      <point x="229" y="24"/>
      <point x="254" y="66" type="curve" smooth="yes"/>
      <point x="260" y="75"/>
      <point x="259" y="85"/>
      <point x="248" y="90" type="curve" smooth="yes"/>
      <point x="235" y="96"/>
      <point x="228" y="89"/>
      <point x="224" y="81" type="curve" smooth="yes"/>
      <point x="205" y="49"/>
      <point x="170" y="16"/>
      <point x="136" y="16" type="curve" smooth="yes"/>
      <point x="101" y="16"/>
      <point x="86" y="46"/>
      <point x="109" y="116" type="curve" smooth="yes"/>
      <point x="234" y="499" type="line"/>
      <point x="238" y="509"/>
      <point x="230" y="515"/>
      <point x="218" y="515" type="curve" smooth="yes"/>
      <point x="203" y="515"/>
      <point x="198" y="511"/>
      <point x="194" y="500" type="curve"/>
      <point x="71" y="124" type="line" smooth="yes"/>
      <point x="39" y="23"/>
      <point x="73" y="-17"/>
    </contour>
  </outline>
</glyph>
<glyph name="OE" format="2">
  <advance width="1279"/>
  <unicode hex="0152"/>
  <anchor x="862" y="838" name="top"/>
  <outline>
    <contour>
      <point x="387" y="-19" type="curve" smooth="yes"/>
      <point x="699" y="-19"/>
      <point x="884" y="341"/>
      <point x="884" y="599" type="curve" smooth="yes"/>
      <point x="884" y="780"/>
      <point x="781" y="890"/>
      <point x="615" y="890" type="curve" smooth="yes"/>
      <point x="316" y="890"/>
      <point x="130" y="541"/>
      <point x="130" y="281" type="curve" smooth="yes"/>
      <point x="130" y="84"/>
      <point x="227" y="-19"/>
    </contour>
    <contour>
      <point x="390" y="19" type="curve" smooth="yes"/>
      <point x="252" y="19"/>
      <point x="171" y="108"/>
      <point x="171" y="281" type="curve" smooth="yes"/>
      <point x="171" y="525"/>
      <point x="345" y="853"/>
      <point x="612" y="853" type="curve" smooth="yes"/>
      <point x="757" y="853"/>
      <point x="850" y="764"/>
      <point x="850" y="599" type="curve" smooth="yes"/>
      <point x="850" y="359"/>
      <point x="677" y="19"/>
    </contour>
    <contour>
      <point x="707" y="0" type="curve" smooth="yes"/>
      <point x="1134" y="0" type="line" smooth="yes"/>
      <point x="1146" y="0"/>
      <point x="1151" y="4"/>
      <point x="1155" y="18" type="curve" smooth="yes"/>
      <point x="1157" y="29"/>
      <point x="1157" y="35"/>
      <point x="1144" y="35" type="curve" smooth="yes"/>
      <point x="737" y="35" type="line"/>
      <point x="869" y="445" type="line"/>
      <point x="1215" y="445" type="line" smooth="yes"/>
      <point x="1227" y="445"/>
      <point x="1232" y="449"/>
      <point x="1236" y="463" type="curve" smooth="yes"/>
      <point x="1239" y="474"/>
      <point x="1239" y="480"/>
      <point x="1225" y="480" type="curve" smooth="yes"/>
      <point x="880" y="480" type="line"/>
      <point x="996" y="840" type="line"/>
      <point x="1406" y="840" type="line" smooth="yes"/>
      <point x="1419" y="840"/>
      <point x="1424" y="844"/>
      <point x="1427" y="858" type="curve" smooth="yes"/>
      <point x="1430" y="869"/>
      <point x="1430" y="875"/>
      <point x="1416" y="875" type="curve" smooth="yes"/>
      <point x="989" y="875" type="line" smooth="yes"/>
      <point x="972" y="875"/>
      <point x="969" y="871"/>
      <point x="965" y="860" type="curve" smooth="yes"/>
      <point x="692" y="15" type="line" smooth="yes"/>
      <point x="689" y="4"/>
      <point x="695" y="0"/>
    </contour>
  </outline>
</glyph>
<glyph name="oe" format="2">
  <advance width="901"/>
  <unicode hex="0153"/>
  <anchor x="525" y="500" name="top"/>
  <outline>
    <contour>
      <point x="219" y="-19" type="curve" smooth="yes"/>
      <point x="413" y="-19"/>
      <point x="510" y="204"/>
      <point x="510" y="343" type="curve" smooth="yes"/>
      <point x="510" y="446"/>
      <point x="446" y="519"/>
      <point x="361" y="519" type="curve" smooth="yes"/>
      <point x="163" y="519"/>
      <point x="63" y="314"/>
      <point x="63" y="164" type="curve" smooth="yes"/>
      <point x="63" y="55"/>
      <point x="118" y="-19"/>
    </contour>
    <contour>
      <point x="223" y="16" type="curve" smooth="yes"/>
      <point x="145" y="16"/>
      <point x="103" y="75"/>
      <point x="103" y="164" type="curve" smooth="yes"/>
      <point x="103" y="293"/>
      <point x="193" y="484"/>
      <point x="354" y="484" type="curve" smooth="yes"/>
      <point x="434" y="484"/>
      <point x="474" y="426"/>
      <point x="474" y="341" type="curve" smooth="yes"/>
      <point x="474" y="213"/>
      <point x="391" y="16"/>
    </contour>
    <contour>
      <point x="619" y="-19" type="curve" smooth="yes"/>
      <point x="705" y="-19"/>
      <point x="771" y="34"/>
      <point x="808" y="69" type="curve" smooth="yes"/>
      <point x="816" y="78"/>
      <point x="811" y="88"/>
      <point x="806" y="93" type="curve" smooth="yes"/>
      <point x="800" y="98"/>
      <point x="794" y="100"/>
      <point x="785" y="93" type="curve" smooth="yes"/>
      <point x="749" y="61"/>
      <point x="700" y="15"/>
      <point x="620" y="15" type="curve" smooth="yes"/>
      <point x="551" y="15"/>
      <point x="495" y="59"/>
      <point x="495" y="171" type="curve" smooth="yes"/>
      <point x="495" y="335"/>
      <point x="598" y="485"/>
      <point x="753" y="485" type="curve" smooth="yes"/>
      <point x="811" y="485"/>
      <point x="846" y="460"/>
      <point x="846" y="411" type="curve" smooth="yes"/>
      <point x="846" y="289"/>
      <point x="664" y="245"/>
      <point x="496" y="243" type="curve"/>
      <point x="485" y="209" type="line"/>
      <point x="669" y="211"/>
      <point x="888" y="251"/>
      <point x="888" y="418" type="curve" smooth="yes"/>
      <point x="888" y="471"/>
      <point x="851" y="519"/>
      <point x="758" y="519" type="curve" smooth="yes"/>
      <point x="591" y="519"/>
      <point x="461" y="366"/>
      <point x="461" y="173" type="curve" smooth="yes"/>
      <point x="461" y="70"/>
      <point x="505" y="-19"/>
    </contour>
  </outline>
</glyph>
<glyph name="Ohorn" format="2">
  <advance width="926"/>
  <unicode hex="01A0"/>
  <anchor x="381" y="0" name="bottom"/>
  <anchor x="524" y="438" name="center"/>
  <anchor x="755" y="13" name="ogonek"/>
  <anchor x="630" y="838" name="top"/>
  <outline>
    <contour>
      <point x="415" y="-19" type="curve" smooth="yes"/>
      <point x="736" y="-19"/>
      <point x="919" y="341"/>
      <point x="919" y="599" type="curve" smooth="yes"/>
      <point x="919" y="716"/>
      <point x="874" y="803"/>
      <point x="796" y="850" type="curve"/>
      <point x="941" y="865"/>
      <point x="967" y="963"/>
      <point x="927" y="1061" type="curve" smooth="yes"/>
      <point x="919" y="1081"/>
      <point x="881" y="1069"/>
      <point x="888" y="1047" type="curve" smooth="yes"/>
      <point x="918" y="955"/>
      <point x="902" y="876"/>
      <point x="743" y="875" type="curve"/>
      <point x="711" y="885"/>
      <point x="676" y="890"/>
      <point x="638" y="890" type="curve" smooth="yes"/>
      <point x="320" y="890"/>
      <point x="133" y="554"/>
      <point x="133" y="293" type="curve" smooth="yes"/>
      <point x="133" y="94"/>
      <point x="243" y="-19"/>
    </contour>
    <contour>
      <point x="418" y="19" type="curve" smooth="yes"/>
      <point x="268" y="19"/>
      <point x="174" y="118"/>
      <point x="174" y="293" type="curve" smooth="yes"/>
      <point x="174" y="538"/>
      <point x="349" y="853"/>
      <point x="635" y="853" type="curve" smooth="yes"/>
      <point x="784" y="853"/>
      <point x="878" y="764"/>
      <point x="878" y="599" type="curve" smooth="yes"/>
      <point x="878" y="359"/>
      <point x="705" y="19"/>
    </contour>
  </outline>
</glyph>
<glyph name="Uhorn" format="2">
  <advance width="863"/>
  <unicode hex="01AF"/>
  <anchor x="350" y="0" name="bottom"/>
  <anchor x="515" y="13" name="ogonek"/>
  <anchor x="601" y="838" name="top"/>
  <anchor x="913" y="888" name="topright"/>
  <outline>
    <contour>
      <point x="1067" y="1061" type="curve" smooth="yes"/>
      <point x="1059" y="1081"/>
      <point x="1021" y="1069"/>
      <point x="1028" y="1047" type="curve" smooth="yes"/>
      <point x="1056" y="962"/>
      <point x="1041" y="893"/>
      <point x="913" y="888" type="curve"/>
      <point x="905" y="861" type="line"/>
      <point x="1060" y="851"/>
      <point x="1110" y="954"/>
    </contour>
    <component base="U"/>
  </outline>
</glyph>
<glyph name="jdotless" format="2">
  <advance width="268"/>
  <unicode hex="0237"/>
  <anchor x="211" y="500" name="top"/>
  <outline>
    <contour>
      <point x="-147" y="-392" type="curve" smooth="yes"/>
      <point x="-80" y="-392"/>
      <point x="-46" y="-359"/>
      <point x="-14" y="-261" type="curve" smooth="yes"/>
      <point x="235" y="499" type="line" smooth="yes"/>
      <point x="239" y="510"/>
      <point x="230" y="515"/>
      <point x="218" y="515" type="curve" smooth="yes"/>
      <point x="205" y="515"/>
      <point x="199" y="511"/>
      <point x="195" y="500" type="curve" smooth="yes"/>
      <point x="-51" y="-257" type="line" smooth="yes"/>
      <point x="-77" y="-336"/>
      <point x="-97" y="-357"/>
      <point x="-144" y="-357" type="curve" smooth="yes"/>
      <point x="-175" y="-357"/>
      <point x="-197" y="-340"/>
      <point x="-212" y="-304" type="curve" smooth="yes"/>
      <point x="-217" y="-294"/>
      <point x="-225" y="-291"/>
      <point x="-236" y="-297" type="curve" smooth="yes"/>
      <point x="-247" y="-304"/>
      <point x="-250" y="-311"/>
      <point x="-246" y="-321" type="curve" smooth="yes"/>
      <point x="-229" y="-366"/>
      <point x="-191" y="-392"/>
    </contour>
  </outline>
</glyph>
<glyph name="brevecomb" format="2">
  <unicode hex="0306"/>
  <anchor x="81" y="500" name="_top"/>
  <anchor x="184" y="818" name="top"/>
  <outline>
    <contour>
      <point x="136" y="630" type="curve" smooth="yes"/>
      <point x="229" y="630"/>
      <point x="310" y="699"/>
      <point x="338" y="820" type="curve" smooth="yes"/>
      <point x="340" y="831"/>
      <point x="335" y="836"/>
      <point x="323" y="836" type="curve" smooth="yes"/>
      <point x="310" y="836"/>
      <point x="304" y="831"/>
      <point x="301" y="820" type="curve" smooth="yes"/>
      <point x="279" y="723"/>
      <point x="216" y="670"/>
      <point x="136" y="670" type="curve" smooth="yes"/>
      <point x="66" y="670"/>
      <point x="39" y="723"/>
      <point x="55" y="820" type="curve" smooth="yes"/>
      <point x="58" y="831"/>
      <point x="54" y="836"/>
      <point x="41" y="836" type="curve" smooth="yes"/>
      <point x="29" y="836"/>
      <point x="23" y="831"/>
      <point x="20" y="820" type="curve" smooth="yes"/>
      <point x="-1" y="699"/>
      <point x="41" y="630"/>
    </contour>
  </outline>
</glyph>
<glyph name="dieresiscomb" format="2">
  <unicode hex="0308"/>
  <anchor x="81" y="500" name="_top"/>
  <anchor x="139" y="706" name="top"/>
  <outline>
    <contour>
      <point x="40" y="690" type="curve" smooth="yes"/>
      <point x="71" y="690"/>
      <point x="90" y="718"/>
      <point x="90" y="746" type="curve" smooth="yes"/>
      <point x="90" y="766"/>
      <point x="75" y="775"/>
      <point x="54" y="775" type="curve" smooth="yes"/>
      <point x="23" y="775"/>
      <point x="4" y="748"/>
      <point x="4" y="719" type="curve" smooth="yes"/>
      <point x="4" y="699"/>
      <point x="18" y="690"/>
    </contour>
    <contour>
      <point x="260" y="690" type="curve" smooth="yes"/>
      <point x="291" y="690"/>
      <point x="310" y="718"/>
      <point x="310" y="746" type="curve" smooth="yes"/>
      <point x="310" y="766"/>
      <point x="295" y="775"/>
      <point x="274" y="775" type="curve" smooth="yes"/>
      <point x="243" y="775"/>
      <point x="224" y="748"/>
      <point x="224" y="719" type="curve" smooth="yes"/>
      <point x="224" y="699"/>
      <point x="238" y="690"/>
    </contour>
  </outline>
</glyph>
<glyph name="horncomb" format="2">
  <unicode hex="031B"/>
  <anchor x="86" y="515" name="_topright"/>
  <outline>
    <contour>
      <point x="250" y="694" type="curve" smooth="yes"/>
      <point x="242" y="714"/>
      <point x="204" y="702"/>
      <point x="211" y="680" type="curve" smooth="yes"/>
      <point x="240" y="592"/>
      <point x="219" y="520"/>
      <point x="86" y="515" type="curve"/>
      <point x="78" y="489" type="line"/>
      <point x="238" y="479"/>
      <point x="294" y="585"/>
    </contour>
  </outline>
</glyph>
<glyph name="Germandbls" format="2">
  <advance width="888"/>
  <unicode hex="1E9E"/>
  <outline>
    <contour>
      <point x="451" y="-19" type="curve" smooth="yes"/>
      <point x="624" y="-19"/>
      <point x="773" y="89"/>
      <point x="773" y="270" type="curve" smooth="yes"/>
      <point x="773" y="489"/>
      <point x="574" y="526"/>
      <point x="574" y="676" type="curve" smooth="yes"/>
      <point x="574" y="779"/>
      <point x="675" y="854"/>
      <point x="804" y="854" type="curve" smooth="yes"/>
      <point x="818" y="854"/>
      <point x="824" y="859"/>
      <point x="828" y="871" type="curve" smooth="yes"/>
      <point x="833" y="884"/>
      <point x="829" y="889"/>
      <point x="815" y="889" type="curve" smooth="yes"/>
      <point x="781" y="889" type="line" smooth="yes"/>
      <point x="395" y="889"/>
      <point x="310" y="754"/>
      <point x="244" y="550" type="curve" smooth="yes"/>
      <point x="65" y="3" type="line" smooth="yes"/>
      <point x="61" y="-9"/>
      <point x="66" y="-12"/>
      <point x="80" y="-12" type="curve" smooth="yes"/>
      <point x="94" y="-12"/>
      <point x="100" y="-9"/>
      <point x="104" y="3" type="curve" smooth="yes"/>
      <point x="283" y="553" type="line" smooth="yes"/>
      <point x="334" y="711"/>
      <point x="403" y="829"/>
      <point x="670" y="853" type="curve"/>
      <point x="591" y="822"/>
      <point x="534" y="757"/>
      <point x="534" y="671" type="curve" smooth="yes"/>
      <point x="534" y="508"/>
      <point x="733" y="475"/>
      <point x="733" y="268" type="curve" smooth="yes"/>
      <point x="733" y="110"/>
      <point x="595" y="19"/>
      <point x="456" y="19" type="curve" smooth="yes"/>
      <point x="388" y="19"/>
      <point x="343" y="31"/>
      <point x="291" y="49" type="curve" smooth="yes"/>
      <point x="275" y="55"/>
      <point x="269" y="50"/>
      <point x="265" y="38" type="curve" smooth="yes"/>
      <point x="259" y="25"/>
      <point x="263" y="18"/>
      <point x="278" y="13" type="curve" smooth="yes"/>
      <point x="331" y="-6"/>
      <point x="381" y="-19"/>
    </contour>
  </outline>
</glyph>
<glyph name="endash" format="2">
  <advance width="625"/>
  <unicode hex="2013"/>
  <outline>
    <contour>
      <point x="116" y="325" type="curve" smooth="yes"/>
      <point x="559" y="325" type="line" smooth="yes"/>
      <point x="571" y="325"/>
      <point x="576" y="329"/>
      <point x="580" y="343" type="curve" smooth="yes"/>
      <point x="583" y="354"/>
      <point x="583" y="360"/>
      <point x="569" y="360" type="curve" smooth="yes"/>
      <point x="126" y="360" type="line" smooth="yes"/>
      <point x="114" y="360"/>
      <point x="109" y="356"/>
      <point x="105" y="344" type="curve" smooth="yes"/>
      <point x="101" y="331"/>
      <point x="103" y="325"/>
    </contour>
  </outline>
</glyph>
<glyph name="quoteleft" format="2">
  <advance width="181"/>
  <unicode hex="2018"/>
  <outline>
    <contour>
      <point x="231" y="660" type="curve" smooth="yes"/>
      <point x="251" y="660"/>
      <point x="261" y="669"/>
      <point x="265" y="685" type="curve" smooth="yes"/>
      <point x="283" y="770"/>
      <point x="303" y="806"/>
      <point x="345" y="859" type="curve" smooth="yes"/>
      <point x="350" y="865"/>
      <point x="353" y="869"/>
      <point x="353" y="873" type="curve" smooth="yes"/>
      <point x="353" y="881"/>
      <point x="339" y="894"/>
      <point x="330" y="894" type="curve" smooth="yes"/>
      <point x="323" y="894"/>
      <point x="314" y="886"/>
      <point x="305" y="879" type="curve" smooth="yes"/>
      <point x="230" y="805"/>
      <point x="204" y="716"/>
      <point x="204" y="681" type="curve" smooth="yes"/>
      <point x="204" y="668"/>
      <point x="211" y="660"/>
    </contour>
  </outline>
</glyph>
<glyph name="quoteright" format="2">
  <advance width="192"/>
  <unicode hex="2019"/>
  <outline>
    <contour>
      <point x="303" y="894" type="curve" smooth="yes"/>
      <point x="285" y="894"/>
      <point x="275" y="885"/>
      <point x="271" y="869" type="curve" smooth="yes"/>
      <point x="253" y="784"/>
      <point x="232" y="748"/>
      <point x="186" y="680" type="curve" smooth="yes"/>
      <point x="182" y="674"/>
      <point x="179" y="670"/>
      <point x="179" y="666" type="curve" smooth="yes"/>
      <point x="179" y="658"/>
      <point x="190" y="645"/>
      <point x="199" y="645" type="curve" smooth="yes"/>
      <point x="206" y="645"/>
      <point x="215" y="653"/>
      <point x="222" y="661" type="curve" smooth="yes"/>
      <point x="302" y="749"/>
      <point x="328" y="838"/>
      <point x="328" y="873" type="curve" smooth="yes"/>
      <point x="328" y="886"/>
      <point x="321" y="894"/>
    </contour>
  </outline>
</glyph>
<glyph name="product" format="2">
  <advance width="763"/>
  <unicode hex="220F"/>
  <outline>
    <contour>
      <point x="73" y="-82" type="curve" smooth="yes"/>
      <point x="86" y="-82"/>
      <point x="93" y="-79"/>
      <point x="95" y="-67" type="curve" smooth="yes"/>
      <point x="390" y="840" type="line"/>
      <point x="756" y="840" type="line"/>
      <point x="461" y="-67" type="line" smooth="yes"/>
      <point x="459" y="-79"/>
      <point x="462" y="-82"/>
      <point x="476" y="-82" type="curve" smooth="yes"/>
      <point x="490" y="-82"/>
      <point x="496" y="-79"/>
      <point x="499" y="-67" type="curve" smooth="yes"/>
      <point x="794" y="840" type="line"/>
      <point x="919" y="840" type="line" smooth="yes"/>
      <point x="925" y="840"/>
      <point x="932" y="846"/>
      <point x="936" y="859" type="curve" smooth="yes"/>
      <point x="940" y="871"/>
      <point x="936" y="875"/>
      <point x="930" y="875" type="curve" smooth="yes"/>
      <point x="239" y="875" type="line" smooth="yes"/>
      <point x="233" y="875"/>
      <point x="226" y="870"/>
      <point x="223" y="858" type="curve" smooth="yes"/>
      <point x="219" y="845"/>
      <point x="221" y="840"/>
      <point x="228" y="840" type="curve" smooth="yes"/>
      <point x="353" y="840" type="line"/>
      <point x="58" y="-67" type="line" smooth="yes"/>
      <point x="55" y="-79"/>
      <point x="59" y="-82"/>
    </contour>
  </outline>
</glyph>
<glyph name="notequal" format="2">
  <advance width="763"/>
  <unicode hex="2260"/>
  <outline>
    <contour>
      <point x="220" y="70" type="curve" smooth="yes"/>
      <point x="233" y="66"/>
      <point x="240" y="69"/>
      <point x="246" y="80" type="curve" smooth="yes"/>
      <point x="660" y="786" type="line" smooth="yes"/>
      <point x="665" y="796"/>
      <point x="663" y="801"/>
      <point x="653" y="805" type="curve" smooth="yes"/>
      <point x="640" y="809"/>
      <point x="633" y="806"/>
      <point x="626" y="795" type="curve" smooth="yes"/>
      <point x="213" y="89" type="line" smooth="yes"/>
      <point x="208" y="79"/>
      <point x="209" y="74"/>
    </contour>
    <component base="equal"/>
  </outline>
</glyph>
<glyph name="A.cur.ini" format="2">
  <advance width="929"/>
  <anchor x="359" y="0" name="bottom"/>
  <anchor x="848" y="0" name="cnct"/>
  <anchor x="850" y="13" name="ogonek"/>
  <anchor x="618" y="838" name="top"/>
  <outline>
    <contour>
      <point x="360" y="-17" type="curve" smooth="yes"/>
      <point x="503" y="-17"/>
      <point x="621" y="66"/>
      <point x="721" y="241" type="curve"/>
      <point x="696" y="163" type="line" smooth="yes"/>
      <point x="666" y="73"/>
      <point x="691" y="-17"/>
      <point x="794" y="-17" type="curve" smooth="yes"/>
      <point x="816" y="-17"/>
      <point x="824" y="18"/>
      <point x="805" y="18" type="curve" smooth="yes"/>
      <point x="714" y="18"/>
      <point x="715" y="100"/>
      <point x="736" y="165" type="curve" smooth="yes"/>
      <point x="839" y="478" type="line" smooth="yes"/>
      <point x="843" y="489"/>
      <point x="836" y="493"/>
      <point x="824" y="493" type="curve" smooth="yes"/>
      <point x="808" y="493"/>
      <point x="804" y="489"/>
      <point x="800" y="478" type="curve"/>
      <point x="686" y="179"/>
      <point x="541" y="20"/>
      <point x="366" y="20" type="curve" smooth="yes"/>
      <point x="274" y="20"/>
      <point x="165" y="79"/>
      <point x="165" y="269" type="curve" smooth="yes"/>
      <point x="165" y="576"/>
      <point x="380" y="853"/>
      <point x="633" y="853" type="curve" smooth="yes"/>
      <point x="746" y="853"/>
      <point x="840" y="794"/>
      <point x="863" y="666" type="curve" smooth="yes"/>
      <point x="864" y="658"/>
      <point x="874" y="653"/>
      <point x="886" y="658" type="curve" smooth="yes"/>
      <point x="901" y="664"/>
      <point x="901" y="675"/>
      <point x="899" y="688" type="curve" smooth="yes"/>
      <point x="869" y="825"/>
      <point x="761" y="890"/>
      <point x="638" y="890" type="curve" smooth="yes"/>
      <point x="345" y="890"/>
      <point x="124" y="589"/>
      <point x="124" y="266" type="curve" smooth="yes"/>
      <point x="124" y="56"/>
      <point x="250" y="-17"/>
    </contour>
  </outline>
</glyph>
<glyph name="A.cur_locl" format="2">
  <advance width="979"/>
  <anchor x="359" y="0" name="bottom"/>
  <anchor x="850" y="13" name="ogonek"/>
  <anchor x="618" y="838" name="top"/>
  <outline>
    <contour>
      <point x="360" y="-17" type="curve" smooth="yes"/>
      <point x="503" y="-17"/>
      <point x="621" y="66"/>
      <point x="721" y="241" type="curve"/>
      <point x="694" y="156" type="line" smooth="yes"/>
      <point x="664" y="68"/>
      <point x="674" y="-17"/>
      <point x="768" y="-17" type="curve" smooth="yes"/>
      <point x="845" y="-17"/>
      <point x="885" y="44"/>
      <point x="913" y="96" type="curve" smooth="yes"/>
      <point x="918" y="106"/>
      <point x="918" y="115"/>
      <point x="906" y="120" type="curve" smooth="yes"/>
      <point x="894" y="126"/>
      <point x="885" y="119"/>
      <point x="881" y="111" type="curve" smooth="yes"/>
      <point x="864" y="75"/>
      <point x="828" y="19"/>
      <point x="775" y="19" type="curve" smooth="yes"/>
      <point x="696" y="19"/>
      <point x="715" y="100"/>
      <point x="734" y="158" type="curve" smooth="yes"/>
      <point x="970" y="875" type="line" smooth="yes"/>
      <point x="974" y="885"/>
      <point x="968" y="890"/>
      <point x="955" y="890" type="curve" smooth="yes"/>
      <point x="939" y="890"/>
      <point x="935" y="885"/>
      <point x="931" y="875" type="curve" smooth="yes"/>
      <point x="881" y="724" type="line"/>
      <point x="841" y="826"/>
      <point x="749" y="890"/>
      <point x="638" y="890" type="curve" smooth="yes"/>
      <point x="345" y="890"/>
      <point x="124" y="589"/>
      <point x="124" y="266" type="curve" smooth="yes"/>
      <point x="124" y="56"/>
      <point x="250" y="-17"/>
    </contour>
    <contour>
      <point x="165" y="269" type="curve" smooth="yes"/>
      <point x="165" y="576"/>
      <point x="380" y="853"/>
      <point x="633" y="853" type="curve" smooth="yes"/>
      <point x="751" y="853"/>
      <point x="830" y="783"/>
      <point x="864" y="670" type="curve"/>
      <point x="799" y="475" type="line"/>
      <point x="686" y="178"/>
      <point x="543" y="20"/>
      <point x="366" y="20" type="curve" smooth="yes"/>
      <point x="274" y="20"/>
      <point x="165" y="79"/>
    </contour>
  </outline>
</glyph>
<glyph name="A.cur_locl.ini" format="2">
  <advance width="929"/>
  <anchor x="359" y="0" name="bottom"/>
  <anchor x="848" y="0" name="cnct"/>
  <anchor x="850" y="13" name="ogonek"/>
  <anchor x="618" y="838" name="top"/>
  <outline>
    <contour>
      <point x="360" y="-17" type="curve" smooth="yes"/>
      <point x="504" y="-17"/>
      <point x="623" y="68"/>
      <point x="723" y="243" type="curve"/>
      <point x="696" y="163" type="line" smooth="yes"/>
      <point x="666" y="73"/>
      <point x="691" y="-17"/>
      <point x="794" y="-17" type="curve" smooth="yes"/>
      <point x="816" y="-17"/>
      <point x="824" y="18"/>
      <point x="805" y="18" type="curve" smooth="yes"/>
      <point x="714" y="18"/>
      <point x="715" y="100"/>
      <point x="736" y="165" type="curve" smooth="yes"/>
      <point x="970" y="875" type="line" smooth="yes"/>
      <point x="974" y="885"/>
      <point x="968" y="890"/>
      <point x="955" y="890" type="curve" smooth="yes"/>
      <point x="939" y="890"/>
      <point x="935" y="885"/>
      <point x="931" y="875" type="curve" smooth="yes"/>
      <point x="881" y="724" type="line"/>
      <point x="841" y="826"/>
      <point x="749" y="890"/>
      <point x="638" y="890" type="curve" smooth="yes"/>
      <point x="345" y="890"/>
      <point x="124" y="589"/>
      <point x="124" y="266" type="curve" smooth="yes"/>
      <point x="124" y="56"/>
      <point x="250" y="-17"/>
    </contour>
    <contour>
      <point x="165" y="269" type="curve" smooth="yes"/>
      <point x="165" y="576"/>
      <point x="380" y="853"/>
      <point x="633" y="853" type="curve" smooth="yes"/>
      <point x="751" y="853"/>
      <point x="830" y="783"/>
      <point x="864" y="669" type="curve"/>
      <point x="800" y="478" type="line"/>
      <point x="686" y="179"/>
      <point x="543" y="20"/>
      <point x="366" y="20" type="curve" smooth="yes"/>
      <point x="274" y="20"/>
      <point x="165" y="79"/>
    </contour>
  </outline>
</glyph>
<glyph name="A.dec" format="2">
  <advance width="918"/>
  <anchor x="455" y="0" name="bottom"/>
  <anchor x="736" y="0" name="ogonek"/>
  <anchor x="726" y="838" name="top"/>
  <outline>
    <contour>
      <point x="73" y="-17" type="curve" smooth="yes"/>
      <point x="194" y="-17"/>
      <point x="316" y="29"/>
      <point x="730" y="808" type="curve"/>
      <point x="699" y="546"/>
      <point x="682" y="288"/>
      <point x="696" y="3" type="curve"/>
      <point x="698" y="-14"/>
      <point x="703" y="-17"/>
      <point x="718" y="-16" type="curve" smooth="yes"/>
      <point x="733" y="-15"/>
      <point x="736" y="-9"/>
      <point x="736" y="6" type="curve" smooth="yes"/>
      <point x="724" y="309"/>
      <point x="740" y="588"/>
      <point x="774" y="868" type="curve" smooth="yes"/>
      <point x="776" y="883"/>
      <point x="769" y="890"/>
      <point x="754" y="890" type="curve" smooth="yes"/>
      <point x="739" y="890"/>
      <point x="730" y="881"/>
      <point x="723" y="868" type="curve" smooth="yes"/>
      <point x="298" y="71"/>
      <point x="176" y="20"/>
      <point x="74" y="20" type="curve" smooth="yes"/>
      <point x="44" y="20"/>
      <point x="18" y="28"/>
      <point x="-1" y="36" type="curve" smooth="yes"/>
      <point x="-9" y="40"/>
      <point x="-17" y="36"/>
      <point x="-24" y="23" type="curve" smooth="yes"/>
      <point x="-30" y="9"/>
      <point x="-24" y="3"/>
      <point x="-15" y="-1" type="curve" smooth="yes"/>
      <point x="4" y="-9"/>
      <point x="36" y="-17"/>
    </contour>
    <contour>
      <point x="698" y="9" type="curve"/>
      <point x="725" y="21" type="line"/>
      <point x="709" y="330"/>
      <point x="545" y="401"/>
      <point x="401" y="401" type="curve" smooth="yes"/>
      <point x="303" y="401"/>
      <point x="219" y="343"/>
      <point x="219" y="264" type="curve" smooth="yes"/>
      <point x="219" y="189"/>
      <point x="296" y="131"/>
      <point x="435" y="131" type="curve" smooth="yes"/>
      <point x="625" y="131"/>
      <point x="753" y="195"/>
      <point x="900" y="335" type="curve" smooth="yes"/>
      <point x="906" y="341"/>
      <point x="908" y="349"/>
      <point x="896" y="359" type="curve" smooth="yes"/>
      <point x="888" y="366"/>
      <point x="881" y="366"/>
      <point x="876" y="361" type="curve" smooth="yes"/>
      <point x="738" y="228"/>
      <point x="613" y="166"/>
      <point x="439" y="166" type="curve" smooth="yes"/>
      <point x="318" y="166"/>
      <point x="260" y="209"/>
      <point x="260" y="268" type="curve" smooth="yes"/>
      <point x="260" y="330"/>
      <point x="321" y="366"/>
      <point x="400" y="366" type="curve" smooth="yes"/>
      <point x="539" y="366"/>
      <point x="673" y="295"/>
    </contour>
  </outline>
</glyph>
<glyph name="A.dec_locl.ini" format="2">
  <advance width="955"/>
  <anchor x="455" y="0" name="bottom"/>
  <anchor x="874" y="0" name="cnct"/>
  <anchor x="819" y="0" name="ogonek"/>
  <anchor x="726" y="838" name="top"/>
  <outline>
    <contour>
      <point x="73" y="-17" type="curve" smooth="yes"/>
      <point x="159" y="-17"/>
      <point x="246" y="7"/>
      <point x="439" y="303" type="curve"/>
      <point x="696" y="303" type="line"/>
      <point x="695" y="265"/>
      <point x="695" y="226"/>
      <point x="695" y="186" type="curve" smooth="yes"/>
      <point x="695" y="45"/>
      <point x="731" y="-17"/>
      <point x="820" y="-17" type="curve" smooth="yes"/>
      <point x="845" y="-17"/>
      <point x="856" y="18"/>
      <point x="831" y="18" type="curve" smooth="yes"/>
      <point x="761" y="18"/>
      <point x="733" y="56"/>
      <point x="733" y="194" type="curve" smooth="yes"/>
      <point x="733" y="436"/>
      <point x="748" y="651"/>
      <point x="774" y="868" type="curve" smooth="yes"/>
      <point x="776" y="883"/>
      <point x="769" y="890"/>
      <point x="754" y="890" type="curve" smooth="yes"/>
      <point x="739" y="890"/>
      <point x="730" y="881"/>
      <point x="723" y="868" type="curve" smooth="yes"/>
      <point x="298" y="71"/>
      <point x="176" y="20"/>
      <point x="74" y="20" type="curve" smooth="yes"/>
      <point x="44" y="20"/>
      <point x="18" y="28"/>
      <point x="-1" y="36" type="curve" smooth="yes"/>
      <point x="-9" y="40"/>
      <point x="-17" y="36"/>
      <point x="-24" y="23" type="curve" smooth="yes"/>
      <point x="-30" y="9"/>
      <point x="-24" y="3"/>
      <point x="-15" y="-1" type="curve" smooth="yes"/>
      <point x="4" y="-9"/>
      <point x="36" y="-17"/>
    </contour>
    <contour>
      <point x="460" y="335" type="line"/>
      <point x="533" y="451"/>
      <point x="622" y="604"/>
      <point x="730" y="808" type="curve"/>
      <point x="712" y="655"/>
      <point x="701" y="502"/>
      <point x="697" y="335" type="curve"/>
    </contour>
  </outline>
</glyph>
<glyph name="AE.cur.ini" format="2">
  <advance width="1274"/>
  <anchor x="1193" y="0" name="cnct"/>
  <anchor x="914" y="838" name="top"/>
  <outline>
    <contour>
      <point x="54" y="-17" type="curve" smooth="yes"/>
      <point x="199" y="-17"/>
      <point x="271" y="98"/>
      <point x="813" y="854" type="curve"/>
      <point x="794" y="856" type="line"/>
      <point x="745" y="658"/>
      <point x="704" y="433"/>
      <point x="688" y="211" type="curve" smooth="yes"/>
      <point x="686" y="195"/>
      <point x="689" y="190"/>
      <point x="704" y="189" type="curve" smooth="yes"/>
      <point x="719" y="189"/>
      <point x="723" y="194"/>
      <point x="724" y="209" type="curve" smooth="yes"/>
      <point x="743" y="431"/>
      <point x="784" y="665"/>
      <point x="834" y="868" type="curve" smooth="yes"/>
      <point x="838" y="883"/>
      <point x="829" y="890"/>
      <point x="814" y="890" type="curve" smooth="yes"/>
      <point x="799" y="890"/>
      <point x="791" y="883"/>
      <point x="781" y="869" type="curve" smooth="yes"/>
      <point x="251" y="135"/>
      <point x="173" y="20"/>
      <point x="55" y="20" type="curve" smooth="yes"/>
      <point x="35" y="20"/>
      <point x="16" y="24"/>
      <point x="-2" y="33" type="curve" smooth="yes"/>
      <point x="-10" y="36"/>
      <point x="-19" y="33"/>
      <point x="-25" y="19" type="curve" smooth="yes"/>
      <point x="-31" y="5"/>
      <point x="-25" y="-1"/>
      <point x="-16" y="-5" type="curve" smooth="yes"/>
      <point x="3" y="-12"/>
      <point x="25" y="-17"/>
    </contour>
    <contour>
      <point x="391" y="288" type="line"/>
      <point x="715" y="288" type="line"/>
      <point x="720" y="320" type="line"/>
      <point x="415" y="320" type="line"/>
    </contour>
    <contour>
      <point x="908" y="-17" type="curve" smooth="yes"/>
      <point x="928" y="-17"/>
      <point x="933" y="16"/>
      <point x="913" y="16" type="curve" smooth="yes"/>
      <point x="775" y="16"/>
      <point x="728" y="104"/>
      <point x="728" y="200" type="curve" smooth="yes"/>
      <point x="728" y="369"/>
      <point x="894" y="441"/>
      <point x="1058" y="441" type="curve" smooth="yes"/>
      <point x="1130" y="441" type="line" smooth="yes"/>
      <point x="1136" y="441"/>
      <point x="1146" y="445"/>
      <point x="1149" y="458" type="curve" smooth="yes"/>
      <point x="1151" y="470"/>
      <point x="1145" y="476"/>
      <point x="1139" y="476" type="curve" smooth="yes"/>
      <point x="1063" y="476" type="line" smooth="yes"/>
      <point x="949" y="476"/>
      <point x="909" y="543"/>
      <point x="909" y="631" type="curve" smooth="yes"/>
      <point x="909" y="750"/>
      <point x="1000" y="853"/>
      <point x="1126" y="853" type="curve" smooth="yes"/>
      <point x="1200" y="853"/>
      <point x="1251" y="828"/>
      <point x="1303" y="773" type="curve" smooth="yes"/>
      <point x="1309" y="766"/>
      <point x="1318" y="760"/>
      <point x="1329" y="769" type="curve" smooth="yes"/>
      <point x="1345" y="781"/>
      <point x="1338" y="789"/>
      <point x="1333" y="795" type="curve" smooth="yes"/>
      <point x="1293" y="848"/>
      <point x="1228" y="890"/>
      <point x="1136" y="890" type="curve" smooth="yes"/>
      <point x="971" y="890"/>
      <point x="868" y="763"/>
      <point x="868" y="629" type="curve" smooth="yes"/>
      <point x="868" y="554"/>
      <point x="901" y="491"/>
      <point x="975" y="464" type="curve"/>
      <point x="813" y="438"/>
      <point x="687" y="355"/>
      <point x="687" y="191" type="curve" smooth="yes"/>
      <point x="687" y="85"/>
      <point x="744" y="-17"/>
    </contour>
  </outline>
</glyph>
<glyph name="B.cur" format="2">
  <advance width="894"/>
  <guideline x="222" y="104" angle="72.99"/>
  <anchor x="468" y="0" name="bottom"/>
  <anchor x="294" y="258" name="center"/>
  <anchor x="654" y="838" name="top"/>
  <outline>
    <contour>
      <point x="465" y="-12" type="curve" smooth="yes"/>
      <point x="625" y="-12"/>
      <point x="821" y="88"/>
      <point x="821" y="300" type="curve" smooth="yes"/>
      <point x="821" y="390"/>
      <point x="761" y="460"/>
      <point x="650" y="476" type="curve"/>
      <point x="651" y="479" type="line"/>
      <point x="780" y="504"/>
      <point x="903" y="590"/>
      <point x="903" y="721" type="curve" smooth="yes"/>
      <point x="903" y="830"/>
      <point x="801" y="890"/>
      <point x="628" y="890" type="curve" smooth="yes"/>
      <point x="471" y="890"/>
      <point x="360" y="858"/>
      <point x="244" y="778" type="curve" smooth="yes"/>
      <point x="233" y="770"/>
      <point x="230" y="759"/>
      <point x="238" y="750" type="curve" smooth="yes"/>
      <point x="248" y="739"/>
      <point x="255" y="740"/>
      <point x="265" y="748" type="curve" smooth="yes"/>
      <point x="380" y="830"/>
      <point x="486" y="854"/>
      <point x="626" y="854" type="curve" smooth="yes"/>
      <point x="775" y="854"/>
      <point x="861" y="806"/>
      <point x="861" y="715" type="curve" smooth="yes"/>
      <point x="861" y="590"/>
      <point x="716" y="515"/>
      <point x="603" y="498" type="curve"/>
      <point x="591" y="503"/>
      <point x="575" y="505"/>
      <point x="555" y="505" type="curve" smooth="yes"/>
      <point x="529" y="505"/>
      <point x="504" y="491"/>
      <point x="498" y="470" type="curve" smooth="yes"/>
      <point x="493" y="451"/>
      <point x="508" y="443"/>
      <point x="529" y="443" type="curve" smooth="yes"/>
      <point x="549" y="443"/>
      <point x="574" y="450"/>
      <point x="593" y="458" type="curve"/>
      <point x="701" y="449"/>
      <point x="780" y="393"/>
      <point x="780" y="296" type="curve" smooth="yes"/>
      <point x="780" y="116"/>
      <point x="605" y="24"/>
      <point x="471" y="24" type="curve" smooth="yes"/>
      <point x="416" y="24"/>
      <point x="378" y="33"/>
      <point x="330" y="65" type="curve" smooth="yes"/>
      <point x="323" y="70"/>
      <point x="315" y="71"/>
      <point x="306" y="59" type="curve" smooth="yes"/>
      <point x="296" y="45"/>
      <point x="303" y="38"/>
      <point x="310" y="33" type="curve" smooth="yes"/>
      <point x="354" y="1"/>
      <point x="411" y="-12"/>
    </contour>
    <contour>
      <point x="110" y="-17" type="curve" smooth="yes"/>
      <point x="193" y="-17"/>
      <point x="244" y="40"/>
      <point x="278" y="143" type="curve" smooth="yes"/>
      <point x="475" y="746" type="line" smooth="yes"/>
      <point x="479" y="758"/>
      <point x="471" y="761"/>
      <point x="460" y="761" type="curve" smooth="yes"/>
      <point x="446" y="761"/>
      <point x="440" y="758"/>
      <point x="436" y="746" type="curve" smooth="yes"/>
      <point x="241" y="151" type="line" smooth="yes"/>
      <point x="210" y="58"/>
      <point x="169" y="18"/>
      <point x="114" y="18" type="curve" smooth="yes"/>
      <point x="75" y="18"/>
      <point x="36" y="26"/>
      <point x="13" y="84" type="curve" smooth="yes"/>
      <point x="9" y="93"/>
      <point x="-1" y="93"/>
      <point x="-10" y="88" type="curve" smooth="yes"/>
      <point x="-16" y="84"/>
      <point x="-21" y="76"/>
      <point x="-19" y="69" type="curve" smooth="yes"/>
      <point x="5" y="13"/>
      <point x="48" y="-17"/>
    </contour>
  </outline>
</glyph>
<glyph name="C.cur.ini" format="2">
  <advance width="775"/>
  <anchor x="356" y="0" name="bottom"/>
  <anchor x="694" y="0" name="cnct"/>
  <anchor x="615" y="838" name="top"/>
  <outline>
    <contour>
      <point x="409" y="-17" type="curve" smooth="yes"/>
      <point x="429" y="-17"/>
      <point x="434" y="16"/>
      <point x="414" y="16" type="curve" smooth="yes"/>
      <point x="272" y="16"/>
      <point x="181" y="109"/>
      <point x="181" y="278" type="curve" smooth="yes"/>
      <point x="181" y="555"/>
      <point x="357" y="853"/>
      <point x="640" y="853" type="curve" smooth="yes"/>
      <point x="713" y="853"/>
      <point x="773" y="826"/>
      <point x="816" y="776" type="curve" smooth="yes"/>
      <point x="830" y="761"/>
      <point x="834" y="758"/>
      <point x="845" y="763" type="curve"/>
      <point x="860" y="770"/>
      <point x="865" y="779"/>
      <point x="858" y="790" type="curve" smooth="yes"/>
      <point x="811" y="855"/>
      <point x="736" y="890"/>
      <point x="643" y="890" type="curve" smooth="yes"/>
      <point x="329" y="890"/>
      <point x="140" y="571"/>
      <point x="140" y="278" type="curve" smooth="yes"/>
      <point x="140" y="89"/>
      <point x="247" y="-17"/>
    </contour>
  </outline>
</glyph>
<glyph name="D.cur" format="2">
  <advance width="1005"/>
  <guideline x="191" y="42" angle="230.19"/>
  <anchor x="478" y="0" name="bottom"/>
  <anchor x="424" y="438" name="center"/>
  <anchor x="710" y="838" name="top"/>
  <outline>
    <contour>
      <point x="484" y="-16" type="curve" smooth="yes"/>
      <point x="798" y="-16"/>
      <point x="993" y="304"/>
      <point x="993" y="575" type="curve" smooth="yes"/>
      <point x="993" y="790"/>
      <point x="849" y="890"/>
      <point x="634" y="890" type="curve" smooth="yes"/>
      <point x="476" y="890"/>
      <point x="365" y="858"/>
      <point x="249" y="778" type="curve" smooth="yes"/>
      <point x="238" y="770"/>
      <point x="235" y="759"/>
      <point x="243" y="750" type="curve" smooth="yes"/>
      <point x="253" y="739"/>
      <point x="260" y="740"/>
      <point x="270" y="748" type="curve" smooth="yes"/>
      <point x="385" y="830"/>
      <point x="491" y="856"/>
      <point x="631" y="856" type="curve" smooth="yes"/>
      <point x="826" y="856"/>
      <point x="951" y="769"/>
      <point x="951" y="573" type="curve" smooth="yes"/>
      <point x="951" y="333"/>
      <point x="775" y="20"/>
      <point x="488" y="20" type="curve" smooth="yes"/>
      <point x="433" y="20"/>
      <point x="381" y="34"/>
      <point x="339" y="65" type="curve" smooth="yes"/>
      <point x="330" y="71"/>
      <point x="323" y="70"/>
      <point x="315" y="59" type="curve" smooth="yes"/>
      <point x="306" y="45"/>
      <point x="310" y="39"/>
      <point x="319" y="33" type="curve" smooth="yes"/>
      <point x="359" y="3"/>
      <point x="424" y="-16"/>
    </contour>
    <contour>
      <point x="115" y="-17" type="curve" smooth="yes"/>
      <point x="198" y="-17"/>
      <point x="249" y="40"/>
      <point x="283" y="143" type="curve" smooth="yes"/>
      <point x="481" y="755" type="line" smooth="yes"/>
      <point x="485" y="766"/>
      <point x="478" y="770"/>
      <point x="466" y="770" type="curve" smooth="yes"/>
      <point x="453" y="770"/>
      <point x="446" y="766"/>
      <point x="443" y="755" type="curve" smooth="yes"/>
      <point x="246" y="151" type="line" smooth="yes"/>
      <point x="216" y="58"/>
      <point x="174" y="18"/>
      <point x="119" y="18" type="curve" smooth="yes"/>
      <point x="80" y="18"/>
      <point x="41" y="26"/>
      <point x="18" y="84" type="curve" smooth="yes"/>
      <point x="14" y="93"/>
      <point x="4" y="93"/>
      <point x="-5" y="88" type="curve" smooth="yes"/>
      <point x="-11" y="84"/>
      <point x="-16" y="76"/>
      <point x="-14" y="69" type="curve" smooth="yes"/>
      <point x="10" y="13"/>
      <point x="53" y="-17"/>
    </contour>
  </outline>
</glyph>
<glyph name="D.dec" format="2">
  <advance width="999"/>
  <anchor x="478" y="0" name="bottom"/>
  <anchor x="424" y="438" name="center"/>
  <anchor x="710" y="838" name="top"/>
  <outline>
    <contour>
      <point x="150" y="-21" type="curve" smooth="yes"/>
      <point x="230" y="-21"/>
      <point x="279" y="55"/>
      <point x="316" y="171" type="curve" smooth="yes"/>
      <point x="505" y="754" type="line" smooth="yes"/>
      <point x="509" y="764"/>
      <point x="504" y="770"/>
      <point x="491" y="770" type="curve" smooth="yes"/>
      <point x="478" y="770"/>
      <point x="471" y="765"/>
      <point x="468" y="755" type="curve" smooth="yes"/>
      <point x="283" y="183" type="line" smooth="yes"/>
      <point x="255" y="98"/>
      <point x="214" y="13"/>
      <point x="154" y="13" type="curve" smooth="yes"/>
      <point x="123" y="13"/>
      <point x="100" y="31"/>
      <point x="100" y="56" type="curve" smooth="yes"/>
      <point x="100" y="89"/>
      <point x="129" y="105"/>
      <point x="164" y="105" type="curve" smooth="yes"/>
      <point x="271" y="105"/>
      <point x="333" y="-11"/>
      <point x="521" y="-11" type="curve" smooth="yes"/>
      <point x="773" y="-11"/>
      <point x="973" y="225"/>
      <point x="973" y="480" type="curve" smooth="yes"/>
      <point x="973" y="749"/>
      <point x="798" y="890"/>
      <point x="560" y="890" type="curve" smooth="yes"/>
      <point x="379" y="890"/>
      <point x="288" y="818"/>
      <point x="219" y="678" type="curve" smooth="yes"/>
      <point x="213" y="664"/>
      <point x="215" y="658"/>
      <point x="225" y="653" type="curve" smooth="yes"/>
      <point x="235" y="648"/>
      <point x="245" y="649"/>
      <point x="251" y="661" type="curve" smooth="yes"/>
      <point x="318" y="794"/>
      <point x="388" y="855"/>
      <point x="556" y="855" type="curve" smooth="yes"/>
      <point x="775" y="855"/>
      <point x="931" y="724"/>
      <point x="931" y="476" type="curve" smooth="yes"/>
      <point x="931" y="239"/>
      <point x="741" y="23"/>
      <point x="524" y="23" type="curve" smooth="yes"/>
      <point x="351" y="23"/>
      <point x="289" y="140"/>
      <point x="165" y="140" type="curve" smooth="yes"/>
      <point x="99" y="140"/>
      <point x="59" y="100"/>
      <point x="59" y="53" type="curve" smooth="yes"/>
      <point x="59" y="11"/>
      <point x="99" y="-21"/>
    </contour>
  </outline>
</glyph>
<glyph name="F.cur" format="2">
  <advance width="758"/>
  <outline>
    <contour>
      <point x="148" y="-17" type="curve" smooth="yes"/>
      <point x="226" y="-17"/>
      <point x="274" y="40"/>
      <point x="308" y="143" type="curve" smooth="yes"/>
      <point x="399" y="420" type="line"/>
      <point x="718" y="420" type="line" smooth="yes"/>
      <point x="730" y="420"/>
      <point x="735" y="424"/>
      <point x="739" y="438" type="curve" smooth="yes"/>
      <point x="741" y="449"/>
      <point x="741" y="455"/>
      <point x="728" y="455" type="curve" smooth="yes"/>
      <point x="410" y="455" type="line"/>
      <point x="535" y="840" type="line"/>
      <point x="906" y="840" type="line" smooth="yes"/>
      <point x="919" y="840"/>
      <point x="924" y="844"/>
      <point x="928" y="858" type="curve" smooth="yes"/>
      <point x="930" y="869"/>
      <point x="930" y="875"/>
      <point x="916" y="875" type="curve" smooth="yes"/>
      <point x="461" y="875" type="line" smooth="yes"/>
      <point x="360" y="875"/>
      <point x="278" y="845"/>
      <point x="213" y="783" type="curve" smooth="yes"/>
      <point x="201" y="771"/>
      <point x="203" y="764"/>
      <point x="213" y="755" type="curve" smooth="yes"/>
      <point x="223" y="745"/>
      <point x="230" y="749"/>
      <point x="239" y="758" type="curve" smooth="yes"/>
      <point x="296" y="815"/>
      <point x="369" y="841"/>
      <point x="458" y="841" type="curve" smooth="yes"/>
      <point x="496" y="841" type="line"/>
      <point x="271" y="151" type="line" smooth="yes"/>
      <point x="241" y="58"/>
      <point x="203" y="18"/>
      <point x="151" y="18" type="curve" smooth="yes"/>
      <point x="111" y="18"/>
      <point x="68" y="26"/>
      <point x="44" y="84" type="curve" smooth="yes"/>
      <point x="40" y="93"/>
      <point x="30" y="93"/>
      <point x="21" y="88" type="curve" smooth="yes"/>
      <point x="15" y="84"/>
      <point x="10" y="76"/>
      <point x="13" y="69" type="curve" smooth="yes"/>
      <point x="36" y="13"/>
      <point x="84" y="-17"/>
    </contour>
  </outline>
</glyph>
<glyph name="F.cur_locl" format="2">
  <advance width="825"/>
  <outline>
    <contour>
      <point x="216" y="-17" type="curve" smooth="yes"/>
      <point x="484" y="-17"/>
      <point x="749" y="420"/>
      <point x="749" y="670" type="curve" smooth="yes"/>
      <point x="749" y="809"/>
      <point x="678" y="890"/>
      <point x="538" y="890" type="curve" smooth="yes"/>
      <point x="435" y="890"/>
      <point x="355" y="850"/>
      <point x="270" y="789" type="curve" smooth="yes"/>
      <point x="259" y="781"/>
      <point x="255" y="773"/>
      <point x="261" y="763" type="curve" smooth="yes"/>
      <point x="269" y="750"/>
      <point x="275" y="749"/>
      <point x="288" y="758" type="curve" smooth="yes"/>
      <point x="373" y="815"/>
      <point x="439" y="855"/>
      <point x="534" y="855" type="curve" smooth="yes"/>
      <point x="653" y="855"/>
      <point x="708" y="784"/>
      <point x="708" y="666" type="curve" smooth="yes"/>
      <point x="708" y="433"/>
      <point x="448" y="18"/>
      <point x="220" y="18" type="curve" smooth="yes"/>
      <point x="149" y="18"/>
      <point x="115" y="56"/>
      <point x="115" y="125" type="curve" smooth="yes"/>
      <point x="115" y="320"/>
      <point x="342" y="518"/>
      <point x="852" y="568" type="curve"/>
      <point x="818" y="465" type="line" smooth="yes"/>
      <point x="814" y="454"/>
      <point x="819" y="450"/>
      <point x="833" y="450" type="curve" smooth="yes"/>
      <point x="845" y="450"/>
      <point x="851" y="455"/>
      <point x="855" y="465" type="curve" smooth="yes"/>
      <point x="894" y="584" type="line" smooth="yes"/>
      <point x="899" y="598"/>
      <point x="895" y="606"/>
      <point x="881" y="605" type="curve" smooth="yes"/>
      <point x="310" y="555"/>
      <point x="74" y="329"/>
      <point x="74" y="121" type="curve" smooth="yes"/>
      <point x="74" y="38"/>
      <point x="124" y="-17"/>
    </contour>
  </outline>
</glyph>
<glyph name="F.dec" format="2">
  <advance width="919"/>
  <outline>
    <contour>
      <point x="313" y="-17" type="curve" smooth="yes"/>
      <point x="464" y="-17"/>
      <point x="581" y="80"/>
      <point x="664" y="333" type="curve" smooth="yes"/>
      <point x="696" y="431" type="line"/>
      <point x="838" y="431" type="line" smooth="yes"/>
      <point x="845" y="431"/>
      <point x="850" y="436"/>
      <point x="853" y="449" type="curve" smooth="yes"/>
      <point x="855" y="460"/>
      <point x="851" y="466"/>
      <point x="844" y="466" type="curve" smooth="yes"/>
      <point x="708" y="466" type="line"/>
      <point x="811" y="784" type="line"/>
      <point x="823" y="783"/>
      <point x="835" y="783"/>
      <point x="848" y="783" type="curve" smooth="yes"/>
      <point x="933" y="783"/>
      <point x="999" y="804"/>
      <point x="1073" y="844" type="curve" smooth="yes"/>
      <point x="1085" y="850"/>
      <point x="1089" y="856"/>
      <point x="1083" y="869" type="curve" smooth="yes"/>
      <point x="1076" y="881"/>
      <point x="1070" y="886"/>
      <point x="1058" y="879" type="curve" smooth="yes"/>
      <point x="994" y="843"/>
      <point x="925" y="816"/>
      <point x="851" y="816" type="curve" smooth="yes"/>
      <point x="713" y="816"/>
      <point x="630" y="890"/>
      <point x="501" y="890" type="curve" smooth="yes"/>
      <point x="368" y="890"/>
      <point x="301" y="809"/>
      <point x="264" y="699" type="curve" smooth="yes"/>
      <point x="260" y="689"/>
      <point x="268" y="684"/>
      <point x="280" y="684" type="curve" smooth="yes"/>
      <point x="294" y="684"/>
      <point x="298" y="689"/>
      <point x="301" y="699" type="curve" smooth="yes"/>
      <point x="334" y="793"/>
      <point x="388" y="856"/>
      <point x="498" y="856" type="curve" smooth="yes"/>
      <point x="596" y="856"/>
      <point x="668" y="806"/>
      <point x="775" y="789" type="curve"/>
      <point x="670" y="466" type="line"/>
      <point x="501" y="466" type="line" smooth="yes"/>
      <point x="494" y="466"/>
      <point x="490" y="461"/>
      <point x="488" y="450" type="curve" smooth="yes"/>
      <point x="485" y="439"/>
      <point x="488" y="431"/>
      <point x="495" y="431" type="curve" smooth="yes"/>
      <point x="659" y="431" type="line"/>
      <point x="630" y="343" type="line" smooth="yes"/>
      <point x="558" y="119"/>
      <point x="449" y="19"/>
      <point x="315" y="19" type="curve" smooth="yes"/>
      <point x="195" y="19"/>
      <point x="123" y="89"/>
      <point x="99" y="263" type="curve"/>
      <point x="178" y="236"/>
      <point x="250" y="226"/>
      <point x="343" y="226" type="curve" smooth="yes"/>
      <point x="354" y="226"/>
      <point x="359" y="230"/>
      <point x="363" y="243" type="curve" smooth="yes"/>
      <point x="366" y="255"/>
      <point x="360" y="261"/>
      <point x="350" y="261" type="curve" smooth="yes"/>
      <point x="256" y="261"/>
      <point x="181" y="271"/>
      <point x="113" y="296" type="curve" smooth="yes"/>
      <point x="106" y="299"/>
      <point x="94" y="304"/>
      <point x="79" y="295" type="curve" smooth="yes"/>
      <point x="64" y="286"/>
      <point x="61" y="273"/>
      <point x="63" y="264" type="curve" smooth="yes"/>
      <point x="85" y="75"/>
      <point x="171" y="-17"/>
    </contour>
  </outline>
</glyph>
<glyph name="G.cur.ini" format="2">
  <advance width="863"/>
  <anchor x="300" y="0" name="bottom"/>
  <anchor x="781" y="0" name="cnct"/>
  <anchor x="619" y="838" name="top"/>
  <outline>
    <contour>
      <point x="409" y="-394" type="curve" smooth="yes"/>
      <point x="510" y="-394"/>
      <point x="590" y="-317"/>
      <point x="641" y="-159" type="curve" smooth="yes"/>
      <point x="824" y="409" type="line" smooth="yes"/>
      <point x="828" y="419"/>
      <point x="823" y="424"/>
      <point x="808" y="424" type="curve" smooth="yes"/>
      <point x="794" y="424"/>
      <point x="788" y="420"/>
      <point x="784" y="408" type="curve"/>
      <point x="674" y="186"/>
      <point x="536" y="50"/>
      <point x="379" y="50" type="curve" smooth="yes"/>
      <point x="246" y="50"/>
      <point x="176" y="146"/>
      <point x="176" y="301" type="curve" smooth="yes"/>
      <point x="176" y="593"/>
      <point x="394" y="853"/>
      <point x="638" y="853" type="curve" smooth="yes"/>
      <point x="725" y="853"/>
      <point x="794" y="826"/>
      <point x="841" y="775" type="curve" smooth="yes"/>
      <point x="858" y="758"/>
      <point x="865" y="755"/>
      <point x="876" y="765" type="curve" smooth="yes"/>
      <point x="886" y="774"/>
      <point x="888" y="780"/>
      <point x="881" y="789" type="curve" smooth="yes"/>
      <point x="833" y="854"/>
      <point x="746" y="890"/>
      <point x="640" y="890" type="curve" smooth="yes"/>
      <point x="370" y="890"/>
      <point x="135" y="615"/>
      <point x="135" y="300" type="curve" smooth="yes"/>
      <point x="135" y="124"/>
      <point x="220" y="13"/>
      <point x="376" y="13" type="curve" smooth="yes"/>
      <point x="521" y="13"/>
      <point x="638" y="105"/>
      <point x="739" y="269" type="curve"/>
      <point x="603" y="-157" type="line" smooth="yes"/>
      <point x="560" y="-291"/>
      <point x="493" y="-359"/>
      <point x="414" y="-359" type="curve" smooth="yes"/>
      <point x="364" y="-359"/>
      <point x="334" y="-336"/>
      <point x="334" y="-296" type="curve" smooth="yes"/>
      <point x="334" y="-271"/>
      <point x="294" y="-274"/>
      <point x="294" y="-299" type="curve" smooth="yes"/>
      <point x="294" y="-359"/>
      <point x="336" y="-394"/>
    </contour>
  </outline>
</glyph>
<glyph name="G.cur_ro" format="2">
  <advance width="745"/>
  <anchor x="292" y="0" name="bottom"/>
  <anchor x="556" y="875" name="top"/>
  <outline>
    <contour>
      <point x="298" y="-20" type="curve" smooth="yes"/>
      <point x="467" y="-20"/>
      <point x="589" y="131"/>
      <point x="696" y="458" type="curve" smooth="yes"/>
      <point x="700" y="470"/>
      <point x="694" y="476"/>
      <point x="678" y="476" type="curve" smooth="yes"/>
      <point x="673" y="476"/>
      <point x="669" y="475"/>
      <point x="660" y="470" type="curve" smooth="yes"/>
      <point x="627" y="452"/>
      <point x="531" y="391"/>
      <point x="412" y="391" type="curve" smooth="yes"/>
      <point x="302" y="391"/>
      <point x="266" y="443"/>
      <point x="266" y="524" type="curve" smooth="yes"/>
      <point x="266" y="712"/>
      <point x="458" y="856"/>
      <point x="576" y="856" type="curve" smooth="yes"/>
      <point x="626" y="856"/>
      <point x="655" y="830"/>
      <point x="655" y="783" type="curve" smooth="yes"/>
      <point x="655" y="680"/>
      <point x="502" y="544"/>
      <point x="361" y="544" type="curve" smooth="yes"/>
      <point x="231" y="544"/>
      <point x="200" y="659"/>
      <point x="260" y="849" type="curve" smooth="yes"/>
      <point x="264" y="862"/>
      <point x="265" y="871"/>
      <point x="246" y="871" type="curve" smooth="yes"/>
      <point x="235" y="871"/>
      <point x="230" y="868"/>
      <point x="227" y="859" type="curve" smooth="yes"/>
      <point x="160" y="663"/>
      <point x="190" y="508"/>
      <point x="357" y="508" type="curve" smooth="yes"/>
      <point x="521" y="508"/>
      <point x="696" y="656"/>
      <point x="696" y="790" type="curve" smooth="yes"/>
      <point x="696" y="858"/>
      <point x="655" y="893"/>
      <point x="588" y="893" type="curve" smooth="yes"/>
      <point x="446" y="893"/>
      <point x="228" y="737"/>
      <point x="228" y="524" type="curve" smooth="yes"/>
      <point x="228" y="413"/>
      <point x="288" y="355"/>
      <point x="405" y="355" type="curve" smooth="yes"/>
      <point x="477" y="355"/>
      <point x="565" y="377"/>
      <point x="646" y="426" type="curve"/>
      <point x="545" y="142"/>
      <point x="444" y="17"/>
      <point x="299" y="17" type="curve" smooth="yes"/>
      <point x="215" y="17"/>
      <point x="173" y="67"/>
      <point x="167" y="147" type="curve" smooth="yes"/>
      <point x="166" y="156"/>
      <point x="163" y="163"/>
      <point x="148" y="162" type="curve" smooth="yes"/>
      <point x="134" y="161"/>
      <point x="129" y="156"/>
      <point x="131" y="133" type="curve" smooth="yes"/>
      <point x="140" y="42"/>
      <point x="196" y="-20"/>
    </contour>
  </outline>
</glyph>
<glyph name="G.dec" format="2">
  <advance width="1029"/>
  <anchor x="459" y="0" name="bottom"/>
  <anchor x="693" y="838" name="top"/>
  <outline>
    <contour>
      <point x="24" y="-12" type="curve" smooth="yes"/>
      <point x="325" y="-12"/>
      <point x="585" y="531"/>
      <point x="585" y="763" type="curve" smooth="yes"/>
      <point x="585" y="839"/>
      <point x="553" y="890"/>
      <point x="490" y="890" type="curve" smooth="yes"/>
      <point x="408" y="890"/>
      <point x="368" y="819"/>
      <point x="368" y="729" type="curve" smooth="yes"/>
      <point x="368" y="628"/>
      <point x="449" y="529"/>
      <point x="576" y="529" type="curve" smooth="yes"/>
      <point x="721" y="529"/>
      <point x="839" y="604"/>
      <point x="979" y="799" type="curve"/>
      <point x="959" y="795" type="line"/>
      <point x="945" y="704"/>
      <point x="929" y="593"/>
      <point x="901" y="483" type="curve" smooth="yes"/>
      <point x="844" y="249"/>
      <point x="743" y="25"/>
      <point x="535" y="25" type="curve" smooth="yes"/>
      <point x="351" y="25"/>
      <point x="201" y="196"/>
      <point x="179" y="435" type="curve"/>
      <point x="170" y="426" type="line"/>
      <point x="446" y="271"/>
      <point x="669" y="226"/>
      <point x="975" y="226" type="curve" smooth="yes"/>
      <point x="984" y="226"/>
      <point x="990" y="230"/>
      <point x="994" y="244" type="curve" smooth="yes"/>
      <point x="998" y="256"/>
      <point x="991" y="261"/>
      <point x="984" y="261" type="curve" smooth="yes"/>
      <point x="680" y="261"/>
      <point x="464" y="306"/>
      <point x="195" y="454" type="curve" smooth="yes"/>
      <point x="186" y="459"/>
      <point x="174" y="465"/>
      <point x="156" y="453" type="curve" smooth="yes"/>
      <point x="139" y="440"/>
      <point x="143" y="424"/>
      <point x="144" y="413" type="curve" smooth="yes"/>
      <point x="170" y="178"/>
      <point x="331" y="-12"/>
      <point x="533" y="-12" type="curve" smooth="yes"/>
      <point x="769" y="-12"/>
      <point x="881" y="230"/>
      <point x="940" y="476" type="curve" smooth="yes"/>
      <point x="968" y="589"/>
      <point x="984" y="703"/>
      <point x="996" y="795" type="curve" smooth="yes"/>
      <point x="998" y="806"/>
      <point x="999" y="818"/>
      <point x="979" y="825" type="curve" smooth="yes"/>
      <point x="961" y="831"/>
      <point x="951" y="824"/>
      <point x="945" y="815" type="curve" smooth="yes"/>
      <point x="829" y="644"/>
      <point x="705" y="564"/>
      <point x="581" y="564" type="curve" smooth="yes"/>
      <point x="469" y="564"/>
      <point x="409" y="649"/>
      <point x="409" y="730" type="curve" smooth="yes"/>
      <point x="409" y="803"/>
      <point x="435" y="855"/>
      <point x="486" y="855" type="curve" smooth="yes"/>
      <point x="525" y="855"/>
      <point x="544" y="823"/>
      <point x="544" y="761" type="curve" smooth="yes"/>
      <point x="544" y="529"/>
      <point x="288" y="25"/>
      <point x="29" y="25" type="curve" smooth="yes"/>
      <point x="18" y="25"/>
      <point x="13" y="21"/>
      <point x="9" y="8" type="curve" smooth="yes"/>
      <point x="5" y="-6"/>
      <point x="10" y="-12"/>
    </contour>
  </outline>
</glyph>
<glyph name="H.cur" format="2">
  <advance width="1028"/>
  <anchor x="445" y="0" name="bottom"/>
  <anchor x="666" y="676" name="center"/>
  <anchor x="700" y="838" name="top"/>
  <outline>
    <contour>
      <point x="156" y="-17" type="curve" smooth="yes"/>
      <point x="231" y="-17"/>
      <point x="268" y="38"/>
      <point x="300" y="136" type="curve" smooth="yes"/>
      <point x="363" y="328" type="line"/>
      <point x="493" y="384"/>
      <point x="648" y="446"/>
      <point x="779" y="499" type="curve"/>
      <point x="666" y="156" type="line" smooth="yes"/>
      <point x="639" y="74"/>
      <point x="640" y="-17"/>
      <point x="758" y="-17" type="curve" smooth="yes"/>
      <point x="848" y="-17"/>
      <point x="896" y="44"/>
      <point x="924" y="96" type="curve" smooth="yes"/>
      <point x="929" y="106"/>
      <point x="929" y="115"/>
      <point x="918" y="120" type="curve" smooth="yes"/>
      <point x="905" y="126"/>
      <point x="896" y="119"/>
      <point x="893" y="111" type="curve" smooth="yes"/>
      <point x="875" y="75"/>
      <point x="829" y="19"/>
      <point x="764" y="19" type="curve" smooth="yes"/>
      <point x="671" y="19"/>
      <point x="680" y="79"/>
      <point x="706" y="158" type="curve" smooth="yes"/>
      <point x="824" y="516" type="line"/>
      <point x="999" y="586"/>
      <point x="1081" y="671"/>
      <point x="1081" y="788" type="curve" smooth="yes"/>
      <point x="1081" y="839"/>
      <point x="1051" y="890"/>
      <point x="1000" y="890" type="curve" smooth="yes"/>
      <point x="925" y="890"/>
      <point x="889" y="834"/>
      <point x="856" y="736" type="curve" smooth="yes"/>
      <point x="794" y="545" type="line"/>
      <point x="654" y="484"/>
      <point x="505" y="426"/>
      <point x="376" y="374" type="curve"/>
      <point x="501" y="758" type="line" smooth="yes"/>
      <point x="528" y="838"/>
      <point x="491" y="890"/>
      <point x="419" y="890" type="curve" smooth="yes"/>
      <point x="355" y="890"/>
      <point x="300" y="859"/>
      <point x="245" y="806" type="curve" smooth="yes"/>
      <point x="235" y="796"/>
      <point x="233" y="790"/>
      <point x="243" y="780" type="curve" smooth="yes"/>
      <point x="254" y="769"/>
      <point x="260" y="770"/>
      <point x="270" y="780" type="curve" smooth="yes"/>
      <point x="320" y="829"/>
      <point x="365" y="856"/>
      <point x="418" y="856" type="curve" smooth="yes"/>
      <point x="465" y="856"/>
      <point x="484" y="820"/>
      <point x="468" y="769" type="curve" smooth="yes"/>
      <point x="333" y="356" type="line"/>
      <point x="158" y="286"/>
      <point x="75" y="201"/>
      <point x="75" y="85" type="curve" smooth="yes"/>
      <point x="75" y="34"/>
      <point x="105" y="-17"/>
    </contour>
    <contour>
      <point x="164" y="20" type="curve" smooth="yes"/>
      <point x="131" y="20"/>
      <point x="115" y="48"/>
      <point x="115" y="86" type="curve" smooth="yes"/>
      <point x="115" y="191"/>
      <point x="181" y="255"/>
      <point x="319" y="313" type="curve"/>
      <point x="265" y="150" type="line" smooth="yes"/>
      <point x="235" y="58"/>
      <point x="208" y="20"/>
    </contour>
    <contour>
      <point x="838" y="560" type="curve"/>
      <point x="891" y="723" type="line" smooth="yes"/>
      <point x="921" y="814"/>
      <point x="949" y="853"/>
      <point x="993" y="853" type="curve" smooth="yes"/>
      <point x="1025" y="853"/>
      <point x="1041" y="825"/>
      <point x="1041" y="786" type="curve" smooth="yes"/>
      <point x="1041" y="681"/>
      <point x="975" y="618"/>
    </contour>
  </outline>
</glyph>
<glyph name="H.cur.ini" format="2">
  <advance width="931"/>
  <anchor x="450" y="0" name="bottom"/>
  <anchor x="666" y="656" name="center"/>
  <anchor x="850" y="0" name="cnct"/>
  <anchor x="705" y="838" name="top"/>
  <outline>
    <contour>
      <point x="161" y="-17" type="curve" smooth="yes"/>
      <point x="236" y="-17"/>
      <point x="273" y="38"/>
      <point x="305" y="136" type="curve" smooth="yes"/>
      <point x="368" y="328" type="line"/>
      <point x="498" y="384"/>
      <point x="653" y="446"/>
      <point x="784" y="499" type="curve"/>
      <point x="678" y="174" type="line" smooth="yes"/>
      <point x="644" y="73"/>
      <point x="683" y="-17"/>
      <point x="796" y="-17" type="curve" smooth="yes"/>
      <point x="819" y="-17"/>
      <point x="826" y="18"/>
      <point x="808" y="18" type="curve" smooth="yes"/>
      <point x="704" y="18"/>
      <point x="693" y="100"/>
      <point x="714" y="165" type="curve" smooth="yes"/>
      <point x="829" y="516" type="line"/>
      <point x="1004" y="586"/>
      <point x="1086" y="671"/>
      <point x="1086" y="788" type="curve" smooth="yes"/>
      <point x="1086" y="839"/>
      <point x="1056" y="890"/>
      <point x="1005" y="890" type="curve" smooth="yes"/>
      <point x="930" y="890"/>
      <point x="893" y="834"/>
      <point x="861" y="736" type="curve" smooth="yes"/>
      <point x="799" y="545" type="line"/>
      <point x="659" y="484"/>
      <point x="510" y="426"/>
      <point x="381" y="374" type="curve"/>
      <point x="506" y="758" type="line" smooth="yes"/>
      <point x="533" y="838"/>
      <point x="496" y="890"/>
      <point x="424" y="890" type="curve" smooth="yes"/>
      <point x="360" y="890"/>
      <point x="305" y="859"/>
      <point x="250" y="806" type="curve" smooth="yes"/>
      <point x="240" y="796"/>
      <point x="238" y="790"/>
      <point x="248" y="780" type="curve" smooth="yes"/>
      <point x="259" y="769"/>
      <point x="265" y="770"/>
      <point x="275" y="780" type="curve" smooth="yes"/>
      <point x="325" y="829"/>
      <point x="370" y="856"/>
      <point x="423" y="856" type="curve" smooth="yes"/>
      <point x="470" y="856"/>
      <point x="489" y="820"/>
      <point x="473" y="769" type="curve" smooth="yes"/>
      <point x="338" y="356" type="line"/>
      <point x="163" y="286"/>
      <point x="80" y="201"/>
      <point x="80" y="85" type="curve" smooth="yes"/>
      <point x="80" y="34"/>
      <point x="110" y="-17"/>
    </contour>
    <contour>
      <point x="169" y="20" type="curve" smooth="yes"/>
      <point x="136" y="20"/>
      <point x="120" y="48"/>
      <point x="120" y="86" type="curve" smooth="yes"/>
      <point x="120" y="191"/>
      <point x="186" y="255"/>
      <point x="324" y="313" type="curve"/>
      <point x="270" y="150" type="line" smooth="yes"/>
      <point x="240" y="58"/>
      <point x="213" y="20"/>
    </contour>
    <contour>
      <point x="843" y="560" type="curve"/>
      <point x="896" y="723" type="line" smooth="yes"/>
      <point x="926" y="814"/>
      <point x="954" y="853"/>
      <point x="998" y="853" type="curve" smooth="yes"/>
      <point x="1030" y="853"/>
      <point x="1046" y="825"/>
      <point x="1046" y="786" type="curve" smooth="yes"/>
      <point x="1046" y="681"/>
      <point x="980" y="618"/>
    </contour>
  </outline>
</glyph>
<glyph name="H.dec" format="2">
  <advance width="1086"/>
  <anchor x="520" y="0" name="bottom"/>
  <anchor x="741" y="676" name="center"/>
  <anchor x="775" y="838" name="top"/>
  <outline>
    <contour>
      <point x="270" y="-14" type="curve" smooth="yes"/>
      <point x="284" y="-14"/>
      <point x="289" y="-9"/>
      <point x="293" y="1" type="curve" smooth="yes"/>
      <point x="575" y="869" type="line" smooth="yes"/>
      <point x="579" y="880"/>
      <point x="574" y="888"/>
      <point x="561" y="888" type="curve" smooth="yes"/>
      <point x="551" y="888"/>
      <point x="548" y="884"/>
      <point x="538" y="876" type="curve" smooth="yes"/>
      <point x="519" y="861"/>
      <point x="496" y="846"/>
      <point x="464" y="846" type="curve" smooth="yes"/>
      <point x="421" y="846"/>
      <point x="388" y="870"/>
      <point x="335" y="870" type="curve" smooth="yes"/>
      <point x="270" y="870"/>
      <point x="223" y="828"/>
      <point x="201" y="760" type="curve" smooth="yes"/>
      <point x="199" y="751"/>
      <point x="204" y="744"/>
      <point x="218" y="744" type="curve" smooth="yes"/>
      <point x="231" y="744"/>
      <point x="236" y="750"/>
      <point x="239" y="759" type="curve" smooth="yes"/>
      <point x="255" y="810"/>
      <point x="293" y="836"/>
      <point x="334" y="836" type="curve" smooth="yes"/>
      <point x="374" y="836"/>
      <point x="406" y="813"/>
      <point x="456" y="813" type="curve" smooth="yes"/>
      <point x="488" y="813"/>
      <point x="508" y="821"/>
      <point x="526" y="835" type="curve"/>
      <point x="255" y="1" type="line" smooth="yes"/>
      <point x="251" y="-9"/>
      <point x="258" y="-14"/>
    </contour>
    <contour>
      <point x="806" y="146" type="curve"/>
      <point x="839" y="154" type="line"/>
      <point x="936" y="468"/>
      <point x="733" y="521"/>
      <point x="608" y="521" type="curve" smooth="yes"/>
      <point x="495" y="521"/>
      <point x="389" y="465"/>
      <point x="389" y="365" type="curve" smooth="yes"/>
      <point x="389" y="288"/>
      <point x="459" y="231"/>
      <point x="585" y="231" type="curve" smooth="yes"/>
      <point x="728" y="231"/>
      <point x="876" y="283"/>
      <point x="1075" y="423" type="curve" smooth="yes"/>
      <point x="1088" y="431"/>
      <point x="1085" y="440"/>
      <point x="1078" y="450" type="curve" smooth="yes"/>
      <point x="1070" y="460"/>
      <point x="1064" y="461"/>
      <point x="1051" y="451" type="curve" smooth="yes"/>
      <point x="876" y="321"/>
      <point x="739" y="269"/>
      <point x="589" y="269" type="curve" smooth="yes"/>
      <point x="485" y="269"/>
      <point x="421" y="309"/>
      <point x="421" y="369" type="curve" smooth="yes"/>
      <point x="421" y="448"/>
      <point x="515" y="484"/>
      <point x="606" y="484" type="curve" smooth="yes"/>
      <point x="720" y="484"/>
      <point x="901" y="440"/>
    </contour>
    <contour>
      <point x="774" y="-14" type="curve" smooth="yes"/>
      <point x="786" y="-14"/>
      <point x="793" y="-9"/>
      <point x="796" y="1" type="curve" smooth="yes"/>
      <point x="1074" y="860" type="line" smooth="yes"/>
      <point x="1078" y="870"/>
      <point x="1073" y="875"/>
      <point x="1060" y="875" type="curve" smooth="yes"/>
      <point x="1046" y="875"/>
      <point x="1040" y="871"/>
      <point x="1036" y="860" type="curve" smooth="yes"/>
      <point x="759" y="1" type="line" smooth="yes"/>
      <point x="755" y="-10"/>
      <point x="760" y="-14"/>
    </contour>
  </outline>
</glyph>
<glyph name="I.cur" format="2">
  <advance width="905"/>
  <anchor x="574" y="0" name="bottom"/>
  <anchor x="678" y="-6" name="ogonek"/>
  <anchor x="751" y="838" name="top"/>
  <outline>
    <contour>
      <point x="921" y="698" type="curve" smooth="yes"/>
      <point x="921" y="826"/>
      <point x="873" y="891"/>
      <point x="783" y="891" type="curve" smooth="yes"/>
      <point x="625" y="891"/>
      <point x="521" y="650"/>
      <point x="521" y="440" type="curve" smooth="yes"/>
      <point x="521" y="338"/>
      <point x="548" y="229"/>
      <point x="593" y="125" type="curve"/>
      <point x="510" y="59"/>
      <point x="420" y="20"/>
      <point x="338" y="20" type="curve" smooth="yes"/>
      <point x="220" y="20"/>
      <point x="149" y="89"/>
      <point x="124" y="263" type="curve"/>
      <point x="201" y="236"/>
      <point x="263" y="226"/>
      <point x="348" y="226" type="curve" smooth="yes"/>
      <point x="359" y="226"/>
      <point x="365" y="231"/>
      <point x="368" y="244" type="curve" smooth="yes"/>
      <point x="370" y="256"/>
      <point x="365" y="261"/>
      <point x="355" y="261" type="curve" smooth="yes"/>
      <point x="269" y="261"/>
      <point x="206" y="271"/>
      <point x="138" y="296" type="curve" smooth="yes"/>
      <point x="131" y="299"/>
      <point x="119" y="304"/>
      <point x="104" y="295" type="curve" smooth="yes"/>
      <point x="89" y="286"/>
      <point x="86" y="273"/>
      <point x="88" y="264" type="curve" smooth="yes"/>
      <point x="110" y="75"/>
      <point x="189" y="-17"/>
      <point x="335" y="-17" type="curve" smooth="yes"/>
      <point x="425" y="-17"/>
      <point x="520" y="24"/>
      <point x="608" y="90" type="curve"/>
      <point x="623" y="58"/>
      <point x="640" y="24"/>
      <point x="659" y="-9" type="curve" smooth="yes"/>
      <point x="664" y="-19"/>
      <point x="674" y="-21"/>
      <point x="688" y="-11" type="curve" smooth="yes"/>
      <point x="701" y="-1"/>
      <point x="704" y="4"/>
      <point x="696" y="15" type="curve" smooth="yes"/>
      <point x="675" y="48"/>
      <point x="655" y="81"/>
      <point x="639" y="116" type="curve"/>
      <point x="798" y="254"/>
      <point x="921" y="478"/>
    </contour>
    <contour>
      <point x="563" y="440" type="curve" smooth="yes"/>
      <point x="563" y="633"/>
      <point x="655" y="853"/>
      <point x="780" y="853" type="curve" smooth="yes"/>
      <point x="844" y="853"/>
      <point x="880" y="800"/>
      <point x="880" y="695" type="curve" smooth="yes"/>
      <point x="880" y="486"/>
      <point x="766" y="280"/>
      <point x="623" y="151" type="curve"/>
      <point x="584" y="245"/>
      <point x="563" y="344"/>
    </contour>
  </outline>
</glyph>
<glyph name="I.dec" format="2">
  <advance width="539"/>
  <anchor x="176" y="0" name="bottom"/>
  <anchor x="243" y="-5" name="ogonek"/>
  <anchor x="428" y="838" name="top"/>
  <outline>
    <contour>
      <point x="173" y="-17" type="curve" smooth="yes"/>
      <point x="268" y="-17"/>
      <point x="334" y="43"/>
      <point x="369" y="151" type="curve" smooth="yes"/>
      <point x="603" y="869" type="line" smooth="yes"/>
      <point x="606" y="880"/>
      <point x="601" y="888"/>
      <point x="589" y="888" type="curve" smooth="yes"/>
      <point x="579" y="888"/>
      <point x="575" y="884"/>
      <point x="565" y="876" type="curve" smooth="yes"/>
      <point x="546" y="861"/>
      <point x="521" y="846"/>
      <point x="489" y="846" type="curve" smooth="yes"/>
      <point x="446" y="846"/>
      <point x="410" y="870"/>
      <point x="358" y="870" type="curve" smooth="yes"/>
      <point x="293" y="870"/>
      <point x="245" y="828"/>
      <point x="224" y="760" type="curve" smooth="yes"/>
      <point x="221" y="751"/>
      <point x="226" y="744"/>
      <point x="240" y="744" type="curve" smooth="yes"/>
      <point x="254" y="744"/>
      <point x="259" y="750"/>
      <point x="261" y="759" type="curve" smooth="yes"/>
      <point x="278" y="810"/>
      <point x="315" y="836"/>
      <point x="356" y="836" type="curve" smooth="yes"/>
      <point x="396" y="836"/>
      <point x="431" y="813"/>
      <point x="481" y="813" type="curve" smooth="yes"/>
      <point x="513" y="813"/>
      <point x="535" y="821"/>
      <point x="554" y="835" type="curve"/>
      <point x="334" y="163" type="line" smooth="yes"/>
      <point x="304" y="70"/>
      <point x="248" y="19"/>
      <point x="175" y="19" type="curve" smooth="yes"/>
      <point x="114" y="19"/>
      <point x="76" y="41"/>
      <point x="50" y="85" type="curve" smooth="yes"/>
      <point x="46" y="93"/>
      <point x="40" y="95"/>
      <point x="28" y="88" type="curve" smooth="yes"/>
      <point x="15" y="80"/>
      <point x="14" y="71"/>
      <point x="18" y="65" type="curve" smooth="yes"/>
      <point x="49" y="11"/>
      <point x="98" y="-17"/>
    </contour>
  </outline>
</glyph>
<glyph name="J.cur.ini" format="2">
  <advance width="638"/>
  <anchor x="160" y="-406" name="bottom"/>
  <anchor x="556" y="0" name="cnct"/>
  <anchor x="524" y="838" name="top"/>
  <outline>
    <contour>
      <point x="185" y="-394" type="curve" smooth="yes"/>
      <point x="286" y="-394"/>
      <point x="366" y="-317"/>
      <point x="418" y="-159" type="curve" smooth="yes"/>
      <point x="654" y="568" type="line" smooth="yes"/>
      <point x="718" y="763"/>
      <point x="695" y="890"/>
      <point x="548" y="890" type="curve" smooth="yes"/>
      <point x="356" y="890"/>
      <point x="191" y="668"/>
      <point x="191" y="454" type="curve" smooth="yes"/>
      <point x="191" y="323"/>
      <point x="230" y="229"/>
      <point x="330" y="138" type="curve" smooth="yes"/>
      <point x="338" y="130"/>
      <point x="345" y="130"/>
      <point x="356" y="140" type="curve" smooth="yes"/>
      <point x="366" y="153"/>
      <point x="366" y="159"/>
      <point x="358" y="168" type="curve" smooth="yes"/>
      <point x="265" y="250"/>
      <point x="233" y="333"/>
      <point x="233" y="456" type="curve" smooth="yes"/>
      <point x="233" y="646"/>
      <point x="381" y="853"/>
      <point x="545" y="853" type="curve" smooth="yes"/>
      <point x="659" y="853"/>
      <point x="674" y="748"/>
      <point x="619" y="579" type="curve" smooth="yes"/>
      <point x="379" y="-157" type="line" smooth="yes"/>
      <point x="335" y="-291"/>
      <point x="269" y="-359"/>
      <point x="190" y="-359" type="curve" smooth="yes"/>
      <point x="140" y="-359"/>
      <point x="110" y="-336"/>
      <point x="110" y="-296" type="curve" smooth="yes"/>
      <point x="110" y="-271"/>
      <point x="70" y="-274"/>
      <point x="70" y="-299" type="curve" smooth="yes"/>
      <point x="70" y="-359"/>
      <point x="113" y="-394"/>
    </contour>
  </outline>
</glyph>
<glyph name="J.dec" format="2">
  <advance width="518"/>
  <anchor x="15" y="-406" name="bottom"/>
  <anchor x="463" y="838" name="top"/>
  <outline>
    <contour>
      <point x="23" y="-394" type="curve" smooth="yes"/>
      <point x="119" y="-394"/>
      <point x="189" y="-317"/>
      <point x="241" y="-159" type="curve" smooth="yes"/>
      <point x="578" y="869" type="line" smooth="yes"/>
      <point x="581" y="880"/>
      <point x="576" y="888"/>
      <point x="564" y="888" type="curve" smooth="yes"/>
      <point x="554" y="888"/>
      <point x="550" y="884"/>
      <point x="540" y="876" type="curve" smooth="yes"/>
      <point x="521" y="861"/>
      <point x="496" y="846"/>
      <point x="464" y="846" type="curve" smooth="yes"/>
      <point x="421" y="846"/>
      <point x="385" y="870"/>
      <point x="333" y="870" type="curve" smooth="yes"/>
      <point x="268" y="870"/>
      <point x="220" y="828"/>
      <point x="199" y="760" type="curve" smooth="yes"/>
      <point x="196" y="751"/>
      <point x="201" y="744"/>
      <point x="215" y="744" type="curve" smooth="yes"/>
      <point x="229" y="744"/>
      <point x="234" y="750"/>
      <point x="236" y="759" type="curve" smooth="yes"/>
      <point x="253" y="810"/>
      <point x="290" y="836"/>
      <point x="331" y="836" type="curve" smooth="yes"/>
      <point x="371" y="836"/>
      <point x="406" y="813"/>
      <point x="456" y="813" type="curve" smooth="yes"/>
      <point x="488" y="813"/>
      <point x="510" y="821"/>
      <point x="529" y="835" type="curve"/>
      <point x="204" y="-156" type="line" smooth="yes"/>
      <point x="160" y="-291"/>
      <point x="101" y="-359"/>
      <point x="28" y="-359" type="curve" smooth="yes"/>
      <point x="-15" y="-359"/>
      <point x="-40" y="-336"/>
      <point x="-40" y="-296" type="curve" smooth="yes"/>
      <point x="-40" y="-210"/>
      <point x="46" y="-151"/>
      <point x="124" y="-95" type="curve" smooth="yes"/>
      <point x="268" y="3"/>
      <point x="396" y="84"/>
      <point x="506" y="146" type="curve" smooth="yes"/>
      <point x="518" y="153"/>
      <point x="518" y="159"/>
      <point x="513" y="170" type="curve" smooth="yes"/>
      <point x="506" y="181"/>
      <point x="500" y="181"/>
      <point x="489" y="175" type="curve" smooth="yes"/>
      <point x="373" y="106"/>
      <point x="250" y="29"/>
      <point x="126" y="-52" type="curve" smooth="yes"/>
      <point x="44" y="-111"/>
      <point x="-80" y="-192"/>
      <point x="-80" y="-299" type="curve" smooth="yes"/>
      <point x="-80" y="-359"/>
      <point x="-42" y="-394"/>
    </contour>
  </outline>
</glyph>
<glyph name="K.cur.ini" format="2">
  <advance width="824"/>
  <anchor x="444" y="0" name="bottom"/>
  <anchor x="743" y="0" name="cnct"/>
  <anchor x="718" y="838" name="top"/>
  <outline>
    <contour>
      <point x="693" y="-17" type="curve" smooth="yes"/>
      <point x="713" y="-17"/>
      <point x="721" y="18"/>
      <point x="700" y="18" type="curve" smooth="yes"/>
      <point x="620" y="18"/>
      <point x="584" y="63"/>
      <point x="519" y="230" type="curve" smooth="yes"/>
      <point x="436" y="443" type="line"/>
      <point x="950" y="850" type="line" smooth="yes"/>
      <point x="958" y="856"/>
      <point x="958" y="863"/>
      <point x="951" y="873" type="curve" smooth="yes"/>
      <point x="945" y="883"/>
      <point x="935" y="884"/>
      <point x="925" y="875" type="curve" smooth="yes"/>
      <point x="398" y="455" type="line"/>
      <point x="496" y="758" type="line" smooth="yes"/>
      <point x="523" y="838"/>
      <point x="486" y="890"/>
      <point x="414" y="890" type="curve" smooth="yes"/>
      <point x="350" y="890"/>
      <point x="295" y="859"/>
      <point x="240" y="806" type="curve" smooth="yes"/>
      <point x="230" y="796"/>
      <point x="228" y="790"/>
      <point x="238" y="780" type="curve" smooth="yes"/>
      <point x="249" y="769"/>
      <point x="255" y="770"/>
      <point x="265" y="780" type="curve" smooth="yes"/>
      <point x="315" y="829"/>
      <point x="360" y="856"/>
      <point x="413" y="856" type="curve" smooth="yes"/>
      <point x="460" y="856"/>
      <point x="479" y="820"/>
      <point x="463" y="769" type="curve" smooth="yes"/>
      <point x="260" y="151" type="line" smooth="yes"/>
      <point x="230" y="61"/>
      <point x="191" y="18"/>
      <point x="135" y="18" type="curve" smooth="yes"/>
      <point x="84" y="18"/>
      <point x="54" y="38"/>
      <point x="35" y="84" type="curve" smooth="yes"/>
      <point x="31" y="91"/>
      <point x="23" y="94"/>
      <point x="14" y="88" type="curve"/>
      <point x="5" y="84"/>
      <point x="1" y="76"/>
      <point x="4" y="69" type="curve" smooth="yes"/>
      <point x="28" y="11"/>
      <point x="70" y="-17"/>
      <point x="131" y="-17" type="curve" smooth="yes"/>
      <point x="210" y="-17"/>
      <point x="261" y="36"/>
      <point x="296" y="143" type="curve" smooth="yes"/>
      <point x="395" y="446" type="line"/>
      <point x="490" y="205" type="line" smooth="yes"/>
      <point x="556" y="35"/>
      <point x="600" y="-17"/>
    </contour>
  </outline>
</glyph>
<glyph name="K.dec" format="2">
  <advance width="1014"/>
  <anchor x="488" y="0" name="bottom"/>
  <anchor x="736" y="838" name="top"/>
  <outline>
    <contour>
      <point x="785" y="-17" type="curve" smooth="yes"/>
      <point x="843" y="-17"/>
      <point x="891" y="6"/>
      <point x="935" y="48" type="curve"/>
      <point x="943" y="56"/>
      <point x="944" y="65"/>
      <point x="935" y="73" type="curve" smooth="yes"/>
      <point x="925" y="81"/>
      <point x="915" y="76"/>
      <point x="909" y="70" type="curve" smooth="yes"/>
      <point x="876" y="40"/>
      <point x="831" y="18"/>
      <point x="790" y="18" type="curve" smooth="yes"/>
      <point x="598" y="18"/>
      <point x="800" y="383"/>
      <point x="580" y="446" type="curve"/>
      <point x="833" y="505"/>
      <point x="836" y="855"/>
      <point x="1003" y="855" type="curve" smooth="yes"/>
      <point x="1033" y="855"/>
      <point x="1058" y="845"/>
      <point x="1083" y="826" type="curve" smooth="yes"/>
      <point x="1093" y="819"/>
      <point x="1100" y="820"/>
      <point x="1109" y="831" type="curve" smooth="yes"/>
      <point x="1119" y="845"/>
      <point x="1118" y="851"/>
      <point x="1108" y="859" type="curve" smooth="yes"/>
      <point x="1079" y="880"/>
      <point x="1043" y="890"/>
      <point x="1005" y="890" type="curve" smooth="yes"/>
      <point x="780" y="890"/>
      <point x="810" y="465"/>
      <point x="496" y="465" type="curve" smooth="yes"/>
      <point x="444" y="465" type="line"/>
      <point x="575" y="869" type="line" smooth="yes"/>
      <point x="579" y="880"/>
      <point x="574" y="888"/>
      <point x="561" y="888" type="curve" smooth="yes"/>
      <point x="551" y="888"/>
      <point x="548" y="884"/>
      <point x="538" y="876" type="curve" smooth="yes"/>
      <point x="519" y="861"/>
      <point x="496" y="846"/>
      <point x="464" y="846" type="curve" smooth="yes"/>
      <point x="421" y="846"/>
      <point x="388" y="870"/>
      <point x="335" y="870" type="curve" smooth="yes"/>
      <point x="270" y="870"/>
      <point x="223" y="828"/>
      <point x="201" y="760" type="curve" smooth="yes"/>
      <point x="199" y="751"/>
      <point x="204" y="744"/>
      <point x="218" y="744" type="curve" smooth="yes"/>
      <point x="231" y="744"/>
      <point x="236" y="750"/>
      <point x="239" y="759" type="curve" smooth="yes"/>
      <point x="255" y="810"/>
      <point x="293" y="836"/>
      <point x="334" y="836" type="curve" smooth="yes"/>
      <point x="374" y="836"/>
      <point x="406" y="813"/>
      <point x="456" y="813" type="curve" smooth="yes"/>
      <point x="488" y="813"/>
      <point x="508" y="821"/>
      <point x="526" y="835" type="curve"/>
      <point x="255" y="1" type="line" smooth="yes"/>
      <point x="251" y="-9"/>
      <point x="258" y="-14"/>
      <point x="270" y="-14" type="curve" smooth="yes"/>
      <point x="284" y="-14"/>
      <point x="289" y="-9"/>
      <point x="293" y="1" type="curve" smooth="yes"/>
      <point x="433" y="430" type="line"/>
      <point x="496" y="430" type="line" smooth="yes"/>
      <point x="805" y="430"/>
      <point x="523" y="-17"/>
    </contour>
  </outline>
</glyph>
<glyph name="L.cur.ini" format="2">
  <advance width="733"/>
  <anchor x="600" y="463" name="CAT"/>
  <anchor x="356" y="0" name="bottom"/>
  <anchor x="321" y="450" name="center"/>
  <anchor x="651" y="0" name="cnct"/>
  <anchor x="594" y="838" name="top"/>
  <anchor x="789" y="875" name="topright"/>
  <outline>
    <contour>
      <point x="69" y="-21" type="curve" smooth="yes"/>
      <point x="141" y="-21"/>
      <point x="208" y="31"/>
      <point x="250" y="161" type="curve" smooth="yes"/>
      <point x="406" y="644" type="line" smooth="yes"/>
      <point x="471" y="843"/>
      <point x="558" y="856"/>
      <point x="618" y="856" type="curve" smooth="yes"/>
      <point x="699" y="856"/>
      <point x="735" y="824"/>
      <point x="739" y="739" type="curve" smooth="yes"/>
      <point x="740" y="720"/>
      <point x="748" y="719"/>
      <point x="758" y="720" type="curve" smooth="yes"/>
      <point x="770" y="721"/>
      <point x="774" y="729"/>
      <point x="774" y="741" type="curve" smooth="yes"/>
      <point x="774" y="841"/>
      <point x="720" y="890"/>
      <point x="628" y="890" type="curve" smooth="yes"/>
      <point x="543" y="890"/>
      <point x="440" y="863"/>
      <point x="373" y="654" type="curve" smooth="yes"/>
      <point x="213" y="161" type="line" smooth="yes"/>
      <point x="179" y="59"/>
      <point x="119" y="13"/>
      <point x="74" y="13" type="curve" smooth="yes"/>
      <point x="44" y="13"/>
      <point x="24" y="26"/>
      <point x="24" y="51" type="curve" smooth="yes"/>
      <point x="24" y="84"/>
      <point x="45" y="105"/>
      <point x="93" y="105" type="curve" smooth="yes"/>
      <point x="206" y="105"/>
      <point x="400" y="-17"/>
      <point x="596" y="-17" type="curve" smooth="yes"/>
      <point x="625" y="-17"/>
      <point x="630" y="18"/>
      <point x="608" y="18" type="curve" smooth="yes"/>
      <point x="413" y="18"/>
      <point x="228" y="140"/>
      <point x="90" y="140" type="curve" smooth="yes"/>
      <point x="26" y="140"/>
      <point x="-17" y="103"/>
      <point x="-17" y="49" type="curve" smooth="yes"/>
      <point x="-17" y="0"/>
      <point x="20" y="-21"/>
    </contour>
  </outline>
</glyph>
<glyph name="M.cur" format="2">
  <advance width="1326"/>
  <guideline x="558" y="712" angle="262.41"/>
  <guideline x="163"/>
  <anchor x="595" y="0" name="bottom"/>
  <anchor x="866" y="838" name="top"/>
  <outline>
    <contour>
      <point x="1106" y="-17" type="curve" smooth="yes"/>
      <point x="1161" y="-17"/>
      <point x="1206" y="18"/>
      <point x="1248" y="96" type="curve"/>
      <point x="1253" y="108"/>
      <point x="1250" y="115"/>
      <point x="1240" y="120" type="curve" smooth="yes"/>
      <point x="1230" y="125"/>
      <point x="1221" y="121"/>
      <point x="1216" y="111" type="curve" smooth="yes"/>
      <point x="1189" y="54"/>
      <point x="1149" y="19"/>
      <point x="1110" y="19" type="curve" smooth="yes"/>
      <point x="1059" y="19"/>
      <point x="1041" y="66"/>
      <point x="1073" y="158" type="curve" smooth="yes"/>
      <point x="1240" y="655" type="line" smooth="yes"/>
      <point x="1286" y="794"/>
      <point x="1231" y="890"/>
      <point x="1104" y="890" type="curve" smooth="yes"/>
      <point x="1007" y="890"/>
      <point x="918" y="835"/>
      <point x="858" y="740" type="curve"/>
      <point x="858" y="755"/>
      <point x="857" y="769"/>
      <point x="854" y="783" type="curve" smooth="yes"/>
      <point x="841" y="850"/>
      <point x="789" y="890"/>
      <point x="705" y="890" type="curve" smooth="yes"/>
      <point x="616" y="890"/>
      <point x="535" y="844"/>
      <point x="475" y="762" type="curve"/>
      <point x="480" y="779"/>
      <point x="483" y="795"/>
      <point x="483" y="809" type="curve" smooth="yes"/>
      <point x="483" y="860"/>
      <point x="450" y="890"/>
      <point x="391" y="890" type="curve" smooth="yes"/>
      <point x="328" y="890"/>
      <point x="273" y="859"/>
      <point x="218" y="806" type="curve" smooth="yes"/>
      <point x="208" y="796"/>
      <point x="205" y="790"/>
      <point x="215" y="780" type="curve" smooth="yes"/>
      <point x="226" y="769"/>
      <point x="233" y="770"/>
      <point x="243" y="780" type="curve" smooth="yes"/>
      <point x="293" y="829"/>
      <point x="338" y="856"/>
      <point x="390" y="856" type="curve" smooth="yes"/>
      <point x="438" y="856"/>
      <point x="456" y="820"/>
      <point x="440" y="769" type="curve" smooth="yes"/>
      <point x="189" y="1" type="line" smooth="yes"/>
      <point x="185" y="-10"/>
      <point x="191" y="-14"/>
      <point x="204" y="-14" type="curve" smooth="yes"/>
      <point x="219" y="-14"/>
      <point x="223" y="-11"/>
      <point x="226" y="1" type="curve" smooth="yes"/>
      <point x="443" y="662" type="line"/>
      <point x="503" y="782"/>
      <point x="596" y="853"/>
      <point x="700" y="853" type="curve" smooth="yes"/>
      <point x="810" y="853"/>
      <point x="845" y="781"/>
      <point x="801" y="648" type="curve" smooth="yes"/>
      <point x="588" y="1" type="line" smooth="yes"/>
      <point x="584" y="-10"/>
      <point x="590" y="-14"/>
      <point x="603" y="-14" type="curve" smooth="yes"/>
      <point x="618" y="-14"/>
      <point x="621" y="-11"/>
      <point x="625" y="1" type="curve" smooth="yes"/>
      <point x="845" y="666" type="line"/>
      <point x="905" y="784"/>
      <point x="997" y="853"/>
      <point x="1099" y="853" type="curve" smooth="yes"/>
      <point x="1209" y="853"/>
      <point x="1245" y="780"/>
      <point x="1200" y="648" type="curve" smooth="yes"/>
      <point x="1034" y="156" type="line" smooth="yes"/>
      <point x="998" y="50"/>
      <point x="1028" y="-17"/>
    </contour>
  </outline>
</glyph>
<glyph name="M.cur.ini" format="2">
  <advance width="1282"/>
  <anchor x="594" y="0" name="bottom"/>
  <anchor x="1200" y="0" name="cnct"/>
  <anchor x="865" y="838" name="top"/>
  <outline>
    <contour>
      <point x="1147" y="-17" type="curve" smooth="yes"/>
      <point x="1169" y="-17"/>
      <point x="1177" y="18"/>
      <point x="1158" y="18" type="curve" smooth="yes"/>
      <point x="1059" y="18"/>
      <point x="1053" y="100"/>
      <point x="1074" y="165" type="curve" smooth="yes"/>
      <point x="1239" y="655" type="line" smooth="yes"/>
      <point x="1285" y="794"/>
      <point x="1230" y="890"/>
      <point x="1103" y="890" type="curve" smooth="yes"/>
      <point x="993" y="890"/>
      <point x="894" y="820"/>
      <point x="834" y="700" type="curve"/>
      <point x="840" y="659" type="line"/>
      <point x="900" y="781"/>
      <point x="994" y="853"/>
      <point x="1098" y="853" type="curve" smooth="yes"/>
      <point x="1208" y="853"/>
      <point x="1244" y="780"/>
      <point x="1199" y="648" type="curve" smooth="yes"/>
      <point x="1038" y="174" type="line" smooth="yes"/>
      <point x="1003" y="73"/>
      <point x="1038" y="-17"/>
    </contour>
    <contour>
      <point x="203" y="-15" type="curve" smooth="yes"/>
      <point x="215" y="-15"/>
      <point x="222" y="-11"/>
      <point x="225" y="0" type="curve" smooth="yes"/>
      <point x="473" y="758" type="line" smooth="yes"/>
      <point x="499" y="838"/>
      <point x="467" y="890"/>
      <point x="390" y="890" type="curve" smooth="yes"/>
      <point x="327" y="890"/>
      <point x="272" y="859"/>
      <point x="217" y="806" type="curve" smooth="yes"/>
      <point x="207" y="796"/>
      <point x="205" y="789"/>
      <point x="214" y="780" type="curve" smooth="yes"/>
      <point x="225" y="769"/>
      <point x="232" y="770"/>
      <point x="242" y="780" type="curve" smooth="yes"/>
      <point x="292" y="829"/>
      <point x="337" y="856"/>
      <point x="389" y="856" type="curve" smooth="yes"/>
      <point x="437" y="856"/>
      <point x="455" y="820"/>
      <point x="439" y="769" type="curve" smooth="yes"/>
      <point x="188" y="0" type="line" smooth="yes"/>
      <point x="184" y="-10"/>
      <point x="189" y="-15"/>
    </contour>
    <contour>
      <point x="602" y="-15" type="curve" smooth="yes"/>
      <point x="614" y="-15"/>
      <point x="620" y="-11"/>
      <point x="624" y="0" type="curve" smooth="yes"/>
      <point x="840" y="655" type="line" smooth="yes"/>
      <point x="887" y="794"/>
      <point x="832" y="890"/>
      <point x="704" y="890" type="curve" smooth="yes"/>
      <point x="594" y="890"/>
      <point x="497" y="821"/>
      <point x="437" y="700" type="curve"/>
      <point x="442" y="659" type="line"/>
      <point x="502" y="781"/>
      <point x="595" y="853"/>
      <point x="699" y="853" type="curve" smooth="yes"/>
      <point x="809" y="853"/>
      <point x="844" y="781"/>
      <point x="800" y="648" type="curve" smooth="yes"/>
      <point x="587" y="0" type="line" smooth="yes"/>
      <point x="583" y="-10"/>
      <point x="588" y="-15"/>
    </contour>
  </outline>
</glyph>
<glyph name="M.dec.ini" format="2">
  <advance width="1306"/>
  <anchor x="649" y="0" name="bottom"/>
  <anchor x="1225" y="0" name="cnct"/>
  <anchor x="898" y="838" name="top"/>
  <outline>
    <contour>
      <point x="130" y="-17" type="curve" smooth="yes"/>
      <point x="234" y="-17"/>
      <point x="336" y="83"/>
      <point x="684" y="820" type="curve"/>
      <point x="646" y="553"/>
      <point x="633" y="285"/>
      <point x="635" y="5" type="curve" smooth="yes"/>
      <point x="635" y="-10"/>
      <point x="640" y="-17"/>
      <point x="655" y="-17" type="curve" smooth="yes"/>
      <point x="670" y="-17"/>
      <point x="680" y="-9"/>
      <point x="689" y="5" type="curve" smooth="yes"/>
      <point x="1169" y="793" type="line"/>
      <point x="986" y="89"/>
      <point x="1046" y="-17"/>
      <point x="1171" y="-17" type="curve" smooth="yes"/>
      <point x="1191" y="-17"/>
      <point x="1195" y="18"/>
      <point x="1175" y="18" type="curve" smooth="yes"/>
      <point x="1071" y="18"/>
      <point x="1036" y="130"/>
      <point x="1223" y="864" type="curve" smooth="yes"/>
      <point x="1226" y="879"/>
      <point x="1219" y="886"/>
      <point x="1204" y="886" type="curve" smooth="yes"/>
      <point x="1189" y="886"/>
      <point x="1180" y="878"/>
      <point x="1171" y="864" type="curve" smooth="yes"/>
      <point x="671" y="44" type="line"/>
      <point x="670" y="329"/>
      <point x="685" y="593"/>
      <point x="723" y="864" type="curve" smooth="yes"/>
      <point x="725" y="879"/>
      <point x="716" y="886"/>
      <point x="701" y="886" type="curve" smooth="yes"/>
      <point x="686" y="886"/>
      <point x="678" y="878"/>
      <point x="671" y="864" type="curve" smooth="yes"/>
      <point x="316" y="136"/>
      <point x="221" y="20"/>
      <point x="133" y="20" type="curve" smooth="yes"/>
      <point x="88" y="20"/>
      <point x="74" y="54"/>
      <point x="74" y="91" type="curve" smooth="yes"/>
      <point x="74" y="141"/>
      <point x="110" y="194"/>
      <point x="150" y="241" type="curve" smooth="yes"/>
      <point x="159" y="250"/>
      <point x="160" y="256"/>
      <point x="149" y="265" type="curve" smooth="yes"/>
      <point x="138" y="274"/>
      <point x="133" y="273"/>
      <point x="124" y="261" type="curve" smooth="yes"/>
      <point x="76" y="209"/>
      <point x="33" y="150"/>
      <point x="33" y="90" type="curve" smooth="yes"/>
      <point x="33" y="31"/>
      <point x="65" y="-17"/>
    </contour>
  </outline>
</glyph>
<glyph name="N.cur" format="2">
  <advance width="990"/>
  <anchor x="426" y="0" name="bottom"/>
  <anchor x="693" y="838" name="top"/>
  <outline>
    <contour>
      <point x="770" y="-17" type="curve" smooth="yes"/>
      <point x="829" y="-17"/>
      <point x="874" y="18"/>
      <point x="915" y="96" type="curve" smooth="yes"/>
      <point x="921" y="108"/>
      <point x="919" y="115"/>
      <point x="909" y="120" type="curve" smooth="yes"/>
      <point x="899" y="125"/>
      <point x="889" y="121"/>
      <point x="884" y="111" type="curve" smooth="yes"/>
      <point x="856" y="54"/>
      <point x="816" y="19"/>
      <point x="778" y="19" type="curve" smooth="yes"/>
      <point x="721" y="19"/>
      <point x="705" y="65"/>
      <point x="736" y="158" type="curve" smooth="yes"/>
      <point x="904" y="655" type="line" smooth="yes"/>
      <point x="953" y="800"/>
      <point x="890" y="890"/>
      <point x="748" y="890" type="curve" smooth="yes"/>
      <point x="640" y="890"/>
      <point x="541" y="839"/>
      <point x="471" y="750" type="curve"/>
      <point x="474" y="759" type="line" smooth="yes"/>
      <point x="498" y="831"/>
      <point x="474" y="890"/>
      <point x="391" y="890" type="curve" smooth="yes"/>
      <point x="328" y="890"/>
      <point x="273" y="859"/>
      <point x="218" y="806" type="curve" smooth="yes"/>
      <point x="208" y="796"/>
      <point x="205" y="790"/>
      <point x="215" y="780" type="curve" smooth="yes"/>
      <point x="226" y="769"/>
      <point x="233" y="770"/>
      <point x="243" y="780" type="curve" smooth="yes"/>
      <point x="293" y="829"/>
      <point x="338" y="856"/>
      <point x="390" y="856" type="curve" smooth="yes"/>
      <point x="438" y="856"/>
      <point x="456" y="820"/>
      <point x="440" y="769" type="curve" smooth="yes"/>
      <point x="189" y="1" type="line" smooth="yes"/>
      <point x="185" y="-10"/>
      <point x="191" y="-14"/>
      <point x="204" y="-14" type="curve" smooth="yes"/>
      <point x="219" y="-14"/>
      <point x="222" y="-11"/>
      <point x="226" y="1" type="curve" smooth="yes"/>
      <point x="441" y="657" type="line"/>
      <point x="510" y="779"/>
      <point x="625" y="853"/>
      <point x="743" y="853" type="curve" smooth="yes"/>
      <point x="869" y="853"/>
      <point x="911" y="786"/>
      <point x="864" y="648" type="curve" smooth="yes"/>
      <point x="698" y="156" type="line" smooth="yes"/>
      <point x="661" y="49"/>
      <point x="691" y="-17"/>
    </contour>
  </outline>
</glyph>
<glyph name="N.cur.ini" format="2">
  <advance width="946"/>
  <anchor x="426" y="0" name="bottom"/>
  <anchor x="865" y="0" name="cnct"/>
  <anchor x="693" y="838" name="top"/>
  <outline>
    <contour>
      <point x="811" y="-17" type="curve" smooth="yes"/>
      <point x="834" y="-17"/>
      <point x="841" y="18"/>
      <point x="823" y="18" type="curve" smooth="yes"/>
      <point x="724" y="18"/>
      <point x="718" y="100"/>
      <point x="739" y="165" type="curve" smooth="yes"/>
      <point x="904" y="655" type="line" smooth="yes"/>
      <point x="953" y="800"/>
      <point x="890" y="890"/>
      <point x="748" y="890" type="curve" smooth="yes"/>
      <point x="640" y="890"/>
      <point x="541" y="839"/>
      <point x="471" y="750" type="curve"/>
      <point x="474" y="759" type="line" smooth="yes"/>
      <point x="498" y="831"/>
      <point x="474" y="890"/>
      <point x="391" y="890" type="curve" smooth="yes"/>
      <point x="328" y="890"/>
      <point x="273" y="859"/>
      <point x="218" y="806" type="curve" smooth="yes"/>
      <point x="208" y="796"/>
      <point x="205" y="790"/>
      <point x="215" y="780" type="curve" smooth="yes"/>
      <point x="226" y="769"/>
      <point x="233" y="770"/>
      <point x="243" y="780" type="curve" smooth="yes"/>
      <point x="293" y="829"/>
      <point x="336" y="856"/>
      <point x="390" y="856" type="curve" smooth="yes"/>
      <point x="438" y="856"/>
      <point x="456" y="820"/>
      <point x="440" y="769" type="curve" smooth="yes"/>
      <point x="189" y="0" type="line" smooth="yes"/>
      <point x="185" y="-10"/>
      <point x="190" y="-15"/>
      <point x="204" y="-15" type="curve" smooth="yes"/>
      <point x="216" y="-15"/>
      <point x="222" y="-11"/>
      <point x="226" y="0" type="curve" smooth="yes"/>
      <point x="441" y="657" type="line"/>
      <point x="510" y="779"/>
      <point x="625" y="853"/>
      <point x="743" y="853" type="curve" smooth="yes"/>
      <point x="869" y="853"/>
      <point x="911" y="786"/>
      <point x="864" y="648" type="curve" smooth="yes"/>
      <point x="703" y="174" type="line" smooth="yes"/>
      <point x="668" y="73"/>
      <point x="703" y="-17"/>
    </contour>
  </outline>
</glyph>
<glyph name="N.dec" format="2">
  <advance width="1116"/>
  <anchor x="451" y="0" name="bottom"/>
  <anchor x="773" y="838" name="top"/>
  <outline>
    <contour>
      <point x="124" y="-17" type="curve" smooth="yes"/>
      <point x="223" y="-17"/>
      <point x="299" y="59"/>
      <point x="400" y="374" type="curve" smooth="yes"/>
      <point x="538" y="801" type="line"/>
      <point x="710" y="-1" type="line" smooth="yes"/>
      <point x="711" y="-10"/>
      <point x="719" y="-14"/>
      <point x="731" y="-14" type="curve" smooth="yes"/>
      <point x="743" y="-14"/>
      <point x="750" y="-10"/>
      <point x="754" y="1" type="curve" smooth="yes"/>
      <point x="965" y="646" type="line" smooth="yes"/>
      <point x="1009" y="781"/>
      <point x="1054" y="853"/>
      <point x="1139" y="853" type="curve" smooth="yes"/>
      <point x="1185" y="853"/>
      <point x="1223" y="836"/>
      <point x="1256" y="810" type="curve" smooth="yes"/>
      <point x="1266" y="803"/>
      <point x="1274" y="801"/>
      <point x="1284" y="813" type="curve" smooth="yes"/>
      <point x="1293" y="823"/>
      <point x="1293" y="831"/>
      <point x="1281" y="840" type="curve" smooth="yes"/>
      <point x="1246" y="868"/>
      <point x="1196" y="890"/>
      <point x="1144" y="890" type="curve" smooth="yes"/>
      <point x="1041" y="890"/>
      <point x="979" y="813"/>
      <point x="929" y="658" type="curve" smooth="yes"/>
      <point x="735" y="63" type="line"/>
      <point x="563" y="863" type="line" smooth="yes"/>
      <point x="560" y="873"/>
      <point x="554" y="878"/>
      <point x="541" y="878" type="curve" smooth="yes"/>
      <point x="530" y="878"/>
      <point x="523" y="874"/>
      <point x="519" y="863" type="curve" smooth="yes"/>
      <point x="364" y="385" type="line" smooth="yes"/>
      <point x="270" y="98"/>
      <point x="209" y="20"/>
      <point x="129" y="20" type="curve" smooth="yes"/>
      <point x="81" y="20"/>
      <point x="60" y="58"/>
      <point x="60" y="95" type="curve" smooth="yes"/>
      <point x="60" y="145"/>
      <point x="89" y="195"/>
      <point x="126" y="245" type="curve" smooth="yes"/>
      <point x="134" y="255"/>
      <point x="135" y="261"/>
      <point x="123" y="269" type="curve" smooth="yes"/>
      <point x="111" y="276"/>
      <point x="106" y="275"/>
      <point x="98" y="264" type="curve" smooth="yes"/>
      <point x="55" y="208"/>
      <point x="19" y="151"/>
      <point x="19" y="91" type="curve" smooth="yes"/>
      <point x="19" y="33"/>
      <point x="60" y="-17"/>
    </contour>
  </outline>
</glyph>
<glyph name="O.dec" format="2">
  <advance width="989"/>
  <anchor x="381" y="0" name="bottom"/>
  <anchor x="524" y="438" name="center"/>
  <anchor x="755" y="13" name="ogonek"/>
  <anchor x="630" y="838" name="top"/>
  <anchor x="739" y="875" name="topright"/>
  <outline>
    <contour>
      <point x="651" y="890" type="curve" smooth="yes"/>
      <point x="488" y="890"/>
      <point x="370" y="753"/>
      <point x="370" y="645" type="curve" smooth="yes"/>
      <point x="370" y="526"/>
      <point x="440" y="456"/>
      <point x="574" y="456" type="curve" smooth="yes"/>
      <point x="710" y="456"/>
      <point x="860" y="495"/>
      <point x="1079" y="590" type="curve" smooth="yes"/>
      <point x="1091" y="595"/>
      <point x="1094" y="601"/>
      <point x="1089" y="614" type="curve" smooth="yes"/>
      <point x="1084" y="628"/>
      <point x="1078" y="629"/>
      <point x="1065" y="624" type="curve" smooth="yes"/>
      <point x="864" y="536"/>
      <point x="710" y="494"/>
      <point x="575" y="494" type="curve" smooth="yes"/>
      <point x="459" y="494"/>
      <point x="411" y="555"/>
      <point x="411" y="650" type="curve" smooth="yes"/>
      <point x="411" y="753"/>
      <point x="508" y="853"/>
      <point x="649" y="853" type="curve" smooth="yes"/>
      <point x="798" y="853"/>
      <point x="875" y="755"/>
      <point x="875" y="590" type="curve" smooth="yes"/>
      <point x="875" y="350"/>
      <point x="705" y="19"/>
      <point x="418" y="19" type="curve" smooth="yes"/>
      <point x="268" y="19"/>
      <point x="174" y="118"/>
      <point x="174" y="293" type="curve" smooth="yes"/>
      <point x="174" y="510"/>
      <point x="313" y="800"/>
      <point x="580" y="853" type="curve" smooth="yes"/>
      <point x="596" y="856"/>
      <point x="599" y="864"/>
      <point x="595" y="876" type="curve" smooth="yes"/>
      <point x="591" y="888"/>
      <point x="588" y="890"/>
      <point x="569" y="886" type="curve" smooth="yes"/>
      <point x="280" y="830"/>
      <point x="133" y="525"/>
      <point x="133" y="293" type="curve" smooth="yes"/>
      <point x="133" y="94"/>
      <point x="243" y="-19"/>
      <point x="415" y="-19" type="curve" smooth="yes"/>
      <point x="736" y="-19"/>
      <point x="916" y="333"/>
      <point x="916" y="590" type="curve" smooth="yes"/>
      <point x="916" y="774"/>
      <point x="825" y="890"/>
    </contour>
  </outline>
</glyph>
<glyph name="OE.cur.ini" format="2">
  <advance width="1318"/>
  <anchor x="1237" y="0" name="cnct"/>
  <anchor x="875" y="838" name="top"/>
  <outline>
    <contour>
      <point x="361" y="-19" type="curve" smooth="yes"/>
      <point x="623" y="-19"/>
      <point x="889" y="313"/>
      <point x="889" y="639" type="curve" smooth="yes"/>
      <point x="889" y="810"/>
      <point x="808" y="890"/>
      <point x="696" y="890" type="curve" smooth="yes"/>
      <point x="588" y="890"/>
      <point x="486" y="826"/>
      <point x="405" y="704" type="curve" smooth="yes"/>
      <point x="398" y="693"/>
      <point x="399" y="684"/>
      <point x="406" y="678" type="curve" smooth="yes"/>
      <point x="415" y="671"/>
      <point x="428" y="674"/>
      <point x="434" y="684" type="curve" smooth="yes"/>
      <point x="508" y="795"/>
      <point x="600" y="854"/>
      <point x="689" y="854" type="curve" smooth="yes"/>
      <point x="784" y="854"/>
      <point x="848" y="794"/>
      <point x="848" y="639" type="curve" smooth="yes"/>
      <point x="848" y="338"/>
      <point x="598" y="19"/>
      <point x="364" y="19" type="curve" smooth="yes"/>
      <point x="228" y="19"/>
      <point x="166" y="113"/>
      <point x="166" y="268" type="curve" smooth="yes"/>
      <point x="166" y="470"/>
      <point x="281" y="690"/>
      <point x="435" y="798" type="curve" smooth="yes"/>
      <point x="448" y="806"/>
      <point x="449" y="815"/>
      <point x="443" y="825" type="curve" smooth="yes"/>
      <point x="438" y="833"/>
      <point x="434" y="840"/>
      <point x="414" y="826" type="curve" smooth="yes"/>
      <point x="248" y="711"/>
      <point x="125" y="480"/>
      <point x="125" y="268" type="curve" smooth="yes"/>
      <point x="125" y="90"/>
      <point x="200" y="-19"/>
    </contour>
    <contour>
      <point x="952" y="-17" type="curve" smooth="yes"/>
      <point x="972" y="-17"/>
      <point x="977" y="16"/>
      <point x="957" y="16" type="curve" smooth="yes"/>
      <point x="824" y="16"/>
      <point x="778" y="102"/>
      <point x="778" y="200" type="curve" smooth="yes"/>
      <point x="778" y="369"/>
      <point x="943" y="441"/>
      <point x="1106" y="441" type="curve" smooth="yes"/>
      <point x="1179" y="441" type="line" smooth="yes"/>
      <point x="1185" y="441"/>
      <point x="1195" y="445"/>
      <point x="1198" y="458" type="curve" smooth="yes"/>
      <point x="1200" y="470"/>
      <point x="1194" y="476"/>
      <point x="1188" y="476" type="curve" smooth="yes"/>
      <point x="1111" y="476" type="line" smooth="yes"/>
      <point x="998" y="476"/>
      <point x="958" y="543"/>
      <point x="958" y="631" type="curve" smooth="yes"/>
      <point x="958" y="750"/>
      <point x="1046" y="853"/>
      <point x="1169" y="853" type="curve" smooth="yes"/>
      <point x="1243" y="853"/>
      <point x="1295" y="828"/>
      <point x="1346" y="773" type="curve" smooth="yes"/>
      <point x="1353" y="766"/>
      <point x="1361" y="760"/>
      <point x="1373" y="769" type="curve" smooth="yes"/>
      <point x="1389" y="781"/>
      <point x="1381" y="789"/>
      <point x="1376" y="795" type="curve" smooth="yes"/>
      <point x="1336" y="848"/>
      <point x="1270" y="890"/>
      <point x="1179" y="890" type="curve" smooth="yes"/>
      <point x="1018" y="890"/>
      <point x="916" y="763"/>
      <point x="916" y="629" type="curve" smooth="yes"/>
      <point x="916" y="554"/>
      <point x="946" y="493"/>
      <point x="1020" y="465" type="curve"/>
      <point x="858" y="439"/>
      <point x="736" y="355"/>
      <point x="736" y="191" type="curve" smooth="yes"/>
      <point x="736" y="86"/>
      <point x="799" y="-17"/>
    </contour>
  </outline>
</glyph>
<glyph name="P.cur" format="2">
  <advance width="841"/>
  <outline>
    <contour>
      <point x="438" y="351" type="curve" smooth="yes"/>
      <point x="665" y="359"/>
      <point x="920" y="433"/>
      <point x="920" y="678" type="curve" smooth="yes"/>
      <point x="920" y="831"/>
      <point x="769" y="890"/>
      <point x="629" y="890" type="curve" smooth="yes"/>
      <point x="468" y="890"/>
      <point x="364" y="858"/>
      <point x="248" y="778" type="curve" smooth="yes"/>
      <point x="236" y="770"/>
      <point x="234" y="759"/>
      <point x="241" y="750" type="curve" smooth="yes"/>
      <point x="251" y="739"/>
      <point x="259" y="740"/>
      <point x="269" y="748" type="curve" smooth="yes"/>
      <point x="384" y="830"/>
      <point x="483" y="854"/>
      <point x="626" y="854" type="curve" smooth="yes"/>
      <point x="736" y="854"/>
      <point x="880" y="814"/>
      <point x="880" y="675" type="curve" smooth="yes"/>
      <point x="880" y="458"/>
      <point x="643" y="393"/>
      <point x="435" y="386" type="curve" smooth="yes"/>
      <point x="421" y="386"/>
      <point x="413" y="383"/>
      <point x="413" y="368" type="curve" smooth="yes"/>
      <point x="413" y="353"/>
      <point x="421" y="351"/>
    </contour>
    <contour>
      <point x="114" y="-17" type="curve" smooth="yes"/>
      <point x="194" y="-17"/>
      <point x="243" y="40"/>
      <point x="276" y="143" type="curve" smooth="yes"/>
      <point x="476" y="746" type="line" smooth="yes"/>
      <point x="480" y="758"/>
      <point x="473" y="761"/>
      <point x="461" y="761" type="curve" smooth="yes"/>
      <point x="448" y="761"/>
      <point x="441" y="758"/>
      <point x="438" y="746" type="curve" smooth="yes"/>
      <point x="240" y="151" type="line" smooth="yes"/>
      <point x="209" y="59"/>
      <point x="170" y="18"/>
      <point x="118" y="18" type="curve" smooth="yes"/>
      <point x="79" y="18"/>
      <point x="41" y="26"/>
      <point x="18" y="84" type="curve" smooth="yes"/>
      <point x="14" y="93"/>
      <point x="4" y="93"/>
      <point x="-4" y="88" type="curve" smooth="yes"/>
      <point x="-11" y="84"/>
      <point x="-16" y="76"/>
      <point x="-14" y="69" type="curve" smooth="yes"/>
      <point x="10" y="13"/>
      <point x="51" y="-17"/>
    </contour>
  </outline>
</glyph>
<glyph name="Q.cur_locl" format="2">
  <advance width="954"/>
  <anchor x="381" y="0" name="bottom"/>
  <anchor x="524" y="438" name="center"/>
  <anchor x="755" y="13" name="ogonek"/>
  <anchor x="630" y="838" name="top"/>
  <anchor x="743" y="875" name="topright"/>
  <outline>
    <contour>
      <point x="693" y="-100" type="curve" smooth="yes"/>
      <point x="749" y="-100"/>
      <point x="811" y="-66"/>
      <point x="874" y="26" type="curve" smooth="yes"/>
      <point x="881" y="38"/>
      <point x="879" y="44"/>
      <point x="870" y="50" type="curve" smooth="yes"/>
      <point x="859" y="58"/>
      <point x="851" y="56"/>
      <point x="845" y="48" type="curve" smooth="yes"/>
      <point x="785" y="-35"/>
      <point x="739" y="-64"/>
      <point x="696" y="-64" type="curve" smooth="yes"/>
      <point x="579" y="-64"/>
      <point x="554" y="259"/>
      <point x="405" y="259" type="curve" smooth="yes"/>
      <point x="380" y="259"/>
      <point x="378" y="223"/>
      <point x="403" y="223" type="curve" smooth="yes"/>
      <point x="524" y="223"/>
      <point x="551" y="-100"/>
    </contour>
    <component base="O"/>
  </outline>
</glyph>
<glyph name="Q.cur_locl.ini" format="2">
  <advance width="941"/>
  <anchor x="860" y="0" name="cnct"/>
  <anchor x="381" y="0" name="bottom"/>
  <anchor x="524" y="438" name="center"/>
  <anchor x="755" y="13" name="ogonek"/>
  <anchor x="630" y="838" name="top"/>
  <anchor x="743" y="875" name="topright"/>
  <outline>
    <contour>
      <point x="805" y="-17" type="curve" smooth="yes"/>
      <point x="839" y="-17"/>
      <point x="841" y="18"/>
      <point x="816" y="18" type="curve" smooth="yes"/>
      <point x="661" y="18"/>
      <point x="559" y="259"/>
      <point x="405" y="259" type="curve" smooth="yes"/>
      <point x="380" y="259"/>
      <point x="378" y="223"/>
      <point x="403" y="223" type="curve" smooth="yes"/>
      <point x="540" y="223"/>
      <point x="648" y="-17"/>
    </contour>
    <component base="O"/>
  </outline>
</glyph>
<glyph name="Q_locl.ini" format="2">
  <advance width="939"/>
  <anchor x="858" y="0" name="cnct"/>
  <outline>
    <contour>
      <point x="360" y="-17" type="curve" smooth="yes"/>
      <point x="513" y="-17"/>
      <point x="628" y="71"/>
      <point x="724" y="243" type="curve"/>
      <point x="524" y="-375" type="line" smooth="yes"/>
      <point x="520" y="-386"/>
      <point x="526" y="-390"/>
      <point x="540" y="-390" type="curve" smooth="yes"/>
      <point x="553" y="-390"/>
      <point x="558" y="-385"/>
      <point x="561" y="-375" type="curve" smooth="yes"/>
      <point x="838" y="478" type="line" smooth="yes"/>
      <point x="841" y="489"/>
      <point x="836" y="493"/>
      <point x="823" y="493" type="curve" smooth="yes"/>
      <point x="809" y="493"/>
      <point x="804" y="489"/>
      <point x="800" y="476" type="curve"/>
      <point x="678" y="156"/>
      <point x="535" y="20"/>
      <point x="366" y="20" type="curve" smooth="yes"/>
      <point x="274" y="20"/>
      <point x="165" y="79"/>
      <point x="165" y="269" type="curve" smooth="yes"/>
      <point x="165" y="576"/>
      <point x="380" y="853"/>
      <point x="633" y="853" type="curve" smooth="yes"/>
      <point x="746" y="853"/>
      <point x="840" y="794"/>
      <point x="863" y="666" type="curve" smooth="yes"/>
      <point x="864" y="658"/>
      <point x="874" y="653"/>
      <point x="886" y="658" type="curve" smooth="yes"/>
      <point x="901" y="664"/>
      <point x="901" y="675"/>
      <point x="899" y="688" type="curve" smooth="yes"/>
      <point x="869" y="825"/>
      <point x="761" y="890"/>
      <point x="638" y="890" type="curve" smooth="yes"/>
      <point x="345" y="890"/>
      <point x="124" y="589"/>
      <point x="124" y="266" type="curve" smooth="yes"/>
      <point x="124" y="56"/>
      <point x="250" y="-17"/>
    </contour>
  </outline>
</glyph>
<glyph name="R.cur.ini" format="2">
  <advance width="889"/>
  <anchor x="421" y="0" name="bottom"/>
  <anchor x="808" y="0" name="cnct"/>
  <anchor x="655" y="838" name="top"/>
  <outline>
    <contour>
      <point x="760" y="-17" type="curve" smooth="yes"/>
      <point x="785" y="-17"/>
      <point x="790" y="18"/>
      <point x="765" y="18" type="curve" smooth="yes"/>
      <point x="691" y="18"/>
      <point x="646" y="59"/>
      <point x="586" y="230" type="curve" smooth="yes"/>
      <point x="564" y="295"/>
      <point x="549" y="335"/>
      <point x="533" y="391" type="curve"/>
      <point x="721" y="414"/>
      <point x="898" y="495"/>
      <point x="898" y="684" type="curve" smooth="yes"/>
      <point x="898" y="835"/>
      <point x="756" y="890"/>
      <point x="618" y="890" type="curve" smooth="yes"/>
      <point x="454" y="890"/>
      <point x="350" y="858"/>
      <point x="234" y="778" type="curve" smooth="yes"/>
      <point x="223" y="770"/>
      <point x="220" y="759"/>
      <point x="228" y="750" type="curve" smooth="yes"/>
      <point x="238" y="739"/>
      <point x="245" y="740"/>
      <point x="255" y="748" type="curve" smooth="yes"/>
      <point x="370" y="830"/>
      <point x="469" y="856"/>
      <point x="615" y="856" type="curve" smooth="yes"/>
      <point x="726" y="856"/>
      <point x="858" y="820"/>
      <point x="858" y="681" type="curve" smooth="yes"/>
      <point x="858" y="516"/>
      <point x="696" y="445"/>
      <point x="524" y="425" type="curve"/>
      <point x="514" y="444"/>
      <point x="490" y="455"/>
      <point x="469" y="455" type="curve" smooth="yes"/>
      <point x="445" y="455"/>
      <point x="426" y="441"/>
      <point x="426" y="420" type="curve" smooth="yes"/>
      <point x="426" y="394"/>
      <point x="458" y="381"/>
      <point x="496" y="385" type="curve"/>
      <point x="518" y="315"/>
      <point x="530" y="279"/>
      <point x="556" y="205" type="curve" smooth="yes"/>
      <point x="609" y="59"/>
      <point x="663" y="-17"/>
    </contour>
    <contour>
      <point x="104" y="-17" type="curve" smooth="yes"/>
      <point x="181" y="-17"/>
      <point x="229" y="40"/>
      <point x="263" y="143" type="curve" smooth="yes"/>
      <point x="461" y="746" type="line" smooth="yes"/>
      <point x="465" y="758"/>
      <point x="458" y="761"/>
      <point x="446" y="761" type="curve" smooth="yes"/>
      <point x="433" y="761"/>
      <point x="426" y="758"/>
      <point x="423" y="746" type="curve" smooth="yes"/>
      <point x="226" y="151" type="line" smooth="yes"/>
      <point x="196" y="59"/>
      <point x="158" y="18"/>
      <point x="108" y="18" type="curve" smooth="yes"/>
      <point x="69" y="18"/>
      <point x="31" y="26"/>
      <point x="8" y="84" type="curve" smooth="yes"/>
      <point x="4" y="93"/>
      <point x="-6" y="93"/>
      <point x="-14" y="88" type="curve" smooth="yes"/>
      <point x="-21" y="84"/>
      <point x="-26" y="76"/>
      <point x="-24" y="69" type="curve" smooth="yes"/>
      <point x="0" y="13"/>
      <point x="41" y="-17"/>
    </contour>
  </outline>
</glyph>
<glyph name="T.cur" format="2">
  <advance width="721"/>
  <anchor x="391" y="0" name="bottom"/>
  <anchor x="328" y="438" name="center"/>
  <anchor x="571" y="838" name="top"/>
  <outline>
    <contour>
      <point x="393" y="-17" type="curve" smooth="yes"/>
      <point x="468" y="-17"/>
      <point x="550" y="23"/>
      <point x="619" y="94" type="curve" smooth="yes"/>
      <point x="625" y="100"/>
      <point x="625" y="109"/>
      <point x="618" y="116" type="curve" smooth="yes"/>
      <point x="610" y="124"/>
      <point x="600" y="124"/>
      <point x="593" y="116" type="curve" smooth="yes"/>
      <point x="526" y="51"/>
      <point x="460" y="18"/>
      <point x="399" y="18" type="curve" smooth="yes"/>
      <point x="314" y="18"/>
      <point x="258" y="78"/>
      <point x="258" y="185" type="curve" smooth="yes"/>
      <point x="258" y="351"/>
      <point x="371" y="560"/>
      <point x="643" y="840" type="curve"/>
      <point x="880" y="840" type="line" smooth="yes"/>
      <point x="893" y="840"/>
      <point x="898" y="844"/>
      <point x="901" y="858" type="curve" smooth="yes"/>
      <point x="904" y="871"/>
      <point x="901" y="875"/>
      <point x="890" y="875" type="curve" smooth="yes"/>
      <point x="396" y="875" type="line" smooth="yes"/>
      <point x="281" y="875"/>
      <point x="194" y="813"/>
      <point x="169" y="714" type="curve" smooth="yes"/>
      <point x="166" y="701"/>
      <point x="168" y="696"/>
      <point x="176" y="694" type="curve" smooth="yes"/>
      <point x="189" y="690"/>
      <point x="200" y="695"/>
      <point x="203" y="704" type="curve" smooth="yes"/>
      <point x="225" y="788"/>
      <point x="299" y="840"/>
      <point x="393" y="840" type="curve" smooth="yes"/>
      <point x="596" y="840" type="line"/>
      <point x="331" y="566"/>
      <point x="220" y="356"/>
      <point x="220" y="183" type="curve" smooth="yes"/>
      <point x="220" y="56"/>
      <point x="290" y="-17"/>
    </contour>
  </outline>
</glyph>
<glyph name="T.cur.ini" format="2">
  <advance width="671"/>
  <anchor x="391" y="0" name="bottom"/>
  <anchor x="328" y="438" name="center"/>
  <anchor x="590" y="0" name="cnct"/>
  <anchor x="571" y="838" name="top"/>
  <outline>
    <contour>
      <point x="405" y="-17" type="curve" smooth="yes"/>
      <point x="440" y="-17"/>
      <point x="435" y="16"/>
      <point x="410" y="16" type="curve" smooth="yes"/>
      <point x="319" y="16"/>
      <point x="258" y="69"/>
      <point x="258" y="185" type="curve" smooth="yes"/>
      <point x="258" y="351"/>
      <point x="371" y="560"/>
      <point x="643" y="840" type="curve"/>
      <point x="880" y="840" type="line" smooth="yes"/>
      <point x="893" y="840"/>
      <point x="898" y="844"/>
      <point x="901" y="858" type="curve" smooth="yes"/>
      <point x="904" y="871"/>
      <point x="901" y="875"/>
      <point x="890" y="875" type="curve" smooth="yes"/>
      <point x="396" y="875" type="line" smooth="yes"/>
      <point x="281" y="875"/>
      <point x="194" y="813"/>
      <point x="169" y="714" type="curve" smooth="yes"/>
      <point x="166" y="701"/>
      <point x="168" y="696"/>
      <point x="176" y="694" type="curve" smooth="yes"/>
      <point x="189" y="690"/>
      <point x="200" y="695"/>
      <point x="203" y="704" type="curve" smooth="yes"/>
      <point x="225" y="788"/>
      <point x="299" y="840"/>
      <point x="393" y="840" type="curve" smooth="yes"/>
      <point x="596" y="840" type="line"/>
      <point x="331" y="566"/>
      <point x="220" y="356"/>
      <point x="220" y="183" type="curve" smooth="yes"/>
      <point x="220" y="48"/>
      <point x="293" y="-17"/>
    </contour>
  </outline>
</glyph>
<glyph name="T.cur_locl" format="2">
  <advance width="941"/>
  <anchor x="509" y="0" name="bottom"/>
  <anchor x="523" y="438" name="center"/>
  <anchor x="626" y="838" name="top"/>
  <outline>
    <contour>
      <point x="519" y="-17" type="curve" smooth="yes"/>
      <point x="636" y="-17"/>
      <point x="740" y="26"/>
      <point x="854" y="141" type="curve"/>
      <point x="861" y="151"/>
      <point x="864" y="158"/>
      <point x="853" y="166" type="curve" smooth="yes"/>
      <point x="843" y="176"/>
      <point x="835" y="174"/>
      <point x="828" y="166" type="curve" smooth="yes"/>
      <point x="733" y="68"/>
      <point x="636" y="20"/>
      <point x="528" y="20" type="curve" smooth="yes"/>
      <point x="411" y="20"/>
      <point x="339" y="88"/>
      <point x="339" y="211" type="curve" smooth="yes"/>
      <point x="339" y="271"/>
      <point x="350" y="323"/>
      <point x="370" y="369" type="curve"/>
      <point x="615" y="369" type="line" smooth="yes"/>
      <point x="623" y="369"/>
      <point x="628" y="374"/>
      <point x="630" y="386" type="curve" smooth="yes"/>
      <point x="633" y="398"/>
      <point x="629" y="404"/>
      <point x="621" y="404" type="curve" smooth="yes"/>
      <point x="389" y="404" type="line"/>
      <point x="503" y="600"/>
      <point x="789" y="681"/>
      <point x="1005" y="846" type="curve" smooth="yes"/>
      <point x="1014" y="853"/>
      <point x="1015" y="861"/>
      <point x="1009" y="871" type="curve" smooth="yes"/>
      <point x="1001" y="883"/>
      <point x="993" y="883"/>
      <point x="983" y="876" type="curve" smooth="yes"/>
      <point x="919" y="840"/>
      <point x="850" y="816"/>
      <point x="776" y="816" type="curve" smooth="yes"/>
      <point x="646" y="816"/>
      <point x="580" y="890"/>
      <point x="448" y="890" type="curve" smooth="yes"/>
      <point x="314" y="890"/>
      <point x="246" y="809"/>
      <point x="209" y="699" type="curve" smooth="yes"/>
      <point x="205" y="689"/>
      <point x="213" y="684"/>
      <point x="225" y="684" type="curve" smooth="yes"/>
      <point x="239" y="684"/>
      <point x="243" y="689"/>
      <point x="246" y="699" type="curve" smooth="yes"/>
      <point x="279" y="793"/>
      <point x="334" y="856"/>
      <point x="444" y="856" type="curve" smooth="yes"/>
      <point x="568" y="856"/>
      <point x="630" y="783"/>
      <point x="769" y="783" type="curve" smooth="yes"/>
      <point x="811" y="783"/>
      <point x="850" y="791"/>
      <point x="886" y="805" type="curve"/>
      <point x="671" y="671"/>
      <point x="440" y="584"/>
      <point x="344" y="404" type="curve"/>
      <point x="229" y="404" type="line" smooth="yes"/>
      <point x="221" y="404"/>
      <point x="218" y="399"/>
      <point x="215" y="388" type="curve" smooth="yes"/>
      <point x="213" y="376"/>
      <point x="215" y="369"/>
      <point x="223" y="369" type="curve" smooth="yes"/>
      <point x="328" y="369" type="line"/>
      <point x="309" y="321"/>
      <point x="298" y="269"/>
      <point x="298" y="208" type="curve" smooth="yes"/>
      <point x="298" y="68"/>
      <point x="386" y="-17"/>
    </contour>
  </outline>
</glyph>
<glyph name="T.dec" format="2">
  <advance width="721"/>
  <anchor x="193" y="0" name="bottom"/>
  <anchor x="445" y="438" name="center"/>
  <anchor x="555" y="838" name="top"/>
  <outline>
    <contour>
      <point x="210" y="-17" type="curve" smooth="yes"/>
      <point x="289" y="-17"/>
      <point x="336" y="40"/>
      <point x="370" y="143" type="curve" smooth="yes"/>
      <point x="598" y="840" type="line"/>
      <point x="880" y="840" type="line" smooth="yes"/>
      <point x="893" y="840"/>
      <point x="898" y="844"/>
      <point x="901" y="858" type="curve" smooth="yes"/>
      <point x="904" y="871"/>
      <point x="901" y="875"/>
      <point x="890" y="875" type="curve" smooth="yes"/>
      <point x="396" y="875" type="line" smooth="yes"/>
      <point x="281" y="875"/>
      <point x="194" y="813"/>
      <point x="169" y="714" type="curve" smooth="yes"/>
      <point x="166" y="701"/>
      <point x="168" y="696"/>
      <point x="176" y="694" type="curve" smooth="yes"/>
      <point x="189" y="690"/>
      <point x="200" y="695"/>
      <point x="203" y="704" type="curve" smooth="yes"/>
      <point x="225" y="788"/>
      <point x="299" y="840"/>
      <point x="393" y="840" type="curve" smooth="yes"/>
      <point x="559" y="840" type="line"/>
      <point x="334" y="151" type="line" smooth="yes"/>
      <point x="304" y="58"/>
      <point x="265" y="18"/>
      <point x="214" y="18" type="curve" smooth="yes"/>
      <point x="174" y="18"/>
      <point x="130" y="26"/>
      <point x="106" y="84" type="curve" smooth="yes"/>
      <point x="103" y="93"/>
      <point x="93" y="93"/>
      <point x="84" y="88" type="curve" smooth="yes"/>
      <point x="78" y="84"/>
      <point x="73" y="76"/>
      <point x="75" y="69" type="curve" smooth="yes"/>
      <point x="99" y="13"/>
      <point x="146" y="-17"/>
    </contour>
  </outline>
</glyph>
<glyph name="U.cur.ini" format="2">
  <advance width="923"/>
  <anchor x="443" y="0" name="bottom"/>
  <anchor x="842" y="0" name="cnct"/>
  <anchor x="794" y="13" name="ogonek"/>
  <anchor x="657" y="838" name="top"/>
  <anchor x="932" y="888" name="topright"/>
  <outline>
    <contour>
      <point x="395" y="-15" type="curve" smooth="yes"/>
      <point x="519" y="-15"/>
      <point x="632" y="56"/>
      <point x="698" y="175" type="curve"/>
      <point x="693" y="216" type="line"/>
      <point x="627" y="94"/>
      <point x="519" y="23"/>
      <point x="402" y="23" type="curve" smooth="yes"/>
      <point x="279" y="23"/>
      <point x="240" y="91"/>
      <point x="284" y="228" type="curve" smooth="yes"/>
      <point x="455" y="758" type="line" smooth="yes"/>
      <point x="482" y="838"/>
      <point x="453" y="890"/>
      <point x="377" y="890" type="curve" smooth="yes"/>
      <point x="313" y="890"/>
      <point x="260" y="859"/>
      <point x="205" y="806" type="curve" smooth="yes"/>
      <point x="195" y="796"/>
      <point x="193" y="790"/>
      <point x="203" y="780" type="curve" smooth="yes"/>
      <point x="214" y="769"/>
      <point x="220" y="770"/>
      <point x="230" y="780" type="curve" smooth="yes"/>
      <point x="280" y="829"/>
      <point x="323" y="856"/>
      <point x="375" y="856" type="curve" smooth="yes"/>
      <point x="423" y="856"/>
      <point x="438" y="820"/>
      <point x="422" y="769" type="curve" smooth="yes"/>
      <point x="244" y="220" type="line" smooth="yes"/>
      <point x="198" y="76"/>
      <point x="255" y="-15"/>
    </contour>
    <contour>
      <point x="788" y="-17" type="curve" smooth="yes"/>
      <point x="810" y="-17"/>
      <point x="818" y="18"/>
      <point x="799" y="18" type="curve" smooth="yes"/>
      <point x="700" y="18"/>
      <point x="694" y="100"/>
      <point x="715" y="165" type="curve" smooth="yes"/>
      <point x="947" y="873" type="line" smooth="yes"/>
      <point x="950" y="884"/>
      <point x="945" y="888"/>
      <point x="932" y="888" type="curve" smooth="yes"/>
      <point x="919" y="888"/>
      <point x="913" y="883"/>
      <point x="909" y="873" type="curve" smooth="yes"/>
      <point x="679" y="174" type="line" smooth="yes"/>
      <point x="645" y="73"/>
      <point x="679" y="-17"/>
    </contour>
  </outline>
</glyph>
<glyph name="V.cur" format="2">
  <advance width="928"/>
  <guideline x="317" y="591" angle="256.44"/>
  <guideline x="349" y="601" angle="256.44"/>
  <outline>
    <contour>
      <point x="415" y="-19" type="curve" smooth="yes"/>
      <point x="635" y="-19"/>
      <point x="800" y="345"/>
      <point x="864" y="551" type="curve" smooth="yes"/>
      <point x="903" y="676"/>
      <point x="914" y="750"/>
      <point x="921" y="800" type="curve"/>
      <point x="945" y="780"/>
      <point x="1038" y="759"/>
      <point x="1063" y="758" type="curve" smooth="yes"/>
      <point x="1078" y="756"/>
      <point x="1090" y="786"/>
      <point x="1076" y="789" type="curve" smooth="yes"/>
      <point x="1010" y="799"/>
      <point x="949" y="821"/>
      <point x="934" y="841" type="curve"/>
      <point x="930" y="868"/>
      <point x="908" y="884"/>
      <point x="886" y="884" type="curve" smooth="yes"/>
      <point x="865" y="884"/>
      <point x="846" y="873"/>
      <point x="846" y="848" type="curve" smooth="yes"/>
      <point x="846" y="830"/>
      <point x="860" y="811"/>
      <point x="886" y="805" type="curve"/>
      <point x="880" y="751"/>
      <point x="863" y="678"/>
      <point x="828" y="560" type="curve" smooth="yes"/>
      <point x="770" y="370"/>
      <point x="608" y="16"/>
      <point x="416" y="16" type="curve" smooth="yes"/>
      <point x="316" y="16"/>
      <point x="300" y="108"/>
      <point x="321" y="230" type="curve" smooth="yes"/>
      <point x="351" y="406"/>
      <point x="394" y="583"/>
      <point x="438" y="755" type="curve" smooth="yes"/>
      <point x="458" y="836"/>
      <point x="431" y="890"/>
      <point x="354" y="890" type="curve" smooth="yes"/>
      <point x="295" y="890"/>
      <point x="245" y="861"/>
      <point x="199" y="805" type="curve" smooth="yes"/>
      <point x="190" y="794"/>
      <point x="189" y="788"/>
      <point x="200" y="779" type="curve" smooth="yes"/>
      <point x="213" y="769"/>
      <point x="219" y="771"/>
      <point x="228" y="783" type="curve" smooth="yes"/>
      <point x="269" y="834"/>
      <point x="305" y="856"/>
      <point x="353" y="856" type="curve" smooth="yes"/>
      <point x="401" y="856"/>
      <point x="415" y="816"/>
      <point x="403" y="764" type="curve" smooth="yes"/>
      <point x="356" y="579"/>
      <point x="313" y="399"/>
      <point x="284" y="223" type="curve" smooth="yes"/>
      <point x="258" y="64"/>
      <point x="303" y="-19"/>
    </contour>
  </outline>
</glyph>
